<svg width="20" height="20" viewBox="0 0 20 20" fill="none" xmlns="http://www.w3.org/2000/svg">
<path d="M8.14817 17.5H11.8519C14.4527 17.5 15.7532 17.5 16.6873 16.8981C17.0917 16.6375 17.4389 16.3027 17.7092 15.9127C18.3334 15.0119 18.3334 13.7579 18.3334 11.2499C18.3334 8.74189 18.3332 7.48809 17.709 6.58727C17.4388 6.1973 17.0916 5.86247 16.6872 5.6019C15.753 5 14.4526 5 11.8517 5H8.14803C5.54717 5 4.24675 5 3.31259 5.6019C2.90818 5.86247 2.56095 6.1973 2.29074 6.58727C1.66669 7.48789 1.66669 8.74134 1.66669 11.2482L1.66669 11.2499C1.66669 13.7579 1.66669 15.0119 2.29087 15.9127C2.56109 16.3027 2.90832 16.6375 3.31272 16.8981C4.24688 17.5 5.54731 17.5 8.14817 17.5Z" fill="#1C274C"/>
<path d="M8.14817 17.5H11.8519C14.4527 17.5 15.7532 17.5 16.6873 16.8981C17.0917 16.6375 17.4389 16.3027 17.7092 15.9127C18.3334 15.0119 18.3334 13.7579 18.3334 11.2499C18.3334 8.74189 18.3332 7.48809 17.709 6.58727C17.4388 6.1973 17.0916 5.86247 16.6872 5.6019C15.753 5 14.4526 5 11.8517 5H8.14803C5.54717 5 4.24675 5 3.31259 5.6019C2.90818 5.86247 2.56095 6.1973 2.29074 6.58727C1.66669 7.48789 1.66669 8.74134 1.66669 11.2482L1.66669 11.2499C1.66669 13.7579 1.66669 15.0119 2.29087 15.9127C2.56109 16.3027 2.90832 16.6375 3.31272 16.8981C4.24688 17.5 5.54731 17.5 8.14817 17.5Z" fill="url(#paint0_linear_57_2091)"/>
<path fill-rule="evenodd" clip-rule="evenodd" d="M6.66669 3.33333C6.66669 2.8731 7.01108 2.5 7.43592 2.5H12.5641C12.989 2.5 13.3334 2.8731 13.3334 3.33333C13.3334 3.79357 12.989 4.16667 12.5641 4.16667H7.43592C7.01108 4.16667 6.66669 3.79357 6.66669 3.33333Z" fill="#1C274C"/>
<path fill-rule="evenodd" clip-rule="evenodd" d="M6.66669 3.33333C6.66669 2.8731 7.01108 2.5 7.43592 2.5H12.5641C12.989 2.5 13.3334 2.8731 13.3334 3.33333C13.3334 3.79357 12.989 4.16667 12.5641 4.16667H7.43592C7.01108 4.16667 6.66669 3.79357 6.66669 3.33333Z" fill="url(#paint1_linear_57_2091)"/>
<path fill-rule="evenodd" clip-rule="evenodd" d="M14.3983 8.57163C14.3983 8.20179 14.7092 7.90198 15.0927 7.90198H15.5557C15.9392 7.90198 16.2501 8.20179 16.2501 8.57163C16.2501 8.94147 15.9392 9.24128 15.5557 9.24128H15.0927C14.7092 9.24128 14.3983 8.94147 14.3983 8.57163Z" fill="white"/>
<path fill-rule="evenodd" clip-rule="evenodd" d="M6.52789 11.2502C6.52789 9.40105 8.08246 7.90198 10.0001 7.90198C11.9178 7.90198 13.4723 9.40105 13.4723 11.2502C13.4723 13.0994 11.9178 14.5985 10.0001 14.5985C8.08246 14.5985 6.52789 13.0994 6.52789 11.2502ZM7.91678 11.2502C7.91678 10.1407 8.84952 9.24128 10.0001 9.24128C11.1507 9.24128 12.0834 10.1407 12.0834 11.2502C12.0834 12.3598 11.1507 13.2592 10.0001 13.2592C8.84952 13.2592 7.91678 12.3598 7.91678 11.2502Z" fill="#5E5E5E"/>
<path fill-rule="evenodd" clip-rule="evenodd" d="M15.0927 7.90198C14.7092 7.90198 14.3983 8.20179 14.3983 8.57163C14.3983 8.94147 14.7092 9.24128 15.0927 9.24128H15.5557C15.9392 9.24128 16.2501 8.94147 16.2501 8.57163C16.2501 8.20179 15.9392 7.90198 15.5557 7.90198H15.0927Z" fill="#5E5E5E"/>
<defs>
<linearGradient id="paint0_linear_57_2091" x1="3.48941" y1="7.36648" x2="12.6291" y2="19.5527" gradientUnits="userSpaceOnUse">
<stop stop-color="#E8D1AB"/>
<stop offset="1" stop-color="#FBD596"/>
</linearGradient>
<linearGradient id="paint1_linear_57_2091" x1="7.39578" y1="2.81553" x2="7.99314" y2="5.20498" gradientUnits="userSpaceOnUse">
<stop stop-color="#E8D1AB"/>
<stop offset="1" stop-color="#FBD596"/>
</linearGradient>
</defs>
</svg>
