<svg width="20" height="20" viewBox="0 0 20 20" fill="none" xmlns="http://www.w3.org/2000/svg">
<path fill-rule="evenodd" clip-rule="evenodd" d="M18.3334 9.99935C18.3334 14.6017 14.6025 18.3327 10.0001 18.3327C5.39771 18.3327 1.66675 14.6017 1.66675 9.99935C1.66675 5.39698 5.39771 1.66602 10.0001 1.66602C14.6025 1.66602 18.3334 5.39698 18.3334 9.99935Z" fill="url(#paint0_linear_2630_11678)"/>
<path d="M10.625 5C10.625 4.65482 10.3452 4.375 10 4.375C9.65482 4.375 9.375 4.65482 9.375 5V5.26395C8.01631 5.50722 6.875 6.52801 6.875 7.91667C6.875 9.5143 8.38565 10.625 10 10.625C11.1471 10.625 11.875 11.3798 11.875 12.0833C11.875 12.7869 11.1471 13.5417 10 13.5417C8.85293 13.5417 8.125 12.7869 8.125 12.0833C8.125 11.7382 7.84518 11.4583 7.5 11.4583C7.15482 11.4583 6.875 11.7382 6.875 12.0833C6.875 13.472 8.01631 14.4928 9.375 14.7361V15C9.375 15.3452 9.65482 15.625 10 15.625C10.3452 15.625 10.625 15.3452 10.625 15V14.7361C11.9837 14.4928 13.125 13.472 13.125 12.0833C13.125 10.4857 11.6144 9.375 10 9.375C8.85293 9.375 8.125 8.62022 8.125 7.91667C8.125 7.21311 8.85293 6.45833 10 6.45833C11.1471 6.45833 11.875 7.21311 11.875 7.91667C11.875 8.26184 12.1548 8.54167 12.5 8.54167C12.8452 8.54167 13.125 8.26184 13.125 7.91667C13.125 6.52801 11.9837 5.50722 10.625 5.26395V5Z" fill="#171717"/>
<defs>
<linearGradient id="paint0_linear_2630_11678" x1="2.11121" y1="9.99931" x2="18.1112" y2="9.99931" gradientUnits="userSpaceOnUse">
<stop stop-color="#E8D1AB"/>
<stop offset="1" stop-color="#FBD596"/>
</linearGradient>
</defs>
</svg>
