<svg width="93" height="27" viewBox="0 0 93 27" fill="none" xmlns="http://www.w3.org/2000/svg">
<g clip-path="url(#clip0_115111_59098)">
<path d="M0.111784 18.5532C0.111784 17.2121 0.0882785 16.0893 0.015625 15.0849H2.55957L2.6803 16.8084H2.75082C3.3267 15.8987 4.38232 14.8207 6.35037 14.8207C7.88678 14.8207 9.08556 15.6835 9.58986 16.9745H9.63901C10.0472 16.329 10.5258 15.8497 11.0771 15.5163C11.7257 15.0604 12.4714 14.8207 13.4298 14.8207C15.3744 14.8207 17.3403 16.1362 17.3403 19.8709V26.7351H14.4609V20.2991C14.4609 18.3625 13.7888 17.2121 12.3731 17.2121C11.3656 17.2121 10.6209 17.9322 10.31 18.7694C10.2235 19.089 10.1751 19.4175 10.1657 19.7484V26.7362H7.28632V19.987C7.28632 18.3636 6.63885 17.2132 5.27018 17.2132C4.16863 17.2132 3.425 18.076 3.15789 18.8877C3.03929 19.1753 2.99015 19.5119 2.99015 19.8442V26.7362H0.111784V18.5532ZM28.5599 23.9379C28.5599 24.9892 28.608 26.0171 28.7266 26.7362H26.063L25.8717 25.4451H25.7991C25.079 26.3548 23.8545 26.9982 22.3459 26.9982C19.9932 26.9982 18.6737 25.3013 18.6737 23.5299C18.6737 20.5846 21.2871 19.1039 25.6089 19.1273V18.9367C25.6089 18.1697 25.2958 16.9021 23.2316 16.9021C22.0788 16.9021 20.88 17.2622 20.0883 17.7628L19.5124 15.8486C20.3768 15.3213 21.8886 14.8196 23.7349 14.8196C27.4797 14.8196 28.561 17.1908 28.561 19.7239L28.5599 23.9379ZM25.6794 21.0437C23.5906 20.9947 21.6001 21.4495 21.6001 23.2199C21.6001 24.3682 22.3459 24.8955 23.2808 24.8955C24.455 24.8955 25.3204 24.1275 25.5843 23.2913C25.6489 23.0822 25.6814 22.8645 25.6805 22.6457L25.6794 21.0437ZM30.5985 18.5532C30.5985 17.2121 30.5739 16.0893 30.5045 15.0849H33.0933L33.2364 16.8339H33.3091C33.8123 15.9232 35.0848 14.8207 37.0283 14.8207C39.069 14.8207 41.1792 16.1362 41.1792 19.8229V26.7351H38.2282V20.1574C38.2282 18.4829 37.6031 17.211 35.9962 17.211C34.822 17.211 34.0036 18.0493 33.6927 18.9356C33.5965 19.1976 33.573 19.5577 33.573 19.89V26.734H30.5974L30.5985 18.5532ZM53.9769 10.4043V23.4585C53.9769 24.6547 54.026 25.949 54.0731 26.7362H51.4351L51.3144 24.8955H51.2652C50.5707 26.1865 49.1529 26.9993 47.4509 26.9993C44.6666 26.9993 42.4602 24.6313 42.4602 21.0447C42.4346 17.1439 44.8813 14.8217 47.6913 14.8217C49.2982 14.8217 50.45 15.4918 50.9778 16.3567H51.028V10.4054H53.978L53.9769 10.4043ZM51.0269 19.9412C51.0269 19.7036 51.0034 19.416 50.9543 19.1753C50.6904 18.0291 49.7566 17.0949 48.4114 17.0949C46.516 17.0949 45.4583 18.7705 45.4583 20.9467C45.4583 23.074 46.5149 24.6302 48.3879 24.6302C49.5856 24.6302 50.6423 23.8154 50.9297 22.5477C51.0024 22.2857 51.028 21.997 51.028 21.6871L51.0269 19.9412ZM56.0646 26.7362V15.0849H59.0423V26.7362H56.0646ZM61.1279 18.8419C61.1279 17.2632 61.1055 16.1373 61.0339 15.0859H63.6013L63.6954 17.309H63.7926C64.3685 15.659 65.735 15.0859 66.9861 15.0859C67.2736 15.0859 67.4402 15.0369 67.6796 15.0859V17.6712C67.3964 17.6087 67.1073 17.5766 66.8173 17.5753C65.3985 17.5753 64.439 18.485 64.1762 19.7984C64.118 20.099 64.0862 20.4041 64.0811 20.7103V26.7372H61.1279V18.8419ZM69.0493 26.7362V15.0849H72.0227V26.7362H69.0493Z" fill="#0D2B5B"/>
<path d="M90.543 2.76314C89.0697 1.08755 87.5033 1.84599 86.2586 2.46275C85.7351 2.72053 81.956 4.85628 81.956 4.85628C79.8854 5.70739 78.2731 4.77852 77.6406 3.99666C77.5801 3.92251 77.5255 3.8438 77.4771 3.76124L77.3297 3.50666C77.0805 3.07695 76.8036 2.66384 76.5006 2.26994C76.3168 2.03119 76.1176 1.80454 75.9044 1.5914C74.4877 0.165078 72.2237 -0.833028 68.4393 0.979967C66.6475 2.01536 60.8106 5.33989 60.8106 5.33989C58.6172 6.24 56.9397 5.14389 56.3948 4.33965C56.3703 4.30954 56.3488 4.27707 56.3307 4.24272L56.2591 4.12128L55.8894 3.51837C55.7226 3.25427 55.5436 2.99799 55.3531 2.75036C55.1674 2.51312 54.968 2.28691 54.7558 2.07288C53.3487 0.655077 51.0964 -0.340899 47.3452 1.43801C45.0769 2.72905 39.801 5.73615 39.801 5.73615L39.7988 5.73828L35.9375 7.93795L37.9355 10.3837C38.7763 11.1826 40.3565 12.4928 42.8011 11.3882C42.8011 11.3882 49.5483 7.49269 49.575 7.48097C55.3435 4.32474 58.1898 7.34036 59.4484 9.35042C59.4922 9.41327 59.5275 9.48145 59.567 9.54216L59.5691 9.54536C59.5852 9.56986 59.5948 9.59223 59.6087 9.61566L59.7508 9.84788C60.364 10.7746 61.331 11.3733 62.4838 11.3456C63.1195 11.3328 63.5512 11.1261 64.1794 10.7778L70.7076 7.00269L70.7214 6.9963C76.5626 3.80172 79.457 7.01441 80.6931 9.02447C80.7893 9.1981 80.8983 9.36427 81.0105 9.51873C81.6227 10.3464 82.4667 10.8886 83.5394 10.862C84.2478 10.8481 85.0417 10.4242 85.1603 10.3464L92.9865 5.84267C92.9887 5.8448 92.1895 4.64005 90.543 2.76314Z" fill="#FDD213"/>
</g>
<defs>
<clipPath id="clip0_115111_59098">
<rect width="93" height="27" fill="white"/>
</clipPath>
</defs>
</svg>
