<svg width="158" height="20" viewBox="0 0 158 20" fill="none" xmlns="http://www.w3.org/2000/svg">
<g clip-path="url(#clip0_115111_59101)">
<path d="M42.895 10.4782C40.1575 10.4782 38.7961 12.4885 38.7961 15.202C38.7961 18.0262 40.1039 20.0001 42.895 20.0001C45.6883 20.0001 46.9923 18.0262 46.9923 15.202C46.9923 12.4885 45.6325 10.4782 42.895 10.4782ZM42.895 18.1532C42.1673 18.1532 41.8439 17.5011 41.8439 15.2012C41.8439 13.1011 42.0595 12.3236 42.895 12.3236C43.7288 12.3236 43.9453 13.1011 43.9453 15.2012C43.9453 17.5035 43.6195 18.1532 42.895 18.1532ZM48.885 9.70309V10.7183H47.6873V12.7836H48.885V19.8034H51.8227V12.7836H53.4214V10.7183H51.8227V9.79679C51.8227 9.24465 52.1019 8.94265 52.8753 8.94265C53.0382 8.94265 53.2554 8.97827 53.4206 9.01621V6.77205C52.9467 6.71784 52.5107 6.66209 51.9328 6.66209C49.9927 6.66286 48.885 7.47674 48.885 9.70309ZM17.5671 13.2707C17.5671 11.2619 15.7372 10.5038 13.9755 10.5038C12.3093 10.5038 10.6756 11.2255 10.3506 13.0175L12.9058 13.5433C12.9376 13.012 13.1633 12.3499 13.8685 12.3499C14.3758 12.3499 14.6287 12.71 14.6287 13.2521V14.0334C12.6878 14.258 10.0132 14.9565 9.94877 17.3215C9.90378 18.9918 11.02 19.9799 12.4846 19.9799C13.3511 19.9799 14.2183 19.5021 14.7194 18.9748C14.7373 19.1258 14.7567 19.5548 14.8117 19.8057H17.8401C17.7292 19.6818 17.5663 19.3713 17.5663 18.3398L17.5671 13.2707ZM14.6294 17.4895C14.3797 17.8179 14.0213 18.054 13.6869 18.054C13.1602 18.054 12.8344 17.7242 12.8344 17.0907C12.8344 15.9315 13.6024 15.5419 14.6287 15.4436L14.6294 17.4895ZM24.7711 10.5023C23.6254 10.5023 22.8163 11.0319 22.2113 11.6476H22.1733L22.1585 10.7183H19.2837V19.8041H22.2214V13.3063C22.4898 12.9632 22.8466 12.7418 23.177 12.7418C23.6681 12.7418 23.8542 13.0291 23.8542 13.5471V19.8026H26.7919V12.6163C26.7927 11.3703 26.0573 10.5023 24.7711 10.5023ZM36.6737 10.7175H33.7524L31.5912 13.4635H31.5555V6.91686H28.6164V19.8034H31.5555V16.5494L32.173 15.8401H32.2087L33.6407 19.8034H36.6877L34.2162 13.5146L36.6737 10.7175ZM6.81798 13.1011V13.0004C7.7535 12.6357 8.92483 11.749 8.92483 10.0647C8.92483 8.28519 7.42149 6.91608 5.13468 6.91608H0.03125V19.8041H5.00436C7.45562 19.8041 9.23123 18.562 9.23123 16.3566C9.23123 14.7048 8.2166 13.5611 6.81798 13.1011ZM3.20237 9.19742H4.345C5.08659 9.19742 5.91738 9.39643 5.91738 10.6262C5.91738 11.3881 5.45117 12.0208 4.27131 12.0208H3.20237V9.19742ZM4.3993 17.4159H3.20237V14.193H4.3993C5.45117 14.193 6.04537 14.8272 6.04537 15.7866C6.04537 17.107 5.1052 17.4159 4.3993 17.4159ZM115.896 18.3398V13.2707C115.896 11.2619 114.068 10.5038 112.307 10.5038C110.639 10.5038 109.005 11.2255 108.679 13.0175L111.237 13.5433C111.267 13.012 111.491 12.3499 112.199 12.3499C112.703 12.3499 112.96 12.71 112.96 13.2521V14.0334C111.017 14.258 108.34 14.9565 108.277 17.3215C108.232 18.9918 109.347 19.9799 110.814 19.9799C111.681 19.9799 112.546 19.5021 113.051 18.9748C113.066 19.1258 113.086 19.5548 113.14 19.8057H116.167C116.06 19.6802 115.896 19.3713 115.896 18.3398ZM112.961 17.4895C112.708 17.8179 112.351 18.054 112.017 18.054C111.49 18.054 111.164 17.7242 111.164 17.0907C111.164 15.9315 111.932 15.5419 112.96 15.4436L112.961 17.4895ZM83.869 10.4782C81.1664 10.4782 79.8229 12.6504 79.8229 15.2213C79.8229 17.7373 81.0927 20.0008 83.9031 20.0008C84.6957 20.0248 85.4755 19.7977 86.1307 19.352C86.786 18.9063 87.283 18.2648 87.5506 17.5197L85.5702 16.7949C85.4243 17.5267 84.8262 18.0424 84.1172 18.0424C82.9351 18.0424 82.7202 16.6996 82.7597 15.8904H87.6762V15.2748C87.6762 12.9044 86.698 10.4782 83.869 10.4782ZM84.9558 14.1511H82.7605C82.7155 13.2962 83.0149 12.3244 83.8496 12.3244C84.8643 12.3244 84.9845 13.3094 84.9558 14.1511ZM95.5986 10.7183H98.5347V19.8041H95.5986V10.7183ZM95.5986 6.91608H98.5347V9.52266H95.5986V6.91608ZM104.056 12.3244C104.529 12.3244 104.764 12.5784 104.908 12.9385C105.037 13.2831 105.054 13.7175 105.054 14.0807H107.559C107.559 13.1754 107.086 10.4798 103.969 10.4798C101.195 10.4798 99.8177 12.9601 99.8177 15.4389C99.8177 17.6823 101.193 20.0016 103.842 20.0016C105.982 20.0016 107.251 18.8439 107.47 16.6354L105.185 16.3086C105.185 16.997 105.094 18.0432 104.059 18.0432C103.3 18.0432 102.973 17.3765 102.973 15.329C102.968 13.5193 103.079 12.3244 104.056 12.3244ZM58.5272 6.91686L55.4995 19.8041H58.3278L58.891 17.1991H61.8829L62.391 19.8041H65.5645L62.806 6.91686H58.5272ZM59.3448 14.9178L60.4354 9.66747H60.5006L61.4291 14.9178H59.3448ZM91.8069 11.948H91.758L91.7286 10.7175H88.8856V19.8034H91.8263V13.9196C92.1707 13.51 92.6873 13.2165 93.4375 13.2165C93.9432 13.2165 94.3008 13.3388 94.6352 13.4674V10.5015C93.5018 10.5023 92.4058 10.9886 91.8069 11.948ZM76.4974 10.5023C75.2671 10.5023 74.3898 11.1636 73.8762 11.7173H73.8382C73.5605 11.0164 72.9648 10.5023 72.0719 10.5023C70.9774 10.5023 70.0566 11.0668 69.4423 11.6445H69.405L69.3895 10.7191H66.5225V19.8049H69.405V13.3249C69.6525 12.9903 70.0939 12.765 70.4018 12.765C70.9471 12.765 71.0914 13.0902 71.0914 13.5797V19.8049H73.9755V13.3249C74.1664 13.074 74.586 12.765 74.9801 12.765C75.5146 12.765 75.6635 13.0902 75.6635 13.5797V19.8049H78.5453V12.5613C78.5453 11.3068 77.7184 10.5023 76.4974 10.5023ZM133.955 4.87558C135.121 5.33528 136.273 5.82799 137.41 6.35311C133.797 7.81679 130.301 9.55388 126.954 11.5492C125.824 10.9582 124.678 10.4002 123.516 9.87578C126.856 7.93331 130.347 6.26123 133.955 4.87558ZM129.645 3.35547C125.898 4.54054 122.277 6.09138 118.835 7.98551C119.929 8.38044 121.013 8.80093 122.082 9.25085C125.416 7.29249 128.928 5.65182 132.571 4.35055C131.603 3.99607 130.628 3.66428 129.645 3.35547Z" fill="#0067B1"/>
<path d="M141.807 4.72838C138.846 3.29849 135.779 2.09952 132.633 1.14222C131.524 1.46126 130.424 1.80896 129.335 2.18763C132.574 3.14537 135.732 4.35851 138.778 5.81562C139.78 5.43128 140.789 5.06879 141.807 4.72838ZM146.626 3.29423C143.595 1.97516 140.473 0.87427 137.284 0C136.268 0.209968 135.256 0.443898 134.251 0.701591C137.414 1.62451 140.5 2.7914 143.482 4.19174C144.523 3.8699 145.572 3.57066 146.626 3.29423ZM154.364 5.88919C146.84 8.42216 139.727 12.0388 133.25 16.6245C134.856 17.6101 136.424 18.6547 137.952 19.7561C144.055 14.9218 150.791 10.9427 157.972 7.92891C156.79 7.21417 155.586 6.53397 154.364 5.88919ZM149.149 3.41581C141.333 5.48288 133.909 8.81482 127.172 13.2791C128.676 14.0175 130.154 14.8075 131.604 15.648C138.204 11.0838 145.482 7.58343 153.171 5.2751C151.85 4.61331 150.509 3.99324 149.149 3.41581ZM140.426 18.9453C140.426 18.4923 140.807 18.1237 141.277 18.1237C141.746 18.1237 142.128 18.4923 142.128 18.9453C142.128 19.4068 141.746 19.7754 141.277 19.7754C140.807 19.7754 140.426 19.4068 140.426 18.9453ZM140.586 18.9453C140.586 19.3224 140.894 19.6128 141.277 19.6128C141.656 19.6128 141.964 19.3224 141.964 18.9453C141.964 18.5806 141.657 18.2871 141.277 18.2871C140.894 18.2871 140.586 18.5806 140.586 18.9453Z" fill="#E31836"/>
<path d="M141.701 19.4096H141.542L141.269 18.9845H141.101V19.4096H140.961V18.4874H141.375C141.456 18.482 141.537 18.4977 141.609 18.533C141.642 18.5547 141.669 18.5844 141.688 18.6194C141.706 18.6544 141.715 18.6934 141.714 18.7328C141.714 18.9125 141.582 18.9806 141.414 18.9853L141.701 19.4096ZM141.259 18.8714C141.391 18.8714 141.573 18.8939 141.573 18.729C141.573 18.6089 141.467 18.5927 141.348 18.5927H141.103V18.8699L141.259 18.8714Z" fill="#E31836"/>
</g>
<defs>
<clipPath id="clip0_115111_59101">
<rect width="158" height="20" fill="white"/>
</clipPath>
</defs>
</svg>
