<svg width="139" height="124" viewBox="0 0 139 124" fill="none"
    xmlns="http://www.w3.org/2000/svg">
    <path d="M69.5026 40.9742C51.7386 40.9742 37.2881 55.4262 37.2881 73.1887C37.2881 90.9512 51.74 105.403 69.5026 105.403C87.2651 105.403 101.717 90.9512 101.717 73.1887C101.717 55.4262 87.2651 40.9742 69.5026 40.9742ZM69.5026 95.0207C57.4641 95.0207 47.6706 85.2265 47.6706 73.1887C47.6706 61.1509 57.4647 51.3567 69.5026 51.3567C81.5404 51.3567 91.3345 61.1509 91.3345 73.1887C91.3345 85.2258 81.541 95.0207 69.5026 95.0207Z" fill="black"/>
    <path d="M122.627 23.59H72.0982H69.5024V11.9036C69.5024 5.34043 64.1641 0 57.6009 0H30.9169C24.3537 0 19.0154 5.33973 19.0154 11.9036V23.5907H16.3762C7.3472 23.59 0 30.9358 0 39.9648V107.368C0 116.396 7.3472 123.74 16.3762 123.74H122.625C131.656 123.74 139 116.396 139 107.368V39.9648C139.002 30.9358 131.656 23.59 122.627 23.59ZM29.3958 11.9036C29.3958 11.0645 30.0777 10.3832 30.9169 10.3832H57.6009C58.4387 10.3832 59.1199 11.0652 59.1199 11.9043V23.5914H29.3958V11.9036ZM122.627 113.357H16.3762C13.0712 113.357 10.3825 110.67 10.3825 107.368V39.9648C10.3825 36.6598 13.0712 33.9725 16.3762 33.9725H20.1851H29.3958H59.1186H72.0962H122.625C125.93 33.9725 128.618 36.6598 128.618 39.9648V107.368H128.62C128.62 110.67 125.932 113.357 122.627 113.357Z" fill="black"/>
    <path d="M122.279 42.5505H109.011V52.933H122.279V42.5505Z" fill="black"/>
</svg>
