<svg width="144" height="16" viewBox="0 0 144 16" fill="none" xmlns="http://www.w3.org/2000/svg">
<path d="M0.562516 15.8186C0.0776701 15.5277 -0.132695 14.8095 0.0869078 14.2276C0.132639 14.1004 0.855107 13.3185 1.68751 12.5003L3.19665 11.0003H1.99849C0.644833 11.0003 0.379681 10.9185 0.141786 10.4184C-0.132604 9.8367 0.0138288 9.11841 0.498492 8.74577C0.736296 8.55476 0.846052 8.54576 2.51983 8.54576C4.27592 8.54576 4.27592 8.54576 4.55945 8.78213C4.71494 8.90941 4.9436 9.2276 5.08079 9.48215C5.39177 10.1185 5.97713 10.7004 6.53506 10.9549C7.04725 11.1822 7.33993 11.464 7.48618 11.8458C7.54115 11.9912 7.58688 12.7367 7.58688 13.5276C7.58688 14.7095 7.55944 15.0095 7.42225 15.2731C7.10213 15.9186 6.34289 16.1731 5.62043 15.8731C5.12653 15.664 5.02592 15.364 5.02592 14.0276V12.864L3.54421 14.3367C2.72105 15.1367 1.9619 15.8459 1.85215 15.9004C1.53202 16.064 0.90093 16.0186 0.562516 15.8186ZM8.71188 15.864C8.54725 15.7913 8.32773 15.6004 8.22713 15.4368C8.06249 15.164 8.0442 14.9822 8.0442 13.5003C8.0442 11.5548 8.08993 11.4367 8.94054 11.0094C9.61736 10.6731 10.1844 10.1094 10.5229 9.4366C10.9527 8.58213 11.0716 8.54567 13.0564 8.54567C14.9039 8.54567 15.096 8.59113 15.3978 9.10932C15.5991 9.4366 15.6083 10.073 15.4161 10.4366C15.151 10.9458 14.9863 11.0003 13.6326 11.0003H12.3978L13.962 12.573C15.6265 14.2549 15.7271 14.4095 15.5442 15.0822C15.407 15.5913 15.0045 15.9277 14.4741 15.9731C14.2363 16.0004 13.9436 15.9822 13.8247 15.9368C13.7149 15.8913 12.9375 15.1913 12.1143 14.3731L10.6052 12.8821V13.9458C10.6052 15.1731 10.4954 15.5368 10.0381 15.8186C9.69054 16.0277 9.13261 16.0459 8.71188 15.864ZM39.0319 15.264C37.9801 15.1095 37.349 14.5367 37.1386 13.5367C37.0746 13.264 37.038 11.8275 37.038 10.0003V6.90927H35.2087V4.8183H36.9465V3.22735C36.9465 2.35461 36.974 1.63641 37.0014 1.63641C37.0289 1.63641 37.5959 1.49095 38.2636 1.31822C38.9313 1.14548 39.5258 1.00003 39.5898 1.00003C39.663 1.00003 39.6905 1.54549 39.6905 2.90916V4.8183H42.2515V6.90927H39.6721L39.7086 9.57297C39.7452 12.4367 39.7819 12.664 40.2574 12.9185C40.4679 13.0276 41.3275 13.0458 41.9038 12.9549L42.2514 12.8912V15.0731L42.0045 15.1277C40.916 15.3549 39.9465 15.4004 39.0319 15.264ZM62.7849 15.264C60.727 14.964 59.4099 13.8004 58.9983 11.9094C58.7971 11.0003 58.7696 9.66388 58.9343 8.72749C59.2453 6.9729 60.1507 5.71833 61.605 5.0274C62.2635 4.7183 62.3824 4.69103 63.3611 4.65466C64.0105 4.62739 64.605 4.65466 64.9251 4.72739C66.4526 5.05467 67.5592 6.22743 67.9069 7.88202C68.0441 8.50922 68.0898 9.87289 67.9891 10.2548L67.9342 10.4548H61.5318L61.5867 10.8912C61.7513 12.0094 62.1721 12.6185 63.0501 13.0094C63.8825 13.3731 65.794 13.2367 67.0105 12.7186L67.3946 12.5549L67.4404 12.8003C67.4678 12.9367 67.5318 13.4094 67.5958 13.8458C67.733 14.7913 67.7879 14.7276 66.6995 14.9914C65.3733 15.3277 63.9099 15.4277 62.7849 15.264ZM65.3367 8.16384C65.1995 7.20927 64.5318 6.63653 63.5715 6.63653C62.7757 6.63653 62.1904 7.03654 61.8337 7.81838C61.4861 8.58204 61.3946 8.54567 63.5166 8.54567H65.3916L65.3367 8.16384ZM82.5043 15.264C82.0744 15.2186 81.7269 15.1731 81.7177 15.1549C81.7085 15.1457 81.7269 14.6367 81.7452 14.0185C81.7817 13.0276 81.8001 12.9003 81.9373 12.9549C82.3488 13.1185 83.8763 13.2912 84.3336 13.2367C85.2116 13.1277 85.7696 12.6367 85.6598 12.064C85.5683 11.5822 85.2391 11.3276 84.169 10.9095C83.6293 10.7004 82.9982 10.4185 82.7878 10.2913C81.2604 9.41842 81.0592 7.16382 82.3854 5.79106C82.7787 5.38195 83.7848 4.88194 84.5256 4.72739C84.9921 4.6183 87.7543 4.63648 87.8275 4.73648C87.8366 4.75467 87.8366 5.25468 87.8182 5.85469L87.7817 6.92745L87.4981 6.8729C85.9432 6.55471 84.9554 6.63653 84.5531 7.10018C84.114 7.62747 84.3244 8.21839 85.0743 8.57294C85.3396 8.70022 85.9615 8.97295 86.4555 9.18205C87.4342 9.60024 87.9921 10.0548 88.3031 10.6821C88.4494 10.973 88.486 11.2366 88.486 11.9548C88.486 12.7912 88.4677 12.9003 88.2208 13.3458C87.7269 14.2367 86.8305 14.864 85.6781 15.1367C84.9281 15.3186 83.4647 15.3731 82.5043 15.264ZM107.465 15.2368C106.394 15.0004 105.782 14.464 105.498 13.5186C105.013 11.8822 105.855 10.264 107.584 9.50933C108.279 9.20033 109.486 8.92759 110.465 8.85486L111.306 8.79122V8.28203C111.306 7.64565 111.087 7.20027 110.666 6.95472C110.391 6.80017 110.19 6.7729 109.294 6.7729C108.169 6.78199 107.538 6.90927 106.715 7.31837C106.468 7.44564 106.276 7.52746 106.266 7.51837C106.212 7.30018 106.038 5.30013 106.084 5.25468C106.184 5.15468 107.401 4.8274 108.105 4.7183C108.507 4.65466 109.358 4.63648 110.163 4.65466C111.407 4.69103 111.59 4.7183 112.175 4.95467C113.199 5.37286 113.776 6.06379 113.959 7.10927C114.004 7.37291 114.059 9.30024 114.068 11.3912L114.096 15.1822H111.58V13.7094L111.16 14.1732C110.666 14.7186 109.852 15.1458 109.065 15.2732C108.379 15.3822 108.105 15.3822 107.465 15.2368ZM109.898 13.1003C110.684 12.7459 111.306 11.7821 111.306 10.9004C111.306 10.5458 111.306 10.5367 111.013 10.5822C110.849 10.6095 110.474 10.6549 110.172 10.6822C108.955 10.8185 108.205 11.2367 108.004 11.9095C107.913 12.2004 107.922 12.3095 108.068 12.6095C108.379 13.2276 109.148 13.4367 109.898 13.1003ZM23.0533 15.1822C20.6753 14.6913 19.1204 13.2094 18.5625 10.9003C18.2058 9.43651 18.2331 7.38201 18.6173 5.86379C18.6905 5.56378 18.9375 4.93649 19.1661 4.47284C19.8887 2.99098 21.1966 1.90005 22.907 1.36367C23.8123 1.08185 25.9984 1.00912 27.3429 1.21821C27.8642 1.30003 28.3033 1.38185 28.3215 1.40004C28.349 1.42731 28.0837 3.84555 28.0471 3.88192C28.0379 3.89101 27.6355 3.80919 27.16 3.70919C25.8795 3.44554 24.2972 3.50009 23.5746 3.83646C22.4862 4.33647 21.8094 5.26377 21.4893 6.70017C20.9588 9.07296 21.6722 11.4457 23.1721 12.3185C24.1325 12.8731 25.8245 12.9549 27.3429 12.5185C27.7727 12.3912 28.1295 12.2912 28.1295 12.3003C28.1386 12.3095 28.2118 12.8458 28.2941 13.4913C28.4222 14.4459 28.4313 14.6823 28.3307 14.7367C28.2667 14.7822 27.846 14.9005 27.3886 15.0187C26.7301 15.1732 26.2454 15.2187 25.0106 15.2368C24.16 15.2549 23.2728 15.2277 23.0533 15.1822ZM30.7271 10.0003V4.8183H33.4709V15.1822H30.7271V10.0003ZM44.6294 10.0003V4.8183H47.3733V15.1822H44.6294V10.0003ZM49.6599 14.2095C49.6599 13.1277 49.6142 13.2641 50.4556 12.0458C50.7025 11.7003 51.3794 10.7185 51.9556 9.86389C52.5409 9.01841 53.1903 8.07293 53.4007 7.77292L53.7848 7.22746L51.7726 7.20018L49.7514 7.182V4.8183H57.0684V6.81835L56.4007 7.79111C55.4129 9.22751 54.1781 11.0366 53.6203 11.8548C53.355 12.2458 53.1355 12.5821 53.1355 12.6002C53.1355 12.6184 54.0409 12.6366 55.1477 12.6366H57.1599V15.1821H49.6599V14.2095ZM70.2391 10.0003V4.8183H72.8275L72.7635 5.60014L72.7086 6.37289L73.2024 5.8456C73.5318 5.49105 73.9158 5.20013 74.3274 5.00013C74.9402 4.68194 74.9585 4.68194 76.1385 4.68194C77.3 4.68194 77.3367 4.69103 77.8306 4.96376C78.4251 5.30013 78.8641 5.82742 79.0835 6.48198C79.2116 6.89108 79.239 7.50019 79.2757 11.073L79.3122 15.1822H76.5501V11.5457C76.5501 7.5911 76.5408 7.4911 76.047 7.10927C75.7451 6.8729 75.0591 6.83654 74.6018 7.03654C74.2452 7.19109 73.6597 7.74565 73.4678 8.11839C72.9739 9.07296 72.9555 9.2366 72.9098 12.3003L72.8733 15.1822H70.2391V10.0003ZM94.2025 8.20021V1.20912L94.8244 1.15457C96.0317 1.03639 99.9098 1.08185 100.632 1.21821C101.913 1.46367 102.974 2.16369 103.385 3.03644C103.788 3.88192 103.788 5.11831 103.385 5.9547C103.157 6.44562 102.462 7.16382 101.94 7.46383C101.684 7.60928 101.547 7.72747 101.638 7.72747C101.959 7.72747 102.672 8.13657 103.093 8.56385C104.071 9.56388 104.245 11.4276 103.477 12.8185C103.157 13.4003 102.333 14.1822 101.711 14.4913C100.623 15.0458 100.093 15.1185 97.0194 15.1639L94.2024 15.2003L94.2025 8.20021ZM99.8914 12.6185C101.035 12.0912 101.373 10.7275 100.596 9.79116C100.175 9.28196 99.5164 9.07296 98.117 9.01841L96.9463 8.97295V10.8912C96.9463 12.3367 96.9737 12.8185 97.0652 12.855C97.12 12.8822 97.6688 12.8912 98.2725 12.8822C99.2421 12.864 99.4341 12.8276 99.8914 12.6185ZM99.425 6.73653C99.9555 6.57289 100.559 5.98197 100.696 5.50014C100.834 5.00922 100.76 4.44557 100.504 4.03647C100.166 3.48191 98.9859 3.19099 97.6231 3.31827L96.9464 3.3819V6.92745L98.0256 6.88199C98.6109 6.86381 99.2421 6.79108 99.425 6.73653ZM116.702 10.0003V4.8183H119.291L119.236 5.6456L119.172 6.48198L119.437 6.11834C119.785 5.6456 120.279 5.24559 120.91 4.93649C121.376 4.70012 121.495 4.69103 122.602 4.68194C123.599 4.68194 123.846 4.70921 124.157 4.86376C124.724 5.14559 125.254 5.70924 125.492 6.31834C125.712 6.86381 125.712 6.88199 125.739 11.0276L125.766 15.1822H123.013V11.5276C123.013 8.10021 122.995 7.83656 122.83 7.47292C122.721 7.23655 122.565 7.05472 122.419 7.00018C122.035 6.85472 121.385 6.89108 121.01 7.09109C120.526 7.33655 119.949 8.00929 119.702 8.62749C119.501 9.11832 119.492 9.26387 119.464 12.1639L119.437 15.1821H116.702V10.0003ZM128.41 7.5911V0H131.062L131.08 4.49102L131.108 8.99114L131.492 8.42749C131.83 7.94566 132.562 6.90018 133.733 5.25468L134.035 4.82739L135.708 4.8183H137.391L137.08 5.21831C136.916 5.44559 136.422 6.08197 135.983 6.65471C134.227 8.9275 133.806 9.49115 133.806 9.5547C133.806 9.59106 133.989 9.87289 134.208 10.1911C134.437 10.5093 134.885 11.1638 135.214 11.6366C135.544 12.1093 136.047 12.8275 136.33 13.2275C136.614 13.6275 136.98 14.1639 137.153 14.4275C137.318 14.6821 137.501 14.9184 137.556 14.9548C137.858 15.1367 137.519 15.1821 135.937 15.1639L134.236 15.1367L132.672 12.673L131.108 10.2002L131.08 12.691L131.062 15.1822H128.41V7.5911ZM140.474 7.83656C140.163 7.68201 139.879 7.43655 139.705 7.19109C139.468 6.85472 139.431 6.70926 139.404 6.10015C139.358 5.24559 139.541 4.8183 140.144 4.32738C140.83 3.77282 141.773 3.691 142.541 4.13647C143.282 4.56375 143.593 5.10922 143.593 6.00015C143.593 7.61837 141.928 8.59113 140.474 7.83656ZM142.001 7.68201C142.257 7.60928 142.559 7.44564 142.678 7.31837L142.888 7.09109H142.559C142.275 7.09109 142.175 7.02745 141.846 6.63653C141.635 6.39107 141.388 6.18197 141.288 6.18197C141.15 6.18197 141.123 6.2547 141.123 6.63653C141.123 7.06382 141.105 7.09109 140.894 7.09109H140.666V4.8183H141.352C141.964 4.8183 142.074 4.84558 142.266 5.04558C142.559 5.32741 142.559 5.58196 142.257 5.87288L142.028 6.10925L142.422 6.54562C142.641 6.78199 142.842 6.982 142.87 6.99109C143.044 7.01836 143.254 6.4638 143.254 5.97288C143.254 5.5365 143.208 5.38195 142.989 5.06376C142.477 4.34556 141.8 4.06374 141.05 4.26374C140.062 4.52739 139.458 5.52741 139.742 6.44562C139.897 6.9729 140.428 7.51837 140.922 7.67292C141.471 7.84565 141.461 7.84565 142.001 7.68201ZM141.836 5.70924C142.12 5.42741 141.91 5.18195 141.388 5.18195C141.141 5.18195 141.123 5.20922 141.123 5.50014C141.123 5.80015 141.141 5.81833 141.425 5.81833C141.59 5.81833 141.772 5.77287 141.836 5.70924ZM0.407029 7.70019C-0.123457 7.17291 -0.132604 6.32743 0.370443 5.81833L0.654071 5.5456H3.17836L1.67837 4.05465C0.855198 3.23645 0.141786 2.45461 0.0869078 2.31824C-0.132604 1.73641 0.0777615 1.01821 0.562516 0.727291C0.900838 0.527286 1.54108 0.48183 1.85215 0.654562C1.9619 0.709109 2.7119 1.40913 3.51677 2.20006L4.98018 3.64555L5.02592 2.43643C5.08079 1.06366 5.17226 0.809112 5.73018 0.627289C6.46189 0.390919 7.18435 0.681836 7.45874 1.3364C7.61423 1.70004 7.63252 4.3092 7.48618 4.70012C7.34899 5.06376 7.0564 5.34559 6.60814 5.5456C6.05936 5.78196 5.37338 6.45471 5.08985 7.03654C4.95265 7.30019 4.71476 7.63656 4.55927 7.76383L4.27574 8.0002H0.708857L0.407029 7.70019ZM11.0899 7.81838C10.907 7.70929 10.6875 7.43655 10.5229 7.10927C10.1844 6.43653 9.61746 5.87288 8.94054 5.5365C8.08993 5.10922 8.0442 4.99104 8.0442 3.04553C8.0442 1.56368 8.06249 1.38185 8.22713 1.10912C8.56554 0.563651 9.45264 0.372737 10.0381 0.727291C10.4954 1.00912 10.6052 1.37276 10.6052 2.60916V3.68191L12.16 2.13642L13.7149 0.590924H14.3002C14.8308 0.590924 14.9222 0.618198 15.1783 0.863658C15.3247 1.00912 15.4984 1.28185 15.5533 1.48186C15.7271 2.11824 15.5716 2.3637 13.9162 4.02738L12.3978 5.5456H14.9314L15.2332 5.87288C15.782 6.44562 15.654 7.46383 14.9954 7.85474C14.785 7.97293 14.4466 8.0002 13.0564 8.0002C11.5564 8.0002 11.3552 7.98202 11.0899 7.81838ZM31.1752 3.74555C30.1874 3.10917 30.2423 1.65459 31.2759 1.10912C31.6142 0.927296 31.779 0.900023 32.218 0.936387C33.1234 1.01821 33.654 1.57277 33.654 2.45461C33.654 3.36372 33.0959 3.92737 32.154 3.98192C31.6599 4.00919 31.5502 3.98192 31.1752 3.74555ZM45.3154 3.87283C44.666 3.591 44.2453 2.73643 44.4374 2.09096C44.7392 1.07275 45.8093 0.627289 46.788 1.10003C47.8672 1.60913 47.8855 3.23645 46.8246 3.791C46.3764 4.02737 45.7452 4.06374 45.3154 3.87283Z" fill="#00A777"/>
</svg>
