<svg width="87" height="87" viewBox="0 0 87 87" fill="none"
    xmlns="http://www.w3.org/2000/svg">
    <circle cx="43.5" cy="43.5" r="40.5" fill="white" stroke="#252626" stroke-width="6"/>
    <path fill-rule="evenodd" clip-rule="evenodd" d="M51.1552 28.0201C48.5467 28.2847 46.2363 29.0394 44.1092 30.3216C42.3562 31.3782 40.792 32.9579 39.1292 35.3507C38.4241 36.3652 38.1538 36.8755 37.7063 38.0367C36.667 40.7335 36.5012 44.0943 37.2623 47.0378C38.6405 52.3682 43.0778 56.6779 48.5698 58.0199C51.0119 58.6167 53.6696 58.6387 56.1375 58.0827C59.5718 57.3088 62.9079 55.16 65.0711 52.3285C65.9566 51.1693 67.1423 49.0364 66.986 48.8836C66.8662 48.7664 63.9355 47.6183 63.6655 47.5828L63.3746 47.5445L63.0224 48.2403C61.9921 50.2756 60.2554 52.0678 58.2113 53.205C56.2321 54.3061 53.6212 54.8568 51.4462 54.632C48.5102 54.3285 46.218 53.2709 44.1694 51.2745C42.4691 49.6175 41.4316 47.7677 40.9209 45.4828C40.7021 44.504 40.6838 42.1369 40.8874 41.1603C41.5287 38.0835 43.327 35.4499 45.9567 33.7364C48.5563 32.0424 51.7384 31.4359 54.8471 32.0419C57.6597 32.5903 60.3694 34.3236 62.0654 36.6594C62.2654 36.9348 62.4706 37.1616 62.5214 37.1633C62.7542 37.171 65.7126 35.5407 65.8457 35.3314C65.8643 35.3021 65.6811 34.9951 65.4384 34.6494C62.9823 31.1491 59.1845 28.8168 54.8595 28.1526C54.1632 28.0456 51.7531 27.9594 51.1552 28.0201ZM28.2075 28.1658C27.5889 28.2266 26.5718 28.4154 26.0087 28.5741C22.5449 29.5497 20.4258 32.3548 20.4258 35.9646C20.4258 38.6265 21.5794 40.8518 23.6069 42.101C23.7769 42.2056 23.9159 42.3086 23.916 42.3296C23.9161 42.3507 23.7279 42.4572 23.4979 42.5663C20.9849 43.7585 19.692 45.3236 19.1409 47.8404C18.9536 48.6953 18.9529 50.8141 19.1395 51.6576C19.9626 55.3783 22.7668 57.9689 26.7875 58.723C28.2234 58.9924 29.0127 59.015 36.2284 58.9941L43.1947 58.974L42.5433 58.5272C41.359 57.7148 40.1728 56.5267 39.3725 55.3512L39.0236 54.8387L34.2883 54.8375C31.6839 54.8368 29.2421 54.8047 28.8621 54.7662C26.3149 54.508 24.7539 53.426 24.0448 51.4271C23.8237 50.8038 23.8131 50.7241 23.8116 49.6784C23.81 48.6582 23.824 48.5436 24.0135 48.0172C24.2729 47.2963 24.5474 46.8818 25.087 46.3963C25.6224 45.9144 26.245 45.5753 27.0325 45.3365C28.2939 44.9538 28.5761 44.9295 32.2079 44.8923L35.59 44.8575L35.5916 43.1856C35.5925 42.2661 35.6161 41.365 35.6441 41.1832L35.6949 40.8527L32.5149 40.8229C28.9167 40.7892 28.5848 40.7494 27.4438 40.2164C26.4209 39.7385 25.8136 39.07 25.4592 38.0319C25.294 37.5479 25.2719 37.3656 25.2689 36.4595C25.2658 35.5175 25.2817 35.3894 25.4659 34.8784C25.6964 34.2393 25.9482 33.855 26.404 33.4466C27.0104 32.9034 27.5537 32.6609 28.7166 32.4146C29.363 32.2777 29.6949 32.2662 33.8581 32.2379L38.3086 32.2076L38.5083 31.9478C39.1684 31.0891 40.8259 29.6404 42.2807 28.6506L43.0632 28.1181L35.7626 28.1294C31.7473 28.1357 28.3475 28.152 28.2075 28.1658ZM51.4098 36.8617C51.0427 36.9213 50.4162 37.1049 49.9733 37.2826L49.5187 37.465V39.1032V40.7415L51.4778 38.8337C52.5554 37.7845 53.4207 36.9005 53.401 36.8695C53.3649 36.8127 51.7504 36.8064 51.4098 36.8617ZM53.4043 38.3029L52.1751 39.4991L54.6473 39.4921C56.007 39.4883 57.2934 39.4644 57.5061 39.4391L57.8928 39.3931L57.3851 38.8583C56.7108 38.1479 55.8687 37.5799 54.992 37.244L54.6335 37.1067L53.4043 38.3029ZM48.1269 38.3986C47.6735 38.7627 47.3151 39.1667 46.9396 39.7372C46.633 40.203 46.2456 41.0114 46.2456 41.1854C46.2456 41.2502 46.7857 41.8275 47.4458 42.468L48.6459 43.6328V40.8591C48.6459 39.297 48.6177 38.0853 48.5815 38.0853C48.5461 38.0853 48.3416 38.2263 48.1269 38.3986ZM55.3435 40.3287L55.0949 40.3581L57.0522 42.2614C58.1287 43.3081 59.0343 44.1646 59.0646 44.1646C59.0948 44.1646 59.1196 43.7815 59.1196 43.3133C59.1196 42.3497 58.9896 41.6171 58.6874 40.8775C58.5149 40.4555 58.4543 40.3761 58.275 40.338C58.0444 40.289 55.7411 40.2817 55.3435 40.3287ZM45.9156 42.72C45.8188 43.7229 46.0578 45.0877 46.4665 45.8662L46.6123 46.1439H48.3261C49.3198 46.1439 50.0298 46.117 50.0157 46.0798C49.9627 45.9399 46.1516 42.1853 46.0625 42.1853C45.9967 42.1853 45.9511 42.3515 45.9156 42.72ZM56.3307 43.604C56.2459 44.7649 56.3366 48.2696 56.4544 48.384C56.5274 48.455 57.3128 47.7451 57.7176 47.2423C58.0883 46.7819 58.4376 46.1893 58.7035 45.5701L58.8132 45.3143L57.5958 44.1327L56.3784 42.9511L56.3307 43.604ZM53.4889 47.693L51.5323 49.5956L51.884 49.6469C52.7555 49.7739 54.3434 49.5303 55.1123 49.1516L55.4829 48.9691V47.3797C55.4829 46.5056 55.4745 45.7904 55.4642 45.7904C55.454 45.7904 54.5651 46.6466 53.4889 47.693ZM49.6722 46.9908L47.0982 47.0275L47.6287 47.5796C48.2318 48.2072 48.8116 48.6318 49.5695 49.0011C50.4744 49.4422 50.3395 49.4937 51.6462 48.2077C52.2763 47.5876 52.7917 47.0445 52.7917 47.0009C52.7917 46.9533 52.6822 46.928 52.519 46.9378C52.369 46.9468 51.0879 46.9706 49.6722 46.9908Z" fill="black"/>
</svg>
