<svg width="48" height="48" viewBox="0 0 48 48" fill="none" xmlns="http://www.w3.org/2000/svg">
<path fill-rule="evenodd" clip-rule="evenodd" d="M31.9527 21.0698H37.3945C37.8249 21.0698 38.2451 21.1133 38.6503 21.1953V8.93023C38.6503 7.31107 37.3393 6 35.7201 6H22.3248C20.7056 6 19.3945 7.31107 19.3945 8.93023V9.34884H26.5108C27.9542 9.34884 29.3389 9.92149 30.3586 10.9429C31.38 11.9626 31.9527 13.3473 31.9527 14.7907V21.0698Z" fill="#DFCAA0"/>
<path fill-rule="evenodd" clip-rule="evenodd" d="M31.9527 21.0698H37.3945C37.8249 21.0698 38.2451 21.1133 38.6503 21.1953V8.93023C38.6503 7.31107 37.3393 6 35.7201 6H22.3248C20.7056 6 19.3945 7.31107 19.3945 8.93023V9.34884H26.5108C27.9542 9.34884 29.3389 9.92149 30.3586 10.9429C31.38 11.9626 31.9527 13.3473 31.9527 14.7907V21.0698Z" fill="black" fill-opacity="0.2"/>
<path fill-rule="evenodd" clip-rule="evenodd" d="M31.9527 21.0698H37.3945C37.8249 21.0698 38.2451 21.1133 38.6503 21.1953V8.93023C38.6503 7.31107 37.3393 6 35.7201 6H22.3248C20.7056 6 19.3945 7.31107 19.3945 8.93023V9.34884H26.5108C27.9542 9.34884 29.3389 9.92149 30.3586 10.9429C31.38 11.9626 31.9527 13.3473 31.9527 14.7907V21.0698Z" fill="black" fill-opacity="0.2"/>
<path fill-rule="evenodd" clip-rule="evenodd" d="M9.34961 15.3351C9.75482 15.253 10.1751 15.2095 10.6054 15.2095H21.4406C23.4683 15.2095 25.3704 16.189 26.5492 17.8383L28.7327 20.8941C28.8114 21.0046 28.9386 21.0699 29.0726 21.0699H30.2798V14.7909C30.2798 13.7913 29.883 12.8335 29.1764 12.1269C28.4698 11.4203 27.512 11.0234 26.5124 11.0234H12.2798C10.6607 11.0234 9.34961 12.3362 9.34961 13.9537V15.3351Z" fill="#DFCAA0"/>
<path fill-rule="evenodd" clip-rule="evenodd" d="M9.34961 15.3351C9.75482 15.253 10.1751 15.2095 10.6054 15.2095H21.4406C23.4683 15.2095 25.3704 16.189 26.5492 17.8383L28.7327 20.8941C28.8114 21.0046 28.9386 21.0699 29.0726 21.0699H30.2798V14.7909C30.2798 13.7913 29.883 12.8335 29.1764 12.1269C28.4698 11.4203 27.512 11.0234 26.5124 11.0234H12.2798C10.6607 11.0234 9.34961 12.3362 9.34961 13.9537V15.3351Z" fill="black" fill-opacity="0.2"/>
<path fill-rule="evenodd" clip-rule="evenodd" d="M9.34961 15.3351C9.75482 15.253 10.1751 15.2095 10.6054 15.2095H21.4406C23.4683 15.2095 25.3704 16.189 26.5492 17.8383L28.7327 20.8941C28.8114 21.0046 28.9386 21.0699 29.0726 21.0699H30.2798V14.7909C30.2798 13.7913 29.883 12.8335 29.1764 12.1269C28.4698 11.4203 27.512 11.0234 26.5124 11.0234H12.2798C10.6607 11.0234 9.34961 12.3362 9.34961 13.9537V15.3351Z" fill="black" fill-opacity="0.2"/>
<path fill-rule="evenodd" clip-rule="evenodd" d="M37.3953 41.9991C39.9371 41.9991 42 39.9362 42 37.3944V27.3479C42 24.8062 39.9371 22.7433 37.3953 22.7433H29.0718C28.397 22.7433 27.7624 22.4168 27.3689 21.8676L25.1872 18.8117C24.3215 17.6011 22.9267 16.8828 21.4398 16.8828C17.9989 16.8828 10.6047 16.8828 10.6047 16.8828C8.06288 16.8828 6 18.9457 6 21.4875V37.3944C6 39.9362 8.06288 41.9991 10.6047 41.9991H37.3953ZM13.9535 35.3014H18.9767C19.67 35.3014 20.2326 34.7388 20.2326 34.0456C20.2326 33.3524 19.67 32.7898 18.9767 32.7898H13.9535C13.2603 32.7898 12.6977 33.3524 12.6977 34.0456C12.6977 34.7388 13.2603 35.3014 13.9535 35.3014ZM13.9535 31.1154H18.9767C19.67 31.1154 20.2326 30.5528 20.2326 29.8596C20.2326 29.1663 19.67 28.6037 18.9767 28.6037H13.9535C13.2603 28.6037 12.6977 29.1663 12.6977 29.8596C12.6977 30.5528 13.2603 31.1154 13.9535 31.1154Z" fill="#DFCAA0"/>
<path fill-rule="evenodd" clip-rule="evenodd" d="M37.3953 41.9991C39.9371 41.9991 42 39.9362 42 37.3944V27.3479C42 24.8062 39.9371 22.7433 37.3953 22.7433H29.0718C28.397 22.7433 27.7624 22.4168 27.3689 21.8676L25.1872 18.8117C24.3215 17.6011 22.9267 16.8828 21.4398 16.8828C17.9989 16.8828 10.6047 16.8828 10.6047 16.8828C8.06288 16.8828 6 18.9457 6 21.4875V37.3944C6 39.9362 8.06288 41.9991 10.6047 41.9991H37.3953ZM13.9535 35.3014H18.9767C19.67 35.3014 20.2326 34.7388 20.2326 34.0456C20.2326 33.3524 19.67 32.7898 18.9767 32.7898H13.9535C13.2603 32.7898 12.6977 33.3524 12.6977 34.0456C12.6977 34.7388 13.2603 35.3014 13.9535 35.3014ZM13.9535 31.1154H18.9767C19.67 31.1154 20.2326 30.5528 20.2326 29.8596C20.2326 29.1663 19.67 28.6037 18.9767 28.6037H13.9535C13.2603 28.6037 12.6977 29.1663 12.6977 29.8596C12.6977 30.5528 13.2603 31.1154 13.9535 31.1154Z" fill="black" fill-opacity="0.2"/>
<path fill-rule="evenodd" clip-rule="evenodd" d="M37.3953 41.9991C39.9371 41.9991 42 39.9362 42 37.3944V27.3479C42 24.8062 39.9371 22.7433 37.3953 22.7433H29.0718C28.397 22.7433 27.7624 22.4168 27.3689 21.8676L25.1872 18.8117C24.3215 17.6011 22.9267 16.8828 21.4398 16.8828C17.9989 16.8828 10.6047 16.8828 10.6047 16.8828C8.06288 16.8828 6 18.9457 6 21.4875V37.3944C6 39.9362 8.06288 41.9991 10.6047 41.9991H37.3953ZM13.9535 35.3014H18.9767C19.67 35.3014 20.2326 34.7388 20.2326 34.0456C20.2326 33.3524 19.67 32.7898 18.9767 32.7898H13.9535C13.2603 32.7898 12.6977 33.3524 12.6977 34.0456C12.6977 34.7388 13.2603 35.3014 13.9535 35.3014ZM13.9535 31.1154H18.9767C19.67 31.1154 20.2326 30.5528 20.2326 29.8596C20.2326 29.1663 19.67 28.6037 18.9767 28.6037H13.9535C13.2603 28.6037 12.6977 29.1663 12.6977 29.8596C12.6977 30.5528 13.2603 31.1154 13.9535 31.1154Z" fill="black" fill-opacity="0.2"/>
</svg>
