<svg width="95" height="29" viewBox="0 0 95 29" fill="none" xmlns="http://www.w3.org/2000/svg">
<g clip-path="url(#clip0_115111_59105)">
<path d="M59.1087 18.7057C57.5214 17.9692 56.9291 16.2586 57.6872 14.6431C58.3032 13.3364 59.5825 12.7662 62.1411 12.6474C63.2782 12.5999 64.2022 12.4573 64.2022 12.3386C64.2022 11.4595 61.3356 11.1031 59.4877 11.7684L58.5164 12.101V9.29753L59.6536 9.10747C60.2695 9.01244 61.7384 8.91741 62.9229 8.94116C64.6997 8.94116 65.2683 9.0362 66.2159 9.53511C68.1822 10.5092 68.3481 10.8893 68.4191 15.1182L68.4902 18.777H66.3581C64.2022 18.777 64.2022 18.777 64.2022 18.1593V17.5653L63.3493 18.2068C62.3306 18.9908 60.2695 19.2284 59.1087 18.7057ZM63.6099 16.0448C63.9416 15.7359 64.2022 15.2608 64.2022 14.9757C64.2022 14.5956 64.06 14.5005 63.4204 14.5005C61.9753 14.5005 61.0039 15.7835 62.0226 16.3774C62.6623 16.7575 62.994 16.6863 63.6099 16.0448ZM43.8281 12.2435V5.66257L48.7558 5.7576C54.2521 5.85263 55.0576 6.0427 55.9104 7.42066C56.8344 8.94117 56.2658 10.9606 54.7022 11.7684L53.9678 12.1722L54.7496 12.5524C55.9578 13.1701 56.6922 14.4055 56.5501 15.6171C56.4079 16.8763 55.9104 17.6841 54.8917 18.2305C54.2521 18.5869 53.3755 18.6582 48.9927 18.7294L43.8281 18.8007V12.2435ZM50.7695 15.9022C51.3855 15.5696 51.6461 15.237 51.6461 14.6906C51.6461 13.9303 50.959 13.5502 49.6087 13.5502H48.3294V14.6906C48.3294 15.3321 48.4004 15.926 48.4952 15.9973C48.7321 16.2586 50.2009 16.1873 50.7695 15.9022ZM50.959 10.4617C51.4802 10.1766 51.575 9.05996 51.1249 8.60855C50.959 8.44225 50.272 8.32346 49.585 8.32346H48.3294V10.6993H49.4191C50.0114 10.6993 50.6985 10.5805 50.959 10.4617ZM69.6985 13.9779L69.7695 9.15499L71.9728 9.08371L74.1523 9.01244V9.63015C74.1523 10.3666 74.2708 10.3666 75.1236 9.6539C76.4503 8.53728 78.9379 8.65607 80.0987 9.89148C80.6436 10.4854 80.6673 10.628 80.7383 14.6431L80.8094 18.777H76.0713L76.0002 15.4033C75.9291 12.2673 75.9054 12.0059 75.479 11.9347C74.6024 11.7446 74.3892 12.5049 74.3892 15.7359V18.777H69.6511L69.6985 13.9779ZM82.4441 11.7684V4.75977H86.9453V8.67983C86.9453 10.8418 87.0401 12.5999 87.1349 12.5999C87.2533 12.5999 87.893 11.7921 88.58 10.818L89.8119 9.0362H92.4179C94.4553 9.0362 94.9765 9.10747 94.8344 9.34505C94.7396 9.4876 94.0763 10.3904 93.3892 11.2932C92.6785 12.2198 92.0388 13.0988 91.9915 13.2414C91.9204 13.4077 92.5837 14.6431 93.4366 15.9973C94.2895 17.3515 95.0002 18.5394 95.0002 18.6107C95.0002 18.7057 93.792 18.777 92.3468 18.777H89.6698L88.5089 16.6387C87.8693 15.4508 87.2533 14.5005 87.1349 14.5005C87.0401 14.5005 86.9453 15.4746 86.9453 16.6387V18.777H82.4441V11.7684Z" fill="#003F2D"/>
<path d="M0 14.5002V0.0078125H34.3516V28.9925H0V14.5002ZM13.5037 15.5693V8.32309H18.5499C23.1696 8.32309 23.6434 8.37061 24.3541 8.79825C25.8466 9.70106 26.581 12.8846 26.1072 16.2107C25.586 19.7032 24.5436 20.5109 20.8005 20.3921L18.5973 20.3209L18.5262 14.809L18.4788 9.27341H14.4514V22.863L20.0898 22.7679L25.7045 22.6967L27.0786 22.0314C29.2818 20.9386 30.2531 19.0379 30.49 15.3317C30.6322 13.0034 30.3005 10.39 29.6845 9.17838C29.1633 8.13303 28.2157 7.18271 27.1259 6.58876C26.202 6.06609 25.9414 6.06609 14.8778 5.99482L3.55362 5.92354V8.32309H9.47631V22.8154H13.5037V15.5693Z" fill="#54B848"/>
</g>
<defs>
<clipPath id="clip0_115111_59105">
<rect width="95" height="29" fill="white"/>
</clipPath>
</defs>
</svg>
