<svg width="71" height="71" viewBox="0 0 71 71" fill="none" xmlns="http://www.w3.org/2000/svg">
<g clip-path="url(#clip0_115111_59109)">
<path fill-rule="evenodd" clip-rule="evenodd" d="M0 0H71V71H0V0Z" fill="white"/>
<path fill-rule="evenodd" clip-rule="evenodd" d="M20.9076 43.8372C22.108 43.7905 23.0543 43.3915 23.7475 42.6387C26.3591 39.805 26.2611 31.2978 23.7228 28.5367C22.9832 27.7319 21.9537 27.3278 20.6325 27.3219L1.04297 27.3039V29.6804L6.06567 29.6745L6.05794 43.8229L9.98703 43.8192L9.99182 29.68L19.0924 29.6749C20.196 29.9338 21.3861 30.9306 21.2888 35.8037C21.2417 38.1677 20.9824 39.7232 20.5117 40.4673C20.0844 41.1439 19.397 41.5034 18.4511 41.5458L14.5556 41.5535L14.5563 30.3814H10.6582L10.6567 43.8343L19.5702 43.845C20.3452 43.8446 20.7912 43.8413 20.9076 43.8372ZM38.4779 27.3039L38.5641 27.8391L32.8437 38.1051C32.8337 38.0958 32.8216 38.0891 32.8085 38.0855C32.7953 38.082 32.7815 38.0816 32.7682 38.0845L32.7321 27.34H26.5178C26.5904 27.4254 26.7897 27.6188 27.1153 27.9183C27.4678 28.2417 27.7396 28.568 27.9308 28.8944C28.2483 29.4377 28.4074 29.8178 28.4081 30.0336L28.4431 43.7017L32.9487 43.7396L42.7182 27.3131L38.4779 27.3039ZM69.9552 43.6015L69.8403 42.5528L68.9891 27.2516L64.6043 27.2578L64.5516 27.6755L56.3107 43.6435L60.2295 43.6299C60.0973 43.2766 60.0807 42.9554 60.1798 42.667L61.8274 39.5405L65.7289 39.4635C65.7281 39.5394 65.7524 40.4669 65.8036 42.2467C65.8224 42.8534 65.7937 43.312 65.7174 43.6214L69.9552 43.6015ZM56.0732 42.2022C58.1517 39.6573 58.0062 37.2936 55.6345 35.1127C55.5273 35.0147 54.8396 34.4843 53.571 33.5237C52.4222 32.6529 51.9227 32.1778 51.9021 31.4455C51.8755 30.4307 52.9979 29.6112 54.9184 29.9603C55.9826 30.1545 57.0213 30.7574 58.0364 31.77L58.151 31.7571L58.7028 28.2881C57.7417 27.5238 56.8544 27.0346 56.0452 26.8213C52.8487 25.98 47.4252 27.3665 47.5626 32.3925C47.6094 34.0751 48.3936 35.3297 49.9185 36.1566L50.3071 36.3665C51.4763 37.0001 53.1489 37.985 53.1007 39.5155C53.0321 41.6784 49.0555 41.3078 46.8598 39.4422L45.9283 38.5851L45.8627 42.1174C45.8498 42.6423 47.0326 43.3805 47.6871 43.6601C50.5267 44.8708 54.0403 44.6907 56.0732 42.2022Z" fill="black"/>
<path fill-rule="evenodd" clip-rule="evenodd" d="M43.6459 43.6316C43.5115 43.457 43.5115 43.1406 43.6467 42.6824L48.2237 27.6379L48.49 27.2964L48.4841 27.2397L43.4872 27.2246C43.4872 27.2419 43.4787 27.2526 43.4614 27.2559C43.5152 27.6471 43.4713 28.0692 43.331 28.5223L39.1794 42.5192C39.0247 43.0397 38.8291 43.4128 38.5938 43.6364L43.6459 43.6316Z" fill="black"/>
<path fill-rule="evenodd" clip-rule="evenodd" d="M65.2008 32.8516L65.4476 36.7232L65.4538 36.7799L63.2188 36.7877L65.2008 32.8516Z" fill="white"/>
</g>
<defs>
<clipPath id="clip0_115111_59109">
<rect width="71" height="71" fill="white"/>
</clipPath>
</defs>
</svg>
