<svg width="124" height="26" viewBox="0 0 124 26" fill="none" xmlns="http://www.w3.org/2000/svg">
<g clip-path="url(#clip0_115111_59093)">
<path d="M20.6999 0.0117188H22.0755C22.1906 0.0469938 22.3128 0.031453 22.4301 0.0519273C23.995 0.203388 25.5463 0.670597 26.8711 1.5246C27.405 1.86773 27.8916 2.28091 28.3323 2.73579C28.67 3.11592 28.9932 3.51233 29.2558 3.9487C29.4257 4.20722 29.5569 4.48745 29.696 4.76274C30.099 5.62217 30.3398 6.55264 30.4351 7.49471C30.4611 7.64691 30.4492 7.80231 30.4765 7.95451C30.4911 8.13952 30.4785 8.32527 30.4822 8.51102C30.4772 8.72538 30.4978 8.94147 30.4616 9.15386C30.44 9.70272 30.3555 10.2474 30.2525 10.7869C30.1957 11.1085 30.0958 11.4203 30.0316 11.7403C29.3803 14.3334 28.7281 16.9267 28.0763 19.5198C27.9697 20.0003 27.8393 20.4752 27.7229 20.9535C27.6428 21.2603 27.565 21.5761 27.3857 21.8435C27.2547 22.0532 27.0824 22.2342 26.8931 22.3928C26.4405 22.7523 25.8575 22.9207 25.2836 22.9262C25.0398 22.9045 24.7938 22.8731 24.5615 22.7922C24.3189 22.6972 24.0746 22.5825 23.8981 22.3859C23.6421 22.1615 23.5035 21.824 23.4824 21.4895C23.4541 21.2793 23.5132 21.0699 23.5652 20.8679C23.8742 19.6387 24.1828 18.4095 24.4923 17.1805C24.6269 16.6615 24.7432 16.1381 24.8774 15.6191C25.327 13.8289 25.7779 12.0388 26.2273 10.2481C26.3364 9.80978 26.4038 9.36181 26.4356 8.91163C26.4279 8.5648 26.4554 8.21624 26.4103 7.87163C26.3642 7.44044 26.2664 7.0122 26.0966 6.6116C25.9478 6.22259 25.7186 5.86762 25.4431 5.55581C25.365 5.43815 25.2385 5.36933 25.144 5.26769C25.1003 5.22229 25.053 5.18039 25.0026 5.14238C24.712 4.92234 24.4017 4.7213 24.062 4.58489C23.7666 4.44009 23.4514 4.33846 23.133 4.25681C22.6923 4.13125 22.2377 4.05009 21.7794 4.02888C21.5748 3.99212 21.3665 4.01506 21.1604 4.00741C20.998 3.99977 20.8395 4.04244 20.6775 4.03776C19.9184 4.10839 19.1721 4.27876 18.4579 4.54443C17.9863 4.70773 17.5396 4.93122 17.1004 5.16532C16.5776 5.47466 16.07 5.81532 15.6218 6.22604C15.4671 6.38293 15.3086 6.53636 15.1536 6.693C14.8515 7.04353 14.5676 7.41898 14.3883 7.8482C14.1948 8.47476 14.0317 9.11045 13.8541 9.74195C13.6383 10.5587 13.4169 11.3737 13.2105 12.1929C12.9615 13.1195 12.7356 14.0524 12.4722 14.9755C12.3532 15.3625 12.2332 15.7495 12.1126 16.1363C12.0576 16.348 12.0129 16.5661 11.911 16.7617C11.5906 17.4598 10.895 17.9593 10.1403 18.09C9.62621 18.1897 9.06796 18.1209 8.62032 17.8404C8.49012 17.7405 8.34876 17.648 8.25428 17.5113C8.05588 17.2809 7.94403 16.9874 7.90361 16.6889C7.8979 16.5483 7.84235 16.4028 7.90336 16.2663C8.5179 14.2626 9.00621 12.2235 9.54362 10.1985C9.84246 9.05643 10.1403 7.91406 10.4749 6.78156C10.5488 6.50429 10.6703 6.24232 10.8027 5.98849C11.1638 5.23563 11.6618 4.55405 12.2203 3.9344C12.4393 3.71732 12.6572 3.49901 12.8767 3.28218C13.2249 2.9874 13.5686 2.68571 13.9468 2.42867C14.1363 2.27351 14.3536 2.15905 14.5544 2.02017C15.3572 1.51374 16.2185 1.10253 17.1121 0.780862C17.3328 0.707845 17.5475 0.616081 17.7735 0.558851C18.2484 0.418985 18.7283 0.293425 19.2161 0.208075C19.5938 0.129384 19.9782 0.0946027 20.3601 0.0428002C20.4732 0.0299729 20.59 0.0479805 20.6999 0.0117188Z" fill="#00579C"/>
<path d="M4.71744 3.90718C4.85136 3.90249 4.9828 3.87116 5.11671 3.87314C5.4659 3.90471 5.82103 3.95602 6.1407 4.10797C6.35919 4.22515 6.57768 4.36378 6.71234 4.5779C6.90578 4.82137 6.91892 5.15463 6.85792 5.44694C6.68556 6.11174 6.52907 6.78147 6.34778 7.4443C6.14715 8.24724 5.94478 9.04993 5.74316 9.85262C5.59312 10.4634 5.42448 11.0692 5.27692 11.6805C5.10233 12.3771 4.92551 13.0728 4.75216 13.7699C4.60162 14.3195 4.46869 14.874 4.32882 15.4268C4.1706 16.0211 4.0461 16.6289 4.03742 17.2456C4.00766 17.4059 4.0151 17.5687 4.03916 17.7291C4.04883 18.3741 4.19465 19.016 4.46448 19.6026C4.59542 19.8394 4.72438 20.0799 4.89848 20.2891C5.03314 20.4393 5.15515 20.6021 5.31511 20.7274C5.49219 20.8631 5.65735 21.016 5.85451 21.1241C6.06085 21.2548 6.28033 21.3619 6.50154 21.4655C6.99928 21.6604 7.51511 21.8123 8.04261 21.9033C8.53389 21.9737 9.03212 22.0215 9.52862 21.982C10.7723 21.9075 11.9947 21.5523 13.0981 20.9788C13.7528 20.6492 14.3527 20.2183 14.9 19.7343C15.21 19.4363 15.5069 19.1216 15.7452 18.7626C15.8903 18.5431 16.0463 18.3218 16.1135 18.064C16.7672 15.8178 17.3207 13.5449 17.9264 11.2863C18.0506 10.8406 18.2006 10.4025 18.3318 9.95869C18.4568 9.54896 18.651 9.15353 18.9394 8.83236C19.0925 8.62811 19.3035 8.47689 19.516 8.33925C19.9731 8.04767 20.5323 7.93716 21.0693 7.98822C21.3267 8.01906 21.5843 8.08172 21.8132 8.20703C22.0979 8.33949 22.3469 8.55879 22.4928 8.83778C22.6361 9.10074 22.6391 9.41772 22.5756 9.70363C22.1679 11.0547 21.8056 12.4188 21.4556 13.7857C20.973 15.6246 20.5088 17.4691 19.9766 19.295C19.9307 19.4602 19.8615 19.6181 19.7881 19.773C19.6614 20.0769 19.4952 20.3631 19.3243 20.6445C19.0208 21.1374 18.6746 21.6054 18.2778 22.0279C18.1158 22.2299 17.9164 22.3977 17.7386 22.5854C17.3835 22.9083 17.0162 23.2204 16.6261 23.5026C16.0133 23.9535 15.3514 24.3356 14.6699 24.6735C14.3539 24.8142 14.0424 24.9646 13.7178 25.086C13.4361 25.2076 13.1395 25.29 12.8513 25.3946C12.4054 25.5384 11.9506 25.6487 11.4938 25.75C11.3202 25.7841 11.1441 25.806 10.9712 25.843C10.7049 25.8904 10.4348 25.9101 10.168 25.9511C10.0311 25.9755 9.88871 25.9449 9.75504 25.9881H8.37939C8.32865 25.9733 8.27625 25.9648 8.2234 25.9629C8.02649 25.9592 7.83379 25.9129 7.63738 25.9023C7.04317 25.8221 6.45343 25.7029 5.88278 25.5189C5.23997 25.3339 4.62716 25.0569 4.03941 24.7411C3.61533 24.4999 3.21605 24.2187 2.83686 23.9125C2.72005 23.807 2.59134 23.7135 2.48396 23.5968C2.31457 23.4194 2.1256 23.2598 1.97258 23.0669C0.948348 21.91 0.305039 20.4393 0.0922556 18.9158C0.0495998 18.6746 0.0426558 18.4284 0 18.1874V16.7907C0.0250479 16.6977 0.0228159 16.6012 0.0327359 16.5068C0.104656 15.8217 0.207327 15.1365 0.395806 14.4724C0.687453 13.331 0.96298 12.1852 1.26479 11.0465C1.49444 10.1296 1.72508 9.21323 1.95572 8.29657C2.17272 7.49166 2.36442 6.67984 2.57175 5.87246C2.62631 5.67265 2.65756 5.46446 2.74956 5.27723C2.85447 5.06336 2.96632 4.84579 3.14091 4.67928C3.22696 4.59664 3.30756 4.50833 3.39808 4.43038C3.77058 4.12722 4.24202 3.95799 4.71744 3.90718Z" fill="#DA251C"/>
<path d="M51.418 9.63477C51.4345 9.65192 51.4345 9.65192 51.418 9.63477V9.63477Z" fill="white"/>
<path d="M38.614 5.6618C39.5584 5.65983 40.5025 5.6618 41.4467 5.66082C40.9913 7.81802 40.5335 9.97423 40.0792 12.1314C39.9904 12.5624 39.8721 12.9953 39.8912 13.4388C39.8788 13.6806 39.9264 13.9282 40.046 14.1409C40.1541 14.3343 40.3485 14.4675 40.5554 14.5402C40.7461 14.6162 40.9532 14.6315 41.1548 14.6601C41.4159 14.6809 41.678 14.6636 41.936 14.6192C42.2599 14.5787 42.5659 14.4423 42.8293 14.2539C43.2042 13.9529 43.4083 13.501 43.5524 13.0557C43.638 12.7795 43.6878 12.4948 43.7508 12.2136C44.2133 10.0344 44.6729 7.85428 45.1337 5.67562C45.1669 5.65218 45.211 5.66402 45.25 5.66032C46.1621 5.66353 47.074 5.65786 47.9859 5.66279C47.8795 6.23952 47.7434 6.81034 47.6288 7.38485C47.3791 8.55855 47.1315 9.73249 46.8823 10.9059C46.7603 11.4691 46.6524 12.0357 46.5207 12.5969C46.3804 13.1907 46.1919 13.7751 45.9307 14.3276C45.6991 14.7773 45.3948 15.186 45.03 15.5376C44.2183 16.287 43.1722 16.7732 42.0798 16.9444C41.8879 16.976 41.6952 17.0085 41.5 17.0088C41.2259 17.0537 40.9472 17.0248 40.6707 17.0339C40.5174 17.0438 40.3681 16.9969 40.2149 17.0056C39.6462 16.9439 39.077 16.8107 38.5694 16.5418C38.1537 16.3273 37.7918 16.0226 37.5104 15.6503C37.1692 15.1752 37.0038 14.5805 37.0301 13.9985C37.0231 13.72 37.0325 13.4425 37.073 13.1665C37.1548 12.5091 37.316 11.8658 37.4469 11.2172C37.7984 9.56697 38.1421 7.91546 38.4947 6.26567C38.5285 6.06315 38.591 5.86605 38.614 5.6618ZM59.2659 5.66106C60.1654 5.66106 61.0646 5.66082 61.9641 5.66131C61.8121 6.38876 61.6566 7.11498 61.5028 7.84195H58.8056C58.9627 7.11583 59.1161 6.38869 59.2659 5.66106ZM86.5721 5.6771C86.6028 5.65095 86.648 5.66526 86.6876 5.66032C88.5005 5.6623 90.3134 5.66032 92.1263 5.66106C92.2441 5.66279 92.3636 5.65169 92.4809 5.67784C93.0426 5.70152 93.6098 5.79205 94.1321 6.00863C94.5752 6.19956 94.974 6.54442 95.1367 7.00719C95.255 7.35322 95.2893 7.72221 95.2367 8.08394C95.2141 8.37107 95.1434 8.6513 95.0631 8.92708C94.9582 9.212 94.825 9.49025 94.6454 9.73644C94.5222 9.92934 94.3362 10.0695 94.1817 10.2352C93.8411 10.5151 93.4517 10.7304 93.0329 10.8704C93.339 10.956 93.639 11.0855 93.8851 11.2895C93.9991 11.3981 94.1249 11.4982 94.2107 11.6322C94.4279 11.9398 94.5539 12.3155 94.5343 12.6931C94.5455 12.9516 94.5085 13.2089 94.4517 13.4603C94.3156 13.9953 94.0822 14.5069 93.7549 14.9527C93.5803 15.2013 93.3521 15.4046 93.1374 15.617C92.7326 15.9628 92.2644 16.2394 91.7545 16.3995C91.3565 16.5406 90.9381 16.6148 90.5192 16.6582C90.3481 16.6639 90.1805 16.7007 90.0088 16.6876C89.6549 16.7404 89.2948 16.697 88.9387 16.7194C88.6818 16.7606 88.4204 16.7332 88.1617 16.7411C86.8516 16.7423 85.5411 16.7386 84.231 16.7428C85.0104 13.0543 85.7879 9.36444 86.5721 5.6771ZM88.8378 7.92656C88.8254 8.04052 88.7993 8.15301 88.7731 8.265C88.651 8.83483 88.5345 9.40589 88.4092 9.97497C89.1572 9.9804 89.9049 9.97596 90.6531 9.97744C90.9867 9.98731 91.3277 9.94241 91.6352 9.80723C91.8542 9.71423 92.0449 9.55192 92.1617 9.34471C92.2631 9.15403 92.3509 8.94336 92.3383 8.72308C92.3383 8.59061 92.3514 8.44976 92.2785 8.33185C92.2126 8.18014 92.0672 8.08517 91.9199 8.02202C91.7121 7.94486 91.4905 7.91069 91.2689 7.92162C90.4585 7.92434 89.6478 7.91521 88.8378 7.92656ZM87.9537 12.1102C87.9368 12.277 87.887 12.4383 87.8555 12.6023C87.7863 12.9403 87.7141 13.2778 87.6414 13.6152C87.5869 13.9112 87.5068 14.2023 87.4629 14.5008C88.2582 14.5141 89.0538 14.502 89.8494 14.5072C90.2539 14.482 90.6703 14.4332 91.0368 14.2472C91.3761 14.0555 91.5831 13.6907 91.6551 13.3172C91.7493 12.9884 91.7076 12.5787 91.4227 12.3534C91.0971 12.1341 90.6886 12.0858 90.3045 12.1048C89.5208 12.108 88.7371 12.0984 87.9537 12.1102ZM116.343 5.66156C117.227 5.66156 118.111 5.65909 118.996 5.66279C118.985 5.73063 118.972 5.79846 118.96 5.86581C118.83 6.45882 118.71 7.05381 118.58 7.64682C118.33 8.86887 118.059 10.0867 117.812 11.3095C117.969 11.2207 118.073 11.069 118.216 10.9609C118.351 10.8573 118.454 10.7172 118.593 10.6176C118.716 10.509 118.825 10.3854 118.958 10.2873C119.041 10.2113 119.115 10.1237 119.206 10.0556C119.332 9.95993 119.428 9.83067 119.554 9.73545C119.67 9.64738 119.76 9.53071 119.876 9.44264C119.971 9.36963 120.05 9.27885 120.137 9.1967C120.293 9.0783 120.42 8.9261 120.576 8.80621C120.666 8.73615 120.733 8.64094 120.825 8.57211C121.115 8.55608 121.407 8.57113 121.697 8.56595C122.465 8.56249 123.233 8.57335 124.001 8.56003V8.5805C122.952 9.51171 121.903 10.4434 120.855 11.3754C120.734 11.4647 120.644 11.5882 120.515 11.6669C120.637 12.0227 120.791 12.3665 120.92 12.7198C121.366 13.8414 121.802 14.9665 122.248 16.0877C122.326 16.3171 122.434 16.5342 122.507 16.765C121.507 16.77 120.507 16.7663 119.506 16.7668C119.112 15.6839 118.714 14.6014 118.316 13.5195C118.216 13.5854 118.131 13.6692 118.04 13.7442C117.795 13.9534 117.55 14.1626 117.304 14.3713C117.234 14.4332 117.139 14.4872 117.117 14.5832C116.961 15.3017 116.815 16.0223 116.657 16.7401C115.773 16.7411 114.889 16.7421 114.005 16.7401C114.017 16.6168 114.046 16.4969 114.07 16.3763C114.704 13.3907 115.333 10.4037 115.965 7.41766C116.093 6.83303 116.206 6.2447 116.343 5.66156ZM66.6367 8.28128C66.8194 8.26105 67.0045 8.27709 67.1885 8.27215C67.3767 8.27783 67.5672 8.25686 67.7539 8.28991C68.2206 8.34369 68.6963 8.42559 69.1179 8.64168C69.3709 8.74331 69.5933 8.90809 69.7987 9.08422C69.8929 9.1486 69.9675 9.23666 70.0365 9.3272C70.2044 9.4979 70.3266 9.70757 70.4301 9.92194C70.6466 10.3218 70.7163 10.7801 70.7492 11.2269C70.7421 11.423 70.7641 11.6213 70.7294 11.8157C70.717 12.0917 70.6605 12.3628 70.6106 12.6339C70.5335 12.9556 70.4566 13.2785 70.3378 13.5878C70.2535 13.7876 70.185 13.9944 70.0816 14.1853C69.8852 14.5686 69.6511 14.9342 69.3647 15.2571C69.2394 15.373 69.1514 15.5235 69.0132 15.6271C68.9297 15.6851 68.862 15.7611 68.7876 15.8287C68.678 15.916 68.5604 15.9929 68.454 16.0835C67.6488 16.6466 66.6726 16.9555 65.6913 16.9893C65.3615 17.0342 65.0291 16.9949 64.6996 16.9787C64.427 16.9454 64.1547 16.9012 63.8901 16.8257C63.6066 16.7337 63.3162 16.6405 63.0692 16.4708C62.5514 16.1646 62.1603 15.6656 61.9482 15.1081C61.7558 14.5948 61.732 14.04 61.7598 13.4985C61.7851 13.3485 61.7749 13.1949 61.8126 13.0464C61.9795 11.9412 62.3892 10.844 63.1377 9.99594C63.2597 9.88518 63.341 9.73693 63.4772 9.64072C63.5659 9.57979 63.6334 9.49469 63.7145 9.42389C64.1056 9.12147 64.5212 8.83853 64.9885 8.66585C65.51 8.44285 66.0742 8.33728 66.6367 8.28128ZM66.4755 10.3583C66.2658 10.3922 66.0634 10.4612 65.8768 10.5623C65.6888 10.6612 65.5482 10.8203 65.4006 10.9681C65.0088 11.4183 64.8099 11.9943 64.6767 12.5658C64.6123 12.8885 64.5463 13.2151 64.5614 13.5454C64.5475 13.7881 64.5914 14.0309 64.6777 14.2578C64.7725 14.5106 64.9632 14.7413 65.2238 14.8345C65.5507 14.9739 65.9244 14.9549 66.2619 14.8612C66.4968 14.7805 66.7294 14.6688 66.9013 14.4855C67.0109 14.3723 67.1319 14.2684 67.22 14.1359C67.6309 13.5678 67.8127 12.8707 67.9087 12.1864C67.96 11.8482 67.9558 11.4999 67.8645 11.1684C67.7894 10.9077 67.6493 10.644 67.4022 10.5088C67.1245 10.346 66.7889 10.3211 66.4752 10.3583H66.4755ZM53.3462 8.43619C53.7752 8.35084 54.2179 8.32519 54.6529 8.37699C55.068 8.41523 55.4931 8.52031 55.8259 8.78228C56.1964 9.04746 56.3561 9.51097 56.3913 9.94809C56.3859 10.2162 56.4221 10.4871 56.3757 10.7537C56.3239 11.2323 56.2021 11.6995 56.1094 12.1712C55.8767 13.2481 55.6563 14.3279 55.4244 15.4051C55.3358 15.8393 55.2384 16.2714 55.1528 16.7053C55.1437 16.7517 55.0874 16.7374 55.0554 16.7419C54.1804 16.7401 53.3052 16.7416 52.4305 16.7411C52.6612 15.6715 52.8804 14.5995 53.1106 13.5296C53.2122 13.0276 53.3295 12.5288 53.4173 12.0239C53.4702 11.6822 53.526 11.3364 53.4974 10.9898C53.4716 10.8332 53.4265 10.6548 53.2822 10.5655C53.1815 10.491 53.0633 10.4435 52.9389 10.4274C52.6225 10.362 52.2904 10.4113 51.9923 10.527C51.8158 10.6158 51.6436 10.7273 51.5182 10.8808C51.1605 11.2977 51.0187 11.8418 50.8927 12.3626C50.6422 13.5678 50.3841 14.7711 50.1313 15.9757C50.0721 16.2297 50.0299 16.4878 49.9627 16.7399C49.0699 16.7419 48.1774 16.7421 47.2851 16.7396C47.2918 16.6323 47.3141 16.527 47.3401 16.4231C47.8666 13.9356 48.3901 11.4476 48.9191 8.96113C48.9464 8.82866 48.9662 8.69471 49.0042 8.56471C49.8866 8.56619 50.7694 8.56693 51.6521 8.56521C51.5804 8.91253 51.4968 9.25837 51.4363 9.60742C51.6099 9.46756 51.7438 9.28526 51.9234 9.15205C52.3269 8.79881 52.8234 8.55534 53.3462 8.43619ZM51.4182 9.63505C51.4331 9.65034 51.4331 9.65034 51.4182 9.63505V9.63505ZM76.3042 8.62564C76.8629 8.39327 77.4784 8.31853 78.0793 8.3617C78.3445 8.38686 78.6113 8.42411 78.8638 8.51242C79.1542 8.60912 79.4317 8.76896 79.6184 9.01564C79.8749 9.34816 79.9473 9.7796 79.9631 10.1886C79.9755 10.3588 79.9304 10.5251 79.9351 10.695C79.8776 11.2402 79.7385 11.772 79.6328 12.3088C79.3506 13.6364 79.0701 14.9643 78.7894 16.2919C78.7648 16.4429 78.7155 16.5889 78.7001 16.7409C77.8001 16.7404 76.9004 16.7423 76.0006 16.7401C75.9996 16.5778 76.0601 16.4244 76.0839 16.2653C76.3319 15.0913 76.5804 13.9174 76.8292 12.7439C76.8984 12.4067 76.9656 12.0693 77.0102 11.7279C77.0234 11.5878 77.0566 11.4491 77.0482 11.3073C77.0412 11.1684 77.0606 11.0276 77.036 10.8904C76.9919 10.7695 76.9482 10.6316 76.8324 10.5598C76.7114 10.4703 76.5601 10.4382 76.4145 10.4163C76.2347 10.3813 76.0507 10.3993 75.8736 10.436C75.6986 10.4553 75.5388 10.5344 75.3856 10.6151C75.2658 10.6778 75.178 10.7816 75.083 10.8741C74.9174 11.0337 74.8256 11.2483 74.7242 11.4499C74.4861 12.0017 74.408 12.6021 74.2716 13.183C74.0598 14.2048 73.8373 15.2248 73.627 16.2473C73.5896 16.4106 73.5514 16.5741 73.531 16.7406C72.6298 16.7404 71.7288 16.7428 70.8279 16.7394C71.3983 14.0131 71.9798 11.2888 72.5527 8.56323C73.4348 8.56965 74.3172 8.56323 75.1991 8.56718C75.1353 8.92437 75.0419 9.27589 74.9836 9.63382C75.3442 9.20953 75.7945 8.85653 76.3042 8.62564ZM99.1201 8.5398C99.5561 8.42435 100.008 8.38809 100.456 8.35232C100.679 8.35479 100.902 8.3501 101.126 8.3543C101.233 8.36811 101.34 8.38365 101.449 8.37946C101.776 8.40413 102.099 8.47073 102.416 8.55953C102.706 8.65327 102.982 8.79338 103.221 8.98333C103.411 9.156 103.584 9.35754 103.671 9.60224C103.813 9.93624 103.815 10.306 103.796 10.662C103.734 11.2417 103.621 11.8154 103.494 12.3845C103.35 13.0745 103.203 13.764 103.056 14.4534C102.983 14.8254 102.887 15.1935 102.842 15.5704C102.833 15.7125 102.837 15.8553 102.838 15.9979C102.849 16.152 102.895 16.3338 103.052 16.4029C103.024 16.509 103.014 16.62 102.984 16.7253C102.95 16.7507 102.904 16.7367 102.868 16.7419C101.984 16.7399 101.101 16.7419 100.217 16.7406C100.223 16.5887 100.203 16.4342 100.235 16.2838C100.254 16.1619 100.241 16.0381 100.24 15.9152C99.8018 16.2805 99.3047 16.5694 98.7697 16.7695C98.3557 16.9069 97.9212 17.0006 97.4833 16.9799C97.0344 16.9972 96.5674 16.9367 96.1701 16.7167C96.0635 16.6696 95.969 16.6003 95.8827 16.5233C95.7468 16.3901 95.6032 16.2584 95.5174 16.0859C95.386 15.8689 95.3227 15.6182 95.3024 15.3676C95.2625 15.1962 95.3165 15.0245 95.3187 14.8525C95.3931 14.2849 95.5982 13.7289 95.9484 13.2713C96.0414 13.1352 96.1724 13.0321 96.2842 12.9127C96.4214 12.7607 96.5974 12.6517 96.7681 12.5412C97.2154 12.2666 97.7196 12.1016 98.233 12C98.6382 11.9152 99.0456 11.8407 99.4546 11.7765C99.9739 11.6842 100.518 11.6203 100.982 11.3505C101.094 11.2942 101.163 11.1783 101.201 11.0628C101.218 10.9484 101.253 10.8371 101.263 10.7217C101.249 10.5916 101.189 10.4705 101.094 10.38C101.024 10.305 100.918 10.2826 100.826 10.2468C100.557 10.1827 100.274 10.162 100.002 10.216C99.6696 10.2557 99.3445 10.3941 99.1107 10.6348C98.9896 10.7717 98.9001 10.9304 98.8198 11.0927C97.989 11.0917 97.1579 11.0944 96.3269 11.0912C96.5191 10.5843 96.7723 10.0921 97.1415 9.68883C97.3261 9.50801 97.4999 9.31314 97.7186 9.1708C98.1358 8.86813 98.6201 8.66289 99.1198 8.5398M99.8078 13.2193C99.3423 13.3298 98.8421 13.3712 98.4316 13.6369C98.1638 13.7916 98.0071 14.096 97.9877 14.3982C97.9639 14.5856 97.984 14.7956 98.1092 14.9473C98.2253 15.1066 98.418 15.1939 98.6099 15.2206C98.9782 15.2539 99.3554 15.1784 99.6882 15.0191C99.9107 14.8861 100.141 14.7428 100.289 14.5242C100.458 14.3197 100.563 14.0698 100.618 13.8121C100.681 13.5106 100.748 13.2102 100.807 12.9077C100.491 13.0565 100.148 13.1448 99.8078 13.2193ZM110.362 8.45149C111.03 8.302 111.741 8.31162 112.397 8.51636C112.623 8.59999 112.849 8.70902 113.013 8.88934C113.25 9.10494 113.382 9.41329 113.432 9.72435C113.529 10.286 113.445 10.8581 113.338 11.4121C112.961 13.1877 112.588 14.9648 112.211 16.7404C111.31 16.7404 110.408 16.7426 109.507 16.7394C109.623 16.1109 109.77 15.4885 109.896 14.8619C110.034 14.2245 110.164 13.5859 110.303 12.9489C110.411 12.4006 110.542 11.8517 110.567 11.2922C110.593 11.1904 110.58 11.0863 110.56 10.9849C110.551 10.8527 110.511 10.7165 110.416 10.62C110.318 10.514 110.178 10.4607 110.04 10.4333C109.732 10.3591 109.406 10.4062 109.111 10.5117C108.84 10.6201 108.61 10.8108 108.454 11.0567C108.176 11.4711 108.049 11.9617 107.945 12.443C107.646 13.8762 107.335 15.3069 107.039 16.7411C106.14 16.7406 105.241 16.7419 104.342 16.7404C104.865 14.2613 105.388 11.7816 105.914 9.30302C105.958 9.05634 106.03 8.81485 106.061 8.56595C106.944 8.56595 107.826 8.56595 108.709 8.56545C108.7 8.7406 108.64 8.90834 108.61 9.08027C108.578 9.26602 108.528 9.44807 108.494 9.63332C108.603 9.55315 108.66 9.42537 108.768 9.34471C108.84 9.29221 108.907 9.23387 108.969 9.17031C109.365 8.82397 109.844 8.5657 110.362 8.45149ZM58.6484 8.56644C59.5496 8.5657 60.4511 8.56545 61.3523 8.56595C60.8137 11.0887 60.2859 13.6132 59.7487 16.1363C59.7165 16.3393 59.6498 16.5359 59.629 16.7406C58.7285 16.7404 57.8275 16.7428 56.927 16.7396C57.4066 14.4492 57.8954 12.161 58.3781 9.87112C58.4671 9.43623 58.569 9.0038 58.6484 8.56644ZM102.222 19.3485C102.312 19.3278 102.404 19.3273 102.494 19.3492C102.628 19.3529 102.761 19.3702 102.895 19.388C102.867 19.6492 102.795 19.904 102.746 20.1623C102.582 20.1556 102.418 20.1396 102.255 20.1574C102.165 20.1776 102.069 20.2134 102.02 20.2965C101.898 20.4958 101.893 20.7351 101.829 20.9539C102.077 20.9564 102.326 20.9524 102.574 20.9556C102.53 21.185 102.481 21.4139 102.432 21.6429C102.185 21.6453 101.938 21.6392 101.691 21.6471C101.542 22.281 101.422 22.9216 101.282 23.5576C101.166 24.1096 101.049 24.661 100.931 25.2125C100.623 25.2155 100.316 25.2101 100.008 25.2155C100.232 24.1765 100.446 23.1355 100.669 22.096C100.689 21.9455 100.745 21.8012 100.753 21.649C100.538 21.6374 100.324 21.6451 100.11 21.6434C100.151 21.4125 100.219 21.187 100.248 20.9539C100.467 20.9524 100.686 20.9598 100.906 20.9482C100.991 20.633 101.025 20.3019 101.161 20.0012C101.253 19.8345 101.373 19.6805 101.527 19.5663C101.729 19.424 101.976 19.3571 102.222 19.3485ZM105.766 19.4097C106.095 19.4092 106.424 19.4072 106.753 19.4102C106.731 19.6603 106.653 19.9006 106.611 20.1472C106.253 21.8355 105.893 23.5238 105.54 25.213C105.211 25.2125 104.882 25.2155 104.554 25.2113C104.559 25.0897 104.589 24.971 104.618 24.8536C104.997 23.0381 105.391 21.2257 105.766 19.4097ZM115.517 19.4092C115.819 19.4097 116.121 19.4067 116.423 19.4107C116.035 21.2756 115.635 23.138 115.242 25.0021C115.216 25.0687 115.231 25.1575 115.18 25.2093C114.889 25.2185 114.597 25.2106 114.305 25.2133C114.35 25.0468 114.38 24.8771 114.413 24.7083C114.213 24.8687 114.02 25.0404 113.787 25.1536C113.529 25.2944 113.232 25.3566 112.939 25.3465C112.553 25.3573 112.158 25.2046 111.901 24.9143C111.792 24.7762 111.708 24.6193 111.637 24.4592C111.565 24.266 111.546 24.0596 111.523 23.8568C111.508 23.7051 111.549 23.5566 111.551 23.4054C111.619 22.9036 111.778 22.4108 112.04 21.9759C112.135 21.8184 112.249 21.6727 112.379 21.5417C112.436 21.448 112.533 21.3937 112.611 21.3185C113.072 20.8917 113.751 20.7205 114.363 20.869C114.561 20.9329 114.76 21.0267 114.901 21.1848C114.974 21.2627 115.033 21.3525 115.099 21.4364C115.225 20.7923 115.369 20.1509 115.503 19.5076C115.507 19.4748 115.511 19.442 115.517 19.4092ZM113.698 21.6549C113.4 21.7242 113.136 21.8957 112.953 22.1392C112.81 22.3315 112.7 22.5463 112.629 22.7746C112.535 23.081 112.463 23.4012 112.484 23.7236C112.513 23.9523 112.581 24.1955 112.758 24.3566C112.898 24.4498 113.06 24.5268 113.232 24.5248C113.375 24.5216 113.523 24.5396 113.662 24.4977C113.91 24.4311 114.142 24.2951 114.309 24.1003C114.659 23.6639 114.8 23.0983 114.839 22.5516C114.828 22.341 114.81 22.113 114.681 21.9374C114.539 21.7339 114.28 21.6347 114.037 21.6429C113.923 21.6466 113.809 21.6337 113.698 21.6549ZM117.471 19.4097C117.783 19.4097 118.094 19.4067 118.406 19.4107C118.352 19.7215 118.288 20.0306 118.213 20.3372C117.903 20.3387 117.594 20.334 117.285 20.3397C117.342 20.0283 117.427 19.723 117.471 19.4097ZM97.36 20.7235C97.7109 20.7042 98.0705 20.6993 98.4115 20.8C98.9316 20.9443 99.3733 21.3404 99.5566 21.8479C99.7391 22.3789 99.6934 22.9577 99.5558 23.4932C99.4668 23.8361 99.2964 24.1528 99.0816 24.4338C98.9559 24.5833 98.8314 24.7367 98.6712 24.8512C98.1958 25.2493 97.5614 25.4205 96.9476 25.3998C96.6517 25.3894 96.3517 25.346 96.0789 25.2273C95.9599 25.187 95.8495 25.1251 95.7532 25.0448C95.314 24.7488 95.0727 24.216 95.0695 23.6962C95.0447 23.591 95.0457 23.4815 95.0722 23.3768C95.0688 22.8162 95.2368 22.2679 95.5541 21.8047C95.8652 21.3452 96.3217 21.0022 96.8511 20.8303C97.0185 20.7866 97.1859 20.7395 97.36 20.7235ZM97.4401 21.3895C97.2497 21.4199 97.0542 21.4569 96.8883 21.559C96.7358 21.6503 96.585 21.7549 96.4831 21.9019C96.2465 22.189 96.1004 22.5398 96.0099 22.8967C95.9583 23.115 95.9139 23.338 95.9268 23.5632C95.912 23.8847 95.9995 24.2278 96.2324 24.4612C96.3296 24.5376 96.4342 24.6087 96.5528 24.6491C97.1294 24.8637 97.8206 24.679 98.2248 24.2211C98.3689 24.0379 98.5125 23.8487 98.5933 23.6279C98.7203 23.3385 98.7627 23.0228 98.7962 22.7115C98.8106 22.4184 98.7937 22.1096 98.6442 21.8491C98.4835 21.5891 98.1869 21.4322 97.8858 21.4038C97.7387 21.3774 97.5877 21.3626 97.4401 21.3895ZM120.53 20.8305C120.916 20.8066 121.316 20.8096 121.687 20.9366C121.885 21.0091 122.089 21.1192 122.196 21.3091C122.267 21.4255 122.318 21.559 122.313 21.6976C122.335 22.0516 122.21 22.3908 122.151 22.7356C122.048 23.2117 121.951 23.6886 121.847 24.1647C121.824 24.2811 121.805 24.4015 121.836 24.5186C121.953 24.5655 122.082 24.5401 122.205 24.5514C122.154 24.7767 122.108 25.0029 122.058 25.2281C121.775 25.2981 121.473 25.325 121.191 25.2399C121.082 25.1995 120.973 25.1363 120.921 25.029C120.846 24.9264 120.868 24.7961 120.863 24.6785C120.442 25.1065 119.842 25.3845 119.233 25.3462C118.935 25.3319 118.612 25.2545 118.408 25.0236C118.299 24.915 118.232 24.7678 118.198 24.6198C118.175 24.3529 118.182 24.0754 118.29 23.826C118.38 23.5456 118.556 23.3006 118.794 23.1259C119.02 22.9621 119.286 22.8637 119.554 22.7909C119.817 22.7297 120.083 22.675 120.353 22.6503C120.648 22.5982 120.966 22.5731 121.217 22.3925C121.367 22.299 121.408 22.0995 121.381 21.9362C121.364 21.7936 121.248 21.6774 121.112 21.6411C120.896 21.5622 120.663 21.5948 120.438 21.5918C120.228 21.6221 120.014 21.6915 119.858 21.8407C119.747 21.9642 119.676 22.1181 119.654 22.2823C119.361 22.2823 119.068 22.2842 118.774 22.2813C118.789 22.151 118.827 22.0245 118.877 21.9036C118.948 21.7512 119.02 21.594 119.145 21.4771C119.491 21.0812 120.011 20.8703 120.53 20.8305ZM120.615 23.2593C120.276 23.339 119.919 23.3407 119.592 23.467C119.425 23.5361 119.27 23.6567 119.206 23.8297C119.131 24.006 119.076 24.2308 119.194 24.4017C119.242 24.4913 119.343 24.5275 119.432 24.565C119.71 24.6405 120.007 24.5843 120.275 24.4925C120.597 24.3617 120.88 24.1111 121.009 23.785C121.076 23.564 121.122 23.3368 121.163 23.1099C120.98 23.1619 120.803 23.2317 120.615 23.2593H120.615ZM108.947 21.0585C109.239 20.8969 109.581 20.8345 109.913 20.8478C110.181 20.8735 110.464 20.8996 110.693 21.0545C110.791 21.1438 110.902 21.2319 110.946 21.3621C110.995 21.4717 111.011 21.5911 111.026 21.7092C111.056 21.8654 111.003 22.0195 111.005 22.1762C110.961 22.4902 110.881 22.7978 110.82 23.1086C110.675 23.7981 110.525 24.4876 110.385 25.178C110.376 25.2236 110.318 25.2083 110.288 25.2133C110.009 25.2083 109.731 25.2212 109.453 25.2113C109.505 24.8837 109.59 24.5623 109.651 24.2362C109.714 23.9505 109.768 23.6634 109.834 23.3787C109.905 23.0001 110.005 22.6269 110.062 22.246C110.094 22.0166 109.978 21.7502 109.74 21.6828C109.467 21.6051 109.168 21.6342 108.904 21.7354C108.652 21.8399 108.443 22.0254 108.309 22.2623C108.164 22.5134 108.115 22.802 108.061 23.0822C107.905 23.7912 107.765 24.5041 107.605 25.2123C107.296 25.216 106.986 25.2096 106.678 25.216C106.932 24.0376 107.174 22.8565 107.427 21.6779C107.476 21.4359 107.526 21.1939 107.585 20.9544C107.878 20.9559 108.173 20.9527 108.467 20.9554C108.457 21.1364 108.396 21.3091 108.364 21.4867C108.538 21.3197 108.729 21.1643 108.947 21.0585ZM117.15 20.9549C117.461 20.9549 117.773 20.9534 118.085 20.9549C117.794 22.3757 117.48 23.7912 117.191 25.2118C116.88 25.2143 116.568 25.214 116.256 25.2118C116.545 23.7909 116.86 22.3755 117.15 20.9549Z" fill="#DA251C"/>
</g>
<defs>
<clipPath id="clip0_115111_59093">
<rect width="124" height="26" fill="white"/>
</clipPath>
</defs>
</svg>
