<svg width="36" height="44" viewBox="0 0 36 44" fill="none" xmlns="http://www.w3.org/2000/svg">
<path d="M18 22C22.792 22 27.15 23.388 30.356 25.344C31.956 26.32 33.324 27.472 34.312 28.724C35.284 29.954 36 31.426 36 33C36 34.69 35.178 36.022 33.994 36.972C32.874 37.872 31.396 38.468 29.826 38.884C26.67 39.718 22.458 40 18 40C13.542 40 9.33 39.72 6.174 38.884C4.604 38.468 3.126 37.872 2.006 36.972C0.82 36.02 0 34.69 0 33C0 31.426 0.716 29.954 1.688 28.722C2.676 27.472 4.042 26.322 5.644 25.342C8.85 23.39 13.21 22 18 22ZM18 0C20.6522 0 23.1957 1.05357 25.0711 2.92893C26.9464 4.8043 28 7.34784 28 10C28 12.6522 26.9464 15.1957 25.0711 17.0711C23.1957 18.9464 20.6522 20 18 20C15.3478 20 12.8043 18.9464 10.9289 17.0711C9.05357 15.1957 8 12.6522 8 10C8 7.34784 9.05357 4.8043 10.9289 2.92893C12.8043 1.05357 15.3478 0 18 0Z" fill="#DFCAA0"/>
<path d="M18 22C22.792 22 27.15 23.388 30.356 25.344C31.956 26.32 33.324 27.472 34.312 28.724C35.284 29.954 36 31.426 36 33C36 34.69 35.178 36.022 33.994 36.972C32.874 37.872 31.396 38.468 29.826 38.884C26.67 39.718 22.458 40 18 40C13.542 40 9.33 39.72 6.174 38.884C4.604 38.468 3.126 37.872 2.006 36.972C0.82 36.02 0 34.69 0 33C0 31.426 0.716 29.954 1.688 28.722C2.676 27.472 4.042 26.322 5.644 25.342C8.85 23.39 13.21 22 18 22ZM18 0C20.6522 0 23.1957 1.05357 25.0711 2.92893C26.9464 4.8043 28 7.34784 28 10C28 12.6522 26.9464 15.1957 25.0711 17.0711C23.1957 18.9464 20.6522 20 18 20C15.3478 20 12.8043 18.9464 10.9289 17.0711C9.05357 15.1957 8 12.6522 8 10C8 7.34784 9.05357 4.8043 10.9289 2.92893C12.8043 1.05357 15.3478 0 18 0Z" fill="black" fill-opacity="0.2"/>
<path d="M18 22C22.792 22 27.15 23.388 30.356 25.344C31.956 26.32 33.324 27.472 34.312 28.724C35.284 29.954 36 31.426 36 33C36 34.69 35.178 36.022 33.994 36.972C32.874 37.872 31.396 38.468 29.826 38.884C26.67 39.718 22.458 40 18 40C13.542 40 9.33 39.72 6.174 38.884C4.604 38.468 3.126 37.872 2.006 36.972C0.82 36.02 0 34.69 0 33C0 31.426 0.716 29.954 1.688 28.722C2.676 27.472 4.042 26.322 5.644 25.342C8.85 23.39 13.21 22 18 22ZM18 0C20.6522 0 23.1957 1.05357 25.0711 2.92893C26.9464 4.8043 28 7.34784 28 10C28 12.6522 26.9464 15.1957 25.0711 17.0711C23.1957 18.9464 20.6522 20 18 20C15.3478 20 12.8043 18.9464 10.9289 17.0711C9.05357 15.1957 8 12.6522 8 10C8 7.34784 9.05357 4.8043 10.9289 2.92893C12.8043 1.05357 15.3478 0 18 0Z" fill="black" fill-opacity="0.2"/>
</svg>
