<svg width="48" height="48" viewBox="0 0 48 48" fill="none" xmlns="http://www.w3.org/2000/svg">
<mask id="mask0_114738_33391" style="mask-type:luminance" maskUnits="userSpaceOnUse" x="0" y="0" width="48" height="48">
<path d="M0 0H48V48H0V0Z" fill="white"/>
</mask>
<g mask="url(#mask0_114738_33391)">
<path d="M9.78947 23.4068V30.9858C9.78947 32.5584 11.0589 33.8279 12.6316 33.8279C14.2042 33.8279 15.4737 32.5584 15.4737 30.9858V23.4068C15.4737 21.8342 14.2042 20.5647 12.6316 20.5647C11.0589 20.5647 9.78947 21.8342 9.78947 23.4068ZM21.1579 23.4068V30.9858C21.1579 32.5584 22.4274 33.8279 24 33.8279C25.5726 33.8279 26.8421 32.5584 26.8421 30.9858V23.4068C26.8421 21.8342 25.5726 20.5647 24 20.5647C22.4274 20.5647 21.1579 21.8342 21.1579 23.4068ZM8.84211 43.3016H39.1579C40.7305 43.3016 42 42.0321 42 40.4595C42 38.8868 40.7305 37.6174 39.1579 37.6174H8.84211C7.26947 37.6174 6 38.8868 6 40.4595C6 42.0321 7.26947 43.3016 8.84211 43.3016ZM32.5263 23.4068V30.9858C32.5263 32.5584 33.7958 33.8279 35.3684 33.8279C36.9411 33.8279 38.2105 32.5584 38.2105 30.9858V23.4068C38.2105 21.8342 36.9411 20.5647 35.3684 20.5647C33.7958 20.5647 32.5263 21.8342 32.5263 23.4068ZM22.2379 4.44053L7.26947 12.3226C6.49263 12.7205 6 13.5353 6 14.4068C6 15.7142 7.06105 16.7753 8.36842 16.7753H39.6505C40.9389 16.7753 42 15.7142 42 14.4068C42 13.5353 41.5074 12.7205 40.7305 12.3226L25.7621 4.44053C24.6632 3.85316 23.3368 3.85316 22.2379 4.44053Z" fill="#DFCAA0"/>
<path d="M9.78947 23.4068V30.9858C9.78947 32.5584 11.0589 33.8279 12.6316 33.8279C14.2042 33.8279 15.4737 32.5584 15.4737 30.9858V23.4068C15.4737 21.8342 14.2042 20.5647 12.6316 20.5647C11.0589 20.5647 9.78947 21.8342 9.78947 23.4068ZM21.1579 23.4068V30.9858C21.1579 32.5584 22.4274 33.8279 24 33.8279C25.5726 33.8279 26.8421 32.5584 26.8421 30.9858V23.4068C26.8421 21.8342 25.5726 20.5647 24 20.5647C22.4274 20.5647 21.1579 21.8342 21.1579 23.4068ZM8.84211 43.3016H39.1579C40.7305 43.3016 42 42.0321 42 40.4595C42 38.8868 40.7305 37.6174 39.1579 37.6174H8.84211C7.26947 37.6174 6 38.8868 6 40.4595C6 42.0321 7.26947 43.3016 8.84211 43.3016ZM32.5263 23.4068V30.9858C32.5263 32.5584 33.7958 33.8279 35.3684 33.8279C36.9411 33.8279 38.2105 32.5584 38.2105 30.9858V23.4068C38.2105 21.8342 36.9411 20.5647 35.3684 20.5647C33.7958 20.5647 32.5263 21.8342 32.5263 23.4068ZM22.2379 4.44053L7.26947 12.3226C6.49263 12.7205 6 13.5353 6 14.4068C6 15.7142 7.06105 16.7753 8.36842 16.7753H39.6505C40.9389 16.7753 42 15.7142 42 14.4068C42 13.5353 41.5074 12.7205 40.7305 12.3226L25.7621 4.44053C24.6632 3.85316 23.3368 3.85316 22.2379 4.44053Z" fill="black" fill-opacity="0.2"/>
<path d="M9.78947 23.4068V30.9858C9.78947 32.5584 11.0589 33.8279 12.6316 33.8279C14.2042 33.8279 15.4737 32.5584 15.4737 30.9858V23.4068C15.4737 21.8342 14.2042 20.5647 12.6316 20.5647C11.0589 20.5647 9.78947 21.8342 9.78947 23.4068ZM21.1579 23.4068V30.9858C21.1579 32.5584 22.4274 33.8279 24 33.8279C25.5726 33.8279 26.8421 32.5584 26.8421 30.9858V23.4068C26.8421 21.8342 25.5726 20.5647 24 20.5647C22.4274 20.5647 21.1579 21.8342 21.1579 23.4068ZM8.84211 43.3016H39.1579C40.7305 43.3016 42 42.0321 42 40.4595C42 38.8868 40.7305 37.6174 39.1579 37.6174H8.84211C7.26947 37.6174 6 38.8868 6 40.4595C6 42.0321 7.26947 43.3016 8.84211 43.3016ZM32.5263 23.4068V30.9858C32.5263 32.5584 33.7958 33.8279 35.3684 33.8279C36.9411 33.8279 38.2105 32.5584 38.2105 30.9858V23.4068C38.2105 21.8342 36.9411 20.5647 35.3684 20.5647C33.7958 20.5647 32.5263 21.8342 32.5263 23.4068ZM22.2379 4.44053L7.26947 12.3226C6.49263 12.7205 6 13.5353 6 14.4068C6 15.7142 7.06105 16.7753 8.36842 16.7753H39.6505C40.9389 16.7753 42 15.7142 42 14.4068C42 13.5353 41.5074 12.7205 40.7305 12.3226L25.7621 4.44053C24.6632 3.85316 23.3368 3.85316 22.2379 4.44053Z" fill="black" fill-opacity="0.2"/>
</g>
</svg>
