<svg width="219" height="347" viewBox="0 0 219 347" fill="none" xmlns="http://www.w3.org/2000/svg">
<g clip-path="url(#clip0_450_1713)">
<path d="M211.731 319.106C211.29 308.242 207.26 290.13 206.675 282.247C201.05 206.389 171.295 137.376 152.12 122.957C141.609 115.055 117.584 144.293 99.9575 173.245C99.1609 174.029 98.5998 174.088 97.6554 173.624C91.8451 183.377 87.0967 194.528 83.6476 202.517C84.704 203.134 83.1742 206.298 81.6775 206.061C76.3556 219.919 72.0837 231.823 76.4577 235.313C91.6567 267.384 94.6507 303.094 120.617 315.631L124.683 344.018L211.731 319.106Z" fill="url(#paint0_linear_450_1713)"/>
<path d="M211.731 319.106C211.29 308.242 207.26 290.13 206.675 282.247C201.05 206.389 171.295 137.376 152.12 122.957C141.609 115.055 117.584 144.293 99.9575 173.245C99.1609 174.029 98.5998 174.088 97.6554 173.624C91.8451 183.377 87.0967 194.528 83.6476 202.517C84.704 203.134 83.1742 206.298 81.6775 206.061C76.3556 219.919 72.0837 231.823 76.4577 235.313C91.6567 267.384 94.6507 303.094 120.617 315.631L124.683 344.018L211.731 319.106Z" fill="#171717"/>
<path d="M124.683 344.589C124.545 344.589 124.412 344.54 124.308 344.45C124.204 344.359 124.136 344.235 124.117 344.099L120.093 316.011C111.844 311.954 105.405 305.424 99.8468 295.486C94.8636 286.575 91.2108 276.042 87.3437 264.89C84.007 255.268 80.5573 245.319 75.9954 235.672C71.5838 231.935 75.3496 220.943 81.1435 205.856C81.1905 205.734 81.278 205.632 81.3914 205.566C81.5048 205.501 81.6371 205.476 81.7665 205.497C82.2426 205.572 82.974 204.828 83.2938 203.934C83.4964 203.367 83.4235 203.048 83.3589 203.01C83.2384 202.939 83.1479 202.827 83.1043 202.695C83.0608 202.562 83.0673 202.419 83.1226 202.291L83.512 201.388C86.9043 193.524 91.5505 182.754 97.1641 173.332C97.2376 173.208 97.3549 173.117 97.4926 173.076C97.6303 173.036 97.7783 173.048 97.9072 173.111C98.6387 173.471 98.9356 173.435 99.5065 172.887C107.433 159.874 116.053 147.789 123.783 138.853C132.93 128.28 140.476 122.361 146.213 121.261C148.645 120.795 150.748 121.212 152.463 122.501C157.293 126.133 162.817 133.213 168.437 142.976C174.166 152.929 179.899 165.511 185.014 179.364C196.798 211.274 204.693 247.796 207.245 282.204C207.489 285.505 208.364 290.741 209.29 296.284C210.581 304.01 212.045 312.767 212.301 319.082C212.306 319.21 212.268 319.336 212.193 319.44C212.118 319.544 212.011 319.619 211.887 319.654L124.84 344.567C124.789 344.581 124.736 344.589 124.683 344.589ZM82.0713 206.627C79.5248 213.265 77.158 219.629 75.9879 224.703C74.7421 230.105 75.0121 233.429 76.8135 234.866C76.8815 234.921 76.9363 234.989 76.9735 235.068C81.5892 244.807 85.0634 254.826 88.4233 264.516C96.2315 287.033 102.975 306.479 120.865 315.116C120.949 315.157 121.022 315.218 121.077 315.293C121.133 315.369 121.169 315.457 121.182 315.549L125.156 343.289L211.139 318.681C210.837 312.472 209.419 303.983 208.164 296.472C207.233 290.902 206.354 285.642 206.105 282.289C203.561 247.984 195.69 211.572 183.943 179.76C178.848 165.966 173.145 153.444 167.447 143.546C161.903 133.915 156.484 126.953 151.776 123.413C150.33 122.326 148.53 121.98 146.428 122.383C134.029 124.761 113.908 151.428 100.445 173.542C100.421 173.582 100.391 173.619 100.358 173.652C99.5494 174.448 98.8261 174.662 97.8931 174.343C92.4301 183.6 87.8902 194.124 84.5614 201.84L84.3258 202.387C84.6326 202.838 84.655 203.521 84.3698 204.318C83.9801 205.408 83.0845 206.48 82.0715 206.627L82.0713 206.627Z" fill="white"/>
<path d="M99.9561 173.245C99.1709 174.2 98.6979 174.165 97.6539 173.624C90.6783 170.003 74.1119 161.351 69.5223 160.431C64.2459 159.373 37.6736 154.716 32.9349 155.28C28.1962 155.843 18.8418 175.525 30.3173 179.155C41.7927 182.785 55.6335 186.68 61.261 186.88C61.261 186.88 70.9401 195.444 83.137 202.174C84.2323 202.778 84.3482 203.384 83.4707 204.876" fill="url(#paint1_linear_450_1713)"/>
<path d="M83.4715 205.447C83.3708 205.447 83.272 205.421 83.185 205.37C83.098 205.319 83.0259 205.247 82.9759 205.16C82.926 205.072 82.9001 204.973 82.9007 204.873C82.9013 204.772 82.9285 204.674 82.9796 204.587C83.3762 203.912 83.5362 203.464 83.4686 203.218C83.4395 203.112 83.345 202.94 82.862 202.674C71.581 196.449 62.332 188.565 61.0374 187.443C54.1919 187.108 37.1905 181.929 30.146 179.7C25.9005 178.357 23.8367 174.712 24.3347 169.437C24.946 162.958 29.4922 155.115 32.8685 154.713C37.8851 154.116 65.2088 158.984 69.6356 159.871C74.1561 160.778 89.7286 168.864 97.2123 172.751L97.9183 173.117C98.8114 173.581 98.9607 173.558 99.5157 172.883C99.6118 172.766 99.7506 172.692 99.9014 172.677C100.052 172.663 100.203 172.708 100.32 172.804C100.437 172.9 100.511 173.039 100.526 173.19C100.541 173.34 100.495 173.491 100.399 173.608C99.3839 174.843 98.5897 174.753 97.3917 174.131L96.6855 173.764C89.8291 170.203 73.7729 161.866 69.4111 160.991C63.5415 159.814 37.5826 155.301 33.0035 155.847C30.6302 156.129 26.1023 162.868 25.4722 169.544C25.1595 172.857 25.7763 177.12 30.4908 178.611C37.5621 180.848 54.7177 186.076 61.2825 186.31C61.4149 186.315 61.5416 186.366 61.6409 186.453C61.7373 186.539 71.417 195.054 83.4145 201.674C83.8619 201.921 84.3976 202.285 84.5705 202.916C84.7326 203.507 84.557 204.158 83.9643 205.166C83.9139 205.251 83.8418 205.323 83.7553 205.372C83.6688 205.421 83.5709 205.447 83.4713 205.447H83.4715Z" fill="white"/>
<path d="M120.505 145.356C115.465 142.085 94.4062 129.654 90.1328 127.466C85.8595 125.278 52.7675 110.953 47.9848 110.329C34.418 109.232 32.5692 133.151 43.6077 135.099C43.6077 135.099 60.6965 145.762 71.5995 150.079C71.5995 150.079 89.1608 161.87 99.0199 170.731C101.137 172.634 101.137 174.727 100.363 176.664" fill="url(#paint2_linear_450_1713)"/>
<path d="M100.36 177.235C100.266 177.235 100.174 177.212 100.092 177.168C100.01 177.124 99.9391 177.061 99.8867 176.984C99.8344 176.907 99.8018 176.818 99.7918 176.725C99.7818 176.632 99.7947 176.538 99.8294 176.452C100.677 174.333 100.298 172.65 98.6351 171.156C89.178 162.656 72.3816 151.297 71.3287 150.587C60.9154 146.45 44.7718 136.495 43.3951 135.641C37.4901 134.52 35.2035 127.693 36.0013 121.487C36.8055 115.231 40.8331 109.179 48.0279 109.759C48.0373 109.76 48.0466 109.761 48.0557 109.762C53.042 110.413 86.8153 125.127 90.3902 126.958C94.8408 129.237 115.991 141.747 120.813 144.877C120.877 144.917 120.933 144.97 120.977 145.032C121.021 145.094 121.053 145.164 121.069 145.238C121.086 145.312 121.088 145.389 121.074 145.464C121.061 145.539 121.032 145.61 120.991 145.674C120.95 145.737 120.896 145.792 120.833 145.835C120.77 145.878 120.699 145.907 120.625 145.922C120.55 145.937 120.473 145.937 120.399 145.922C120.324 145.907 120.254 145.878 120.191 145.835C114.94 142.427 93.9705 130.074 89.8692 127.974C85.3692 125.67 52.6429 111.532 47.9211 110.896C41.4917 110.387 37.8691 115.918 37.1344 121.633C36.4008 127.34 38.422 133.605 43.7038 134.537C43.7759 134.55 43.8449 134.576 43.907 134.615C44.0775 134.721 61.0773 145.299 71.8069 149.548C71.8448 149.563 71.8811 149.582 71.9148 149.605C72.0908 149.723 89.6225 161.521 99.3986 170.306C101.409 172.113 101.91 174.323 100.89 176.876C100.847 176.981 100.774 177.072 100.68 177.136C100.585 177.2 100.473 177.235 100.359 177.235L100.36 177.235Z" fill="white"/>
<path d="M47.9849 110.329C40.0778 109.296 21.8874 112.469 15.1749 114.162C2.1854 117.438 4.52648 134.994 23.4827 136.611C45.2165 138.465 46.9548 131.522 46.9548 131.522" fill="url(#paint3_linear_450_1713)"/>
<path d="M47.9849 110.329C40.0778 109.296 21.8874 112.469 15.1749 114.162C2.1854 117.438 4.52648 134.994 23.4827 136.611C45.2165 138.465 46.9548 131.522 46.9548 131.522" fill="#171717"/>
<path d="M30.3233 137.495C28.2776 137.495 25.9906 137.398 23.4326 137.18C12.3646 136.236 6.94086 130.036 6.47561 124.311C6.06236 119.225 9.42153 115.024 15.0334 113.608C21.0989 112.079 39.8295 108.689 48.0573 109.763C48.1316 109.772 48.2034 109.797 48.2684 109.834C48.3334 109.872 48.3904 109.921 48.4361 109.981C48.4819 110.04 48.5154 110.108 48.5349 110.181C48.5544 110.253 48.5594 110.328 48.5497 110.403C48.54 110.477 48.5157 110.549 48.4783 110.614C48.4409 110.679 48.391 110.736 48.3315 110.781C48.272 110.827 48.2041 110.861 48.1317 110.88C48.0592 110.9 47.9837 110.905 47.9093 110.895C40.3621 109.909 22.6764 112.858 15.3132 114.716C10.2707 115.987 7.24899 119.717 7.61464 124.218C8.04084 129.464 13.1273 135.155 23.5297 136.042C44.3214 137.816 46.3829 131.439 46.4014 131.375C46.4867 131.075 46.7981 130.894 47.0997 130.975C47.2444 131.012 47.3683 131.105 47.4447 131.234C47.5211 131.362 47.5437 131.516 47.5076 131.66C47.4406 131.928 45.8449 137.495 30.3235 137.495H30.3233Z" fill="white"/>
<path d="M76.4563 235.313C66.4334 232.527 54.3892 224.139 54.3892 224.139C48.095 223.73 33.4475 219.597 33.4475 219.597C33.4475 219.597 29.994 220.021 18.1858 219.608C0.773085 219 -5.8727 201.81 8.14521 199.927C13.7137 199.179 25.0104 198.058 32.2877 197.432C39.565 196.805 59.4534 200.301 62.7707 201.127C66.088 201.953 74.7566 205.342 81.676 206.061C83.4348 206.244 84.0276 203.468 84.0276 203.468" fill="url(#paint4_linear_450_1713)"/>
<path d="M76.4563 235.313C66.4334 232.527 54.3892 224.139 54.3892 224.139C48.095 223.73 33.4475 219.597 33.4475 219.597C33.4475 219.597 29.994 220.021 18.1858 219.608C0.773085 219 -5.8727 201.81 8.14521 199.927C13.7137 199.179 25.0104 198.058 32.2877 197.432C39.565 196.805 59.4534 200.301 62.7707 201.127C66.088 201.953 74.7566 205.342 81.676 206.061C83.4348 206.244 84.0276 203.468 84.0276 203.468" fill="#171717"/>
<path d="M76.4582 235.884C76.4074 235.884 76.356 235.877 76.3047 235.863C66.8656 233.239 55.5395 225.617 54.1954 224.698C48.0537 224.25 34.8315 220.578 33.4003 220.177C32.7001 220.247 28.8575 220.553 18.1674 220.179C7.33115 219.8 0.305243 213.11 0.00987048 207.129C-0.195614 202.971 2.81772 200.067 8.07063 199.361C13.4795 198.634 24.6071 197.52 32.2401 196.863C39.7391 196.217 59.9385 199.833 62.9103 200.573C63.8759 200.814 65.292 201.269 66.9315 201.796C71.1179 203.142 76.8519 204.986 81.7367 205.493C82.9347 205.616 83.4659 203.371 83.4706 203.348C83.4864 203.275 83.5164 203.205 83.559 203.144C83.6017 203.082 83.656 203.029 83.7191 202.989C83.7821 202.948 83.8525 202.92 83.9263 202.907C84.0001 202.894 84.0759 202.895 84.1492 202.911C84.2971 202.942 84.4264 203.032 84.5086 203.158C84.5909 203.285 84.6193 203.44 84.5877 203.588C84.3278 204.805 83.4097 206.817 81.6182 206.629C76.6152 206.109 70.8157 204.244 66.5813 202.883C64.9612 202.362 63.562 201.912 62.6336 201.681C59.6907 200.948 39.713 197.366 32.338 198C24.7181 198.657 13.6147 199.769 8.22241 200.493C3.62138 201.111 0.977687 203.571 1.15061 207.073C1.28144 209.72 3.0293 212.619 5.82667 214.828C9.05387 217.376 13.4506 218.871 18.2068 219.038C29.7939 219.443 33.3449 219.035 33.3794 219.03C33.4546 219.021 33.5309 219.027 33.6039 219.048C33.7498 219.089 48.2655 223.169 54.4276 223.57C54.5313 223.576 54.6315 223.611 54.717 223.671C54.8368 223.754 66.7989 232.035 76.6108 234.763C76.7439 234.8 76.8592 234.884 76.9353 234.999C77.0113 235.114 77.0429 235.253 77.0243 235.39C77.0056 235.527 76.938 235.652 76.8339 235.743C76.7298 235.834 76.5962 235.884 76.458 235.884L76.4582 235.884Z" fill="white"/>
<path d="M124.683 344.018C125.771 352.679 212.531 331.937 211.73 319.106C210.929 306.274 122.784 328.921 124.683 344.018Z" fill="url(#paint5_linear_450_1713)"/>
<path d="M124.683 344.018C125.771 352.679 212.531 331.937 211.73 319.106C210.929 306.274 122.784 328.921 124.683 344.018Z" fill="#171717"/>
<path d="M131.395 346.645C126.724 346.645 124.332 345.799 124.117 344.089C123.796 341.542 125.698 338.753 129.769 335.801C146.848 323.416 198.503 310.649 209.872 316.005C211.402 316.725 212.219 317.756 212.301 319.07C212.464 321.669 209.748 324.463 204 327.613C199.188 330.25 192.23 333.09 183.878 335.826C168.209 340.958 149.419 345.182 137.12 346.337C134.932 346.542 133.025 346.645 131.395 346.645L131.395 346.645ZM201.611 315.899C194.515 315.899 184.054 317.45 172.224 320.375C154.223 324.824 138.213 331.089 130.44 336.726C126.785 339.377 124.99 341.874 125.251 343.947C125.392 345.073 128.558 345.994 137.014 345.2C149.236 344.053 167.926 339.85 183.522 334.741C201.079 328.99 211.412 323.158 211.161 319.141C211.106 318.263 210.525 317.575 209.385 317.038C207.758 316.272 205.088 315.899 201.611 315.899H201.611Z" fill="white"/>
<path d="M156.153 126.542C144.194 112.872 121.396 97.6313 113.502 92.5757C105.608 87.5201 73.7471 77.2041 67.4826 75.3213C61.218 73.4382 47.7059 74.0609 36.9154 73.3704C23.1534 72.4896 22.1458 89.4466 40.1129 97.6783C50.777 102.564 66.183 104.389 66.183 104.389C66.183 104.389 85.6277 117.72 95.0288 122.206C99.5233 127.149 112.338 137.45 119.921 144.397C121.362 145.717 122.038 148.085 120.921 150.625" fill="url(#paint6_linear_450_1713)"/>
<path d="M156.153 126.542C144.194 112.872 121.396 97.6313 113.502 92.5757C105.608 87.5201 73.7471 77.2041 67.4826 75.3213C61.218 73.4382 47.7059 74.0609 36.9154 73.3704C23.1534 72.4896 22.1458 89.4466 40.1129 97.6783C50.777 102.564 66.183 104.389 66.183 104.389C66.183 104.389 85.6277 117.72 95.0288 122.206C99.5233 127.149 112.338 137.45 119.921 144.397C121.362 145.717 122.038 148.085 120.921 150.625" fill="#171717"/>
<path d="M120.92 151.197C120.825 151.196 120.731 151.173 120.648 151.128C120.564 151.082 120.493 151.017 120.442 150.937C120.39 150.858 120.358 150.767 120.351 150.672C120.343 150.577 120.359 150.482 120.397 150.395C121.505 147.877 120.625 145.817 119.535 144.818C116.589 142.119 112.787 138.857 109.111 135.703C103.393 130.798 97.4818 125.726 94.6814 122.673C85.6886 118.354 67.5945 106.044 65.9746 104.938C64.3932 104.738 49.9546 102.816 39.8744 98.1973C28.5769 93.0213 24.9241 84.7447 26.3111 79.2449C27.4017 74.9199 31.4779 72.451 36.9513 72.8009C40.6103 73.035 44.6177 73.1185 48.4928 73.199C56.1788 73.3589 63.4385 73.51 67.6465 74.7747C72.3702 76.1945 105.563 86.8137 113.81 92.0952C120.727 96.5255 144.256 112.076 156.582 126.167C156.68 126.281 156.73 126.429 156.719 126.58C156.708 126.73 156.639 126.87 156.525 126.969C156.412 127.068 156.263 127.119 156.113 127.109C155.962 127.1 155.822 127.031 155.722 126.918C143.495 112.941 120.079 97.4663 113.193 93.0565C105.056 87.845 72.0211 77.2819 67.3174 75.8681C63.2589 74.6481 56.075 74.4987 48.469 74.3404C44.5815 74.2595 40.5617 74.176 36.8784 73.9401C31.9163 73.6219 28.381 75.7098 27.4191 79.5237C26.7354 82.2345 27.4591 85.4022 29.4566 88.4432C31.7462 91.9288 35.5133 94.9428 40.3503 97.1589C50.8118 101.952 66.0965 103.804 66.2498 103.822C66.3414 103.832 66.4294 103.865 66.5057 103.918C66.6998 104.051 86.0213 117.275 95.2742 121.69C95.3412 121.722 95.4012 121.766 95.4509 121.821C98.1716 124.813 104.111 129.909 109.855 134.836C113.538 137.996 117.347 141.264 120.307 143.976C122.109 145.627 122.555 148.327 121.443 150.855C121.398 150.956 121.325 151.042 121.232 151.103C121.139 151.164 121.031 151.196 120.92 151.196V151.197Z" fill="white"/>
<path d="M32.936 155.28C28.1973 155.844 14.5197 164.519 8.44366 167.491C-0.902183 172.062 7.52384 187.641 22.0411 184.149C35.8173 180.835 33.3713 168.9 33.3713 168.9" fill="url(#paint7_linear_450_1713)"/>
<path d="M32.936 155.28C28.1973 155.844 14.5197 164.519 8.44366 167.491C-0.902183 172.062 7.52384 187.641 22.0411 184.149C35.8173 180.835 33.3713 168.9 33.3713 168.9" fill="#171717"/>
<path d="M17.9173 185.223C11.1898 185.224 6.15574 181.193 4.50367 176.608C3.04738 172.567 4.49587 168.787 8.19402 166.978C10.0998 166.046 12.812 164.518 15.6833 162.902C22.167 159.25 29.5157 155.112 32.8697 154.713C32.9442 154.704 33.0197 154.71 33.092 154.73C33.1642 154.751 33.2317 154.785 33.2907 154.831C33.3496 154.878 33.3988 154.935 33.4355 155.001C33.4722 155.066 33.4957 155.138 33.5046 155.212C33.5134 155.287 33.5075 155.362 33.4872 155.435C33.4669 155.507 33.4325 155.574 33.3861 155.633C33.3397 155.692 33.2822 155.741 33.2167 155.778C33.1513 155.815 33.0792 155.838 33.0047 155.847C29.8775 156.219 22.3182 160.476 16.2441 163.897C13.358 165.522 10.6317 167.057 8.69602 168.004C4.88589 169.868 4.58747 173.471 5.57852 176.221C7.08699 180.407 11.7156 184.08 17.9211 184.08C19.1891 184.08 20.522 183.927 21.9086 183.594C27.3959 182.274 30.8973 179.432 32.3157 175.149C33.3822 171.929 32.8187 169.043 32.8128 169.014C32.7827 168.866 32.8128 168.712 32.8965 168.585C32.9801 168.459 33.1104 168.371 33.2588 168.341C33.4071 168.311 33.5614 168.341 33.6877 168.424C33.814 168.507 33.902 168.638 33.9324 168.786C33.9585 168.914 34.561 171.958 33.4167 175.459C32.358 178.698 29.5486 182.93 22.1759 184.704C20.6972 185.059 19.2723 185.223 17.9171 185.223L17.9173 185.223Z" fill="white"/>
<path d="M206.675 282.247C208.542 267.076 220.874 203.107 217.814 177.409C214.753 151.711 213.643 133.484 213.77 121.363C213.856 113.18 212.406 101.915 215.712 88.8087C219.019 75.7022 202.017 66.3668 188.835 90.8574C179.531 108.144 180.933 118.622 180.933 118.622C180.933 118.622 177.088 156.304 175.597 173.245C143.102 198.411 135.994 232.469 139.632 261.567" fill="url(#paint8_linear_450_1713)"/>
<path d="M206.676 282.818C206.596 282.818 206.515 282.801 206.442 282.768C206.368 282.734 206.302 282.686 206.248 282.625C206.194 282.565 206.154 282.494 206.13 282.416C206.106 282.339 206.099 282.257 206.109 282.177C206.521 278.823 207.436 273.141 208.594 265.947C212.72 240.321 219.624 197.432 217.248 177.477C214.42 153.734 213.058 134.853 213.2 121.357C213.219 119.481 213.157 117.421 213.091 115.24C212.871 107.929 212.596 98.8293 215.159 88.6695C216.502 83.3446 214.396 78.4449 210.037 76.754C207.209 75.6574 203.824 76.1387 200.506 78.1103C196.505 80.4876 192.644 84.9892 189.339 91.1283C180.25 108.015 181.487 118.444 181.5 118.547C181.506 118.591 181.507 118.636 181.502 118.68C181.464 119.057 177.641 156.552 176.167 173.296C176.16 173.374 176.137 173.45 176.099 173.519C176.061 173.588 176.01 173.649 175.948 173.697C138.882 202.403 137.641 241.028 140.2 261.496C140.219 261.646 140.177 261.798 140.084 261.918C139.991 262.037 139.854 262.115 139.704 262.134C139.63 262.143 139.554 262.138 139.481 262.118C139.409 262.098 139.341 262.064 139.282 262.018C139.223 261.972 139.173 261.915 139.136 261.85C139.099 261.784 139.075 261.712 139.066 261.638C137.032 245.372 138.533 229.93 143.527 215.743C149.403 199.048 160.008 184.651 175.05 172.948C176.512 156.408 180.18 120.385 180.359 118.628C180.241 117.606 179.337 107.3 188.333 90.5872C191.784 84.1753 195.683 79.6471 199.922 77.1286C203.548 74.9737 207.287 74.4625 210.45 75.6893C212.769 76.5888 214.634 78.3838 215.703 80.7436C216.809 83.1881 217.004 86.0253 216.267 88.9487C213.743 98.9542 214.015 107.965 214.233 115.205C214.3 117.398 214.362 119.469 214.342 121.369C214.201 134.816 215.56 153.648 218.382 177.342C220.777 197.455 213.857 240.444 209.722 266.128C208.566 273.311 207.653 278.984 207.242 282.317C207.225 282.455 207.159 282.582 207.054 282.674C206.95 282.767 206.815 282.818 206.676 282.818L206.676 282.818Z" fill="white"/>
</g>
<g clip-path="url(#clip1_450_1713)">
<path d="M24.251 242.036C22.0367 241.252 20.0845 240.023 18.4494 238.473C13.5102 233.792 8.53836 228.245 10.8975 221.083L80.6456 16.1537C83.6421 7.05671 93.203 1.89016 101.987 4.62645L192.814 32.0653C192.814 32.0653 195.939 35.1449 198.008 37.9186C201.269 42.2903 202.448 48.1944 200.655 53.8922L135.274 261.672C132.2 271.441 122.197 276.747 113.006 273.49L24.251 242.036Z" fill="white"/>
<path d="M20.7657 238.143C11.8625 234.988 7.19797 224.658 10.3382 215.124L77.1603 12.2603C80.1569 3.1634 89.7178 -2.00315 98.5015 0.733136L186.029 27.999C195.089 30.8214 200.1 40.6857 197.17 49.9987L131.789 257.779C128.715 267.548 118.712 272.853 109.521 269.596L20.7657 238.143Z" fill="url(#paint9_linear_450_1713)"/>
<path d="M110.766 265.663L22.0302 234.28C15.0937 231.826 11.4665 223.809 13.9106 216.379L80.6922 13.3709C83.0255 6.27786 90.4534 2.26494 97.2997 4.40216L184.847 31.7314C191.904 33.9345 195.787 41.594 193.503 48.8454L128.076 256.475C125.68 264.078 117.922 268.194 110.766 265.663V265.663Z" fill="url(#paint10_linear_450_1713)"/>
<path d="M149.804 35.968L122.922 27.511C120.389 26.7141 119.025 23.9476 119.873 21.3324C120.72 18.719 123.458 17.2431 125.99 18.0353L152.856 26.4424C155.412 27.2421 156.803 30.0234 155.961 32.6556C155.119 35.2893 152.361 36.7726 149.804 35.9682L149.804 35.968Z" fill="black"/>
<path d="M90.45 241.001L51.9008 227.477C46.7689 225.676 44.0858 219.702 45.8979 214.135C47.7077 208.576 53.3226 205.514 58.4485 207.294L96.9534 220.662C102.152 222.467 104.923 228.487 103.131 234.11C101.337 239.741 95.6552 242.828 90.45 241.001Z" fill="#5764FF"/>
<path d="M90.45 241.001L51.9008 227.477C46.7689 225.676 44.0858 219.702 45.8979 214.135C47.7077 208.576 53.3226 205.514 58.4485 207.294L96.9534 220.662C102.152 222.467 104.923 228.487 103.131 234.11C101.337 239.741 95.6552 242.828 90.45 241.001Z" fill="url(#paint11_linear_450_1713)"/>
<g clip-path="url(#clip2_450_1713)">
<path d="M95.7617 143.899C94.8894 143.614 94.0899 143.141 93.4185 142.515C92.7471 141.888 92.22 141.123 91.8737 140.271L82.0913 116.219C80.7724 112.977 82.3283 109.273 85.566 107.947C88.8034 106.621 92.4977 108.174 93.8166 111.416L100.97 129.003L133.627 111.795C136.723 110.163 140.549 111.354 142.173 114.455C143.797 117.555 142.603 121.39 139.506 123.022L100.676 143.483C99.9261 143.878 99.1046 144.119 98.2604 144.19C97.4162 144.262 96.5665 144.163 95.7617 143.899Z" fill="#101010"/>
</g>
</g>
<g clip-path="url(#clip3_450_1713)">
<path d="M206.497 282.091C208.363 266.948 220.684 203.093 217.626 177.441C214.568 151.789 213.459 133.595 213.586 121.495C213.672 113.326 212.223 102.082 215.526 88.999C218.83 75.9159 201.844 66.5972 188.675 91.0439C179.379 108.3 180.78 118.759 180.78 118.759C180.78 118.759 176.939 156.374 175.449 173.285C142.985 198.406 135.884 232.402 139.518 261.448" fill="url(#paint12_linear_450_1713)"/>
<path d="M206.497 282.091C208.363 266.948 220.684 203.093 217.626 177.441C214.568 151.789 213.459 133.595 213.586 121.495C213.672 113.326 212.223 102.082 215.526 88.999C218.83 75.9159 201.844 66.5972 188.675 91.0439C179.379 108.3 180.78 118.759 180.78 118.759C180.78 118.759 176.939 156.374 175.449 173.285C142.985 198.406 135.884 232.402 139.518 261.448" fill="#171717"/>
<path d="M206.498 282.662C206.417 282.662 206.337 282.645 206.264 282.612C206.19 282.579 206.124 282.53 206.07 282.47C206.017 282.409 205.976 282.338 205.952 282.261C205.928 282.184 205.921 282.102 205.931 282.022C206.343 278.675 207.257 273.003 208.414 265.823C212.536 240.243 219.434 197.429 217.06 177.509C214.235 153.809 212.874 134.961 213.015 121.489C213.035 119.617 212.973 117.561 212.907 115.384C212.687 108.086 212.412 99.0026 214.973 88.8602C216.315 83.5448 214.211 78.6538 209.856 76.966C207.031 75.8713 203.649 76.3518 200.334 78.3197C196.337 80.6927 192.479 85.1862 189.177 91.3144C180.097 108.171 181.333 118.581 181.346 118.684C181.352 118.728 181.352 118.773 181.348 118.817C181.31 119.193 177.49 156.621 176.017 173.335C176.01 173.413 175.987 173.489 175.95 173.558C175.912 173.627 175.86 173.687 175.798 173.735C138.768 202.391 137.528 240.946 140.085 261.378C140.104 261.528 140.062 261.679 139.969 261.799C139.876 261.918 139.739 261.996 139.589 262.014C139.515 262.024 139.439 262.018 139.367 261.999C139.295 261.979 139.227 261.945 139.168 261.899C139.109 261.853 139.059 261.796 139.022 261.731C138.985 261.666 138.961 261.594 138.952 261.52C136.92 245.283 138.42 229.869 143.408 215.706C149.279 199.041 159.874 184.671 174.902 172.988C176.362 156.478 180.027 120.519 180.206 118.766C180.088 117.745 179.185 107.458 188.172 90.7748C191.62 84.3744 195.516 79.8544 199.75 77.3403C203.373 75.1891 207.109 74.6788 210.269 75.9036C212.586 76.8015 214.449 78.5932 215.516 80.9488C216.622 83.389 216.817 86.2211 216.08 89.1392C213.558 99.1275 213.83 108.123 214.048 115.35C214.114 117.539 214.177 119.606 214.157 121.502C214.016 134.924 215.374 153.723 218.193 177.375C220.586 197.453 213.672 240.365 209.541 266.004C208.386 273.173 207.474 278.835 207.064 282.162C207.047 282.3 206.98 282.427 206.876 282.519C206.772 282.611 206.637 282.662 206.498 282.662Z" fill="white"/>
<path d="M137.359 269.642L140.359 261.642L202.859 264.142L205.859 281.642L200.859 290.642L158.859 275.642L137.359 269.642Z" fill="#171717"/>
</g>
<defs>
<linearGradient id="paint0_linear_450_1713" x1="186.231" y1="320.439" x2="54.368" y2="65.8631" gradientUnits="userSpaceOnUse">
<stop stop-color="#5764FF"/>
<stop offset="1" stop-color="#C180FF"/>
</linearGradient>
<linearGradient id="paint1_linear_450_1713" x1="151.154" y1="332.921" x2="18.4752" y2="94.3244" gradientUnits="userSpaceOnUse">
<stop stop-color="#5764FF"/>
<stop offset="1" stop-color="#C180FF"/>
</linearGradient>
<linearGradient id="paint2_linear_450_1713" x1="179.723" y1="315.49" x2="46.31" y2="79.6244" gradientUnits="userSpaceOnUse">
<stop stop-color="#5764FF"/>
<stop offset="1" stop-color="#C180FF"/>
</linearGradient>
<linearGradient id="paint3_linear_450_1713" x1="136.38" y1="348.301" x2="18.9797" y2="99.6953" gradientUnits="userSpaceOnUse">
<stop stop-color="#5764FF"/>
<stop offset="1" stop-color="#C180FF"/>
</linearGradient>
<linearGradient id="paint4_linear_450_1713" x1="141.469" y1="348.99" x2="-20.5826" y2="115.769" gradientUnits="userSpaceOnUse">
<stop stop-color="#5764FF"/>
<stop offset="1" stop-color="#C180FF"/>
</linearGradient>
<linearGradient id="paint5_linear_450_1713" x1="129.599" y1="346.266" x2="210.542" y2="313.307" gradientUnits="userSpaceOnUse">
<stop stop-color="#5764FF"/>
<stop offset="1" stop-color="#C180FF"/>
</linearGradient>
<linearGradient id="paint6_linear_450_1713" x1="187.392" y1="315.82" x2="69.3116" y2="56.5793" gradientUnits="userSpaceOnUse">
<stop stop-color="#5764FF"/>
<stop offset="1" stop-color="#C180FF"/>
</linearGradient>
<linearGradient id="paint7_linear_450_1713" x1="143.335" y1="349.131" x2="-13.3737" y2="118.234" gradientUnits="userSpaceOnUse">
<stop stop-color="#5764FF"/>
<stop offset="1" stop-color="#C180FF"/>
</linearGradient>
<linearGradient id="paint8_linear_450_1713" x1="229.917" y1="297.207" x2="130.666" y2="58.8747" gradientUnits="userSpaceOnUse">
<stop stop-color="#5764FF"/>
<stop offset="1" stop-color="#C180FF"/>
</linearGradient>
<linearGradient id="paint9_linear_450_1713" x1="90.3001" y1="113.967" x2="192.334" y2="259.871" gradientUnits="userSpaceOnUse">
<stop stop-color="#ADADAD"/>
<stop offset="1"/>
</linearGradient>
<linearGradient id="paint10_linear_450_1713" x1="93.9387" y1="125.589" x2="213.6" y2="217.68" gradientUnits="userSpaceOnUse">
<stop stop-color="white"/>
<stop offset="1" stop-color="#BEC3D7"/>
</linearGradient>
<linearGradient id="paint11_linear_450_1713" x1="74.5041" y1="206.788" x2="74.5041" y2="245.715" gradientUnits="userSpaceOnUse">
<stop stop-color="#E8D1AB"/>
<stop offset="1" stop-color="#C39447"/>
</linearGradient>
<linearGradient id="paint12_linear_450_1713" x1="229.718" y1="297.025" x2="130.703" y2="59.0593" gradientUnits="userSpaceOnUse">
<stop stop-color="#5764FF"/>
<stop offset="1" stop-color="#C180FF"/>
</linearGradient>
<clipPath id="clip0_450_1713">
<rect width="218.871" height="273.876" fill="white" transform="translate(0 72.7666)"/>
</clipPath>
<clipPath id="clip1_450_1713">
<rect width="192.133" height="274.449" fill="white" transform="translate(9.35938 0.000488281)"/>
</clipPath>
<clipPath id="clip2_450_1713">
<rect width="59.973" height="44.2213" fill="white" transform="translate(87.5625 94.6807) rotate(18.1361)"/>
</clipPath>
<clipPath id="clip3_450_1713">
<rect width="80.5966" height="207.412" fill="white" transform="translate(138.086 75.2495)"/>
</clipPath>
</defs>
</svg>
