<svg width="42" height="42" viewBox="0 0 42 42" fill="none" xmlns="http://www.w3.org/2000/svg">
<path d="M21.0069 0C12.2395 0 9.67545 0.00904445 9.17703 0.0503905C7.37783 0.199947 6.25826 0.483232 5.03855 1.0905C4.09857 1.55726 3.35725 2.09831 2.62562 2.85676C1.29318 4.23991 0.485637 5.94156 0.193307 7.96429C0.0511801 8.94626 0.00983405 9.14653 0.00143563 14.1623C-0.00179453 15.8343 0.00143563 18.0346 0.00143563 20.986C0.00143563 29.7462 0.0111261 32.3078 0.0531182 32.8052C0.198476 34.556 0.473039 35.6574 1.05447 36.8623C2.16564 39.1686 4.28786 40.9 6.78801 41.546C7.65369 41.7689 8.60982 41.8916 9.83728 41.9498C10.3573 41.9724 15.658 41.9886 20.962 41.9886C26.2659 41.9886 31.5698 41.9821 32.0769 41.9563C33.4982 41.8894 34.3235 41.7786 35.236 41.5428C36.4757 41.2249 37.6311 40.6402 38.6214 39.8295C39.6117 39.0189 40.4131 38.0018 40.9696 36.8494C41.5397 35.6736 41.8288 34.5301 41.9596 32.8708C41.9881 32.509 42 26.7409 42 20.9805C42 15.2192 41.9871 9.46179 41.9587 9.10001C41.8262 7.41387 41.5371 6.28008 40.9486 5.08169C40.4657 4.10069 39.9295 3.36809 39.151 2.61902C37.762 1.29207 36.063 0.484524 34.038 0.192518C33.057 0.0507136 32.8616 0.00872144 27.8419 0H21.0069Z" fill="url(#paint0_radial_177_1673)"/>
<path d="M21.0069 0C12.2395 0 9.67545 0.00904445 9.17703 0.0503905C7.37783 0.199947 6.25826 0.483232 5.03855 1.0905C4.09857 1.55726 3.35725 2.09831 2.62562 2.85676C1.29318 4.23991 0.485637 5.94156 0.193307 7.96429C0.0511801 8.94626 0.00983405 9.14653 0.00143563 14.1623C-0.00179453 15.8343 0.00143563 18.0346 0.00143563 20.986C0.00143563 29.7462 0.0111261 32.3078 0.0531182 32.8052C0.198476 34.556 0.473039 35.6574 1.05447 36.8623C2.16564 39.1686 4.28786 40.9 6.78801 41.546C7.65369 41.7689 8.60982 41.8916 9.83728 41.9498C10.3573 41.9724 15.658 41.9886 20.962 41.9886C26.2659 41.9886 31.5698 41.9821 32.0769 41.9563C33.4982 41.8894 34.3235 41.7786 35.236 41.5428C36.4757 41.2249 37.6311 40.6402 38.6214 39.8295C39.6117 39.0189 40.4131 38.0018 40.9696 36.8494C41.5397 35.6736 41.8288 34.5301 41.9596 32.8708C41.9881 32.509 42 26.7409 42 20.9805C42 15.2192 41.9871 9.46179 41.9587 9.10001C41.8262 7.41387 41.5371 6.28008 40.9486 5.08169C40.4657 4.10069 39.9295 3.36809 39.151 2.61902C37.762 1.29207 36.063 0.484524 34.038 0.192518C33.057 0.0507136 32.8616 0.00872144 27.8419 0H21.0069Z" fill="url(#paint1_radial_177_1673)"/>
<path d="M20.9972 5.49121C16.7864 5.49121 16.2579 5.50962 14.6041 5.58489C12.9535 5.66047 11.8268 5.92179 10.8409 6.30521C9.82116 6.70123 8.95613 7.23098 8.09432 8.09311C7.23187 8.95491 6.70212 9.81995 6.30481 10.8394C5.92042 11.8256 5.65878 12.9526 5.58448 14.6025C5.51084 16.2564 5.49146 16.7851 5.49146 20.996C5.49146 25.2068 5.51019 25.7337 5.58513 27.3875C5.66104 29.0381 5.92236 30.1648 6.30546 31.1506C6.7018 32.1704 7.23154 33.0354 8.09367 33.8973C8.95516 34.7597 9.8202 35.2907 10.8393 35.6868C11.8258 36.0702 12.9528 36.3315 14.6031 36.4071C16.2569 36.4824 16.7851 36.5008 20.9956 36.5008C25.2067 36.5008 25.7336 36.4824 27.3874 36.4071C29.038 36.3315 30.166 36.0702 31.1525 35.6868C32.1719 35.2907 33.0357 34.7597 33.8972 33.8973C34.7596 33.0354 35.2894 32.1704 35.6867 31.151C36.0678 30.1648 36.3295 29.0378 36.407 27.3878C36.4813 25.734 36.5007 25.2068 36.5007 20.996C36.5007 16.7851 36.4813 16.2567 36.407 14.6029C36.3295 12.9522 36.0678 11.8256 35.6867 10.8397C35.2894 9.81995 34.7596 8.95491 33.8972 8.09311C33.0347 7.23065 32.1723 6.70091 31.1515 6.30521C30.1631 5.92179 29.0358 5.66047 27.3852 5.58489C25.7313 5.50962 25.2048 5.49121 20.9927 5.49121H20.9972ZM19.6063 8.2853C20.0191 8.28465 20.4797 8.2853 20.9972 8.2853C25.137 8.2853 25.6276 8.30016 27.2624 8.37445C28.7741 8.44358 29.5946 8.69618 30.1411 8.9084C30.8647 9.18942 31.3806 9.52536 31.9229 10.068C32.4656 10.6107 32.8015 11.1275 33.0832 11.8511C33.2954 12.397 33.5483 13.2174 33.6171 14.7292C33.6914 16.3636 33.7076 16.8546 33.7076 20.9924C33.7076 25.1303 33.6914 25.6213 33.6171 27.2557C33.548 28.7674 33.2954 29.5879 33.0832 30.1338C32.8022 30.8573 32.4656 31.3726 31.9229 31.9149C31.3802 32.4576 30.865 32.7935 30.1411 33.0745C29.5952 33.2877 28.7741 33.5397 27.2624 33.6088C25.628 33.6831 25.137 33.6992 20.9972 33.6992C16.8571 33.6992 16.3664 33.6831 14.732 33.6088C13.2203 33.539 12.3998 33.2864 11.8529 33.0742C11.1294 32.7932 10.6126 32.4572 10.0699 31.9146C9.52722 31.3719 9.19128 30.8564 8.90961 30.1325C8.69739 29.5866 8.44447 28.7661 8.37567 27.2544C8.30137 25.62 8.28651 25.129 8.28651 20.9886C8.28651 16.8481 8.30137 16.3597 8.37567 14.7253C8.44479 13.2136 8.69739 12.3931 8.90961 11.8466C9.19064 11.123 9.52722 10.6062 10.0699 10.0635C10.6126 9.52084 11.1294 9.1849 11.8529 8.90323C12.3995 8.69004 13.2203 8.43809 14.732 8.36864C16.1623 8.30404 16.7166 8.28466 19.6063 8.28142V8.2853ZM29.2735 10.8597C28.9055 10.8597 28.5458 10.9689 28.2398 11.1733C27.9338 11.3778 27.6953 11.6684 27.5545 12.0085C27.4137 12.3485 27.3769 12.7226 27.4487 13.0835C27.5206 13.4445 27.6979 13.776 27.9581 14.0362C28.2184 14.2963 28.55 14.4735 28.9109 14.5452C29.2719 14.6169 29.646 14.58 29.986 14.4391C30.3259 14.2982 30.6165 14.0596 30.8208 13.7535C31.0252 13.4475 31.1342 13.0877 31.1341 12.7197C31.1341 11.6925 30.3007 10.8591 29.2735 10.8591V10.8597ZM20.9972 13.0336C16.6 13.0336 13.0349 16.5988 13.0349 20.996C13.0349 25.3932 16.6 28.9567 20.9972 28.9567C25.3944 28.9567 28.9586 25.3932 28.9586 20.996C28.9586 16.5988 25.3941 13.0336 20.9969 13.0336H20.9972ZM20.9972 15.8277C23.8514 15.8277 26.1655 18.1415 26.1655 20.996C26.1655 23.8502 23.8514 26.1642 20.9972 26.1642C18.1427 26.1642 15.8289 23.8502 15.8289 20.996C15.8289 18.1415 18.1427 15.8277 20.9972 15.8277Z" fill="white"/>
<defs>
<radialGradient id="paint0_radial_177_1673" cx="0" cy="0" r="1" gradientUnits="userSpaceOnUse" gradientTransform="translate(11.1563 45.2226) rotate(-90) scale(41.6138 38.7146)">
<stop stop-color="#FFDD55"/>
<stop offset="0.1" stop-color="#FFDD55"/>
<stop offset="0.5" stop-color="#FF543E"/>
<stop offset="1" stop-color="#C837AB"/>
</radialGradient>
<radialGradient id="paint1_radial_177_1673" cx="0" cy="0" r="1" gradientTransform="matrix(3.65205 18.2397 -75.2037 15.058 -7.03522 3.02478)" gradientUnits="userSpaceOnUse">
<stop stop-color="#3771C8"/>
<stop offset="0.128" stop-color="#3771C8"/>
<stop offset="1" stop-color="#6600FF" stop-opacity="0"/>
</radialGradient>
</defs>
</svg>
