<svg width="75" height="74" viewBox="0 0 75 74" fill="none" xmlns="http://www.w3.org/2000/svg">
<path d="M37.5878 50.6892C43.4913 50.6892 48.2771 45.9034 48.2771 39.9999C48.2771 34.0963 43.4913 29.3105 37.5878 29.3105C31.6842 29.3105 26.8984 34.0963 26.8984 39.9999C26.8984 45.9034 31.6842 50.6892 37.5878 50.6892Z" fill="#DFCAA0"/>
<path d="M37.5878 50.6892C43.4913 50.6892 48.2771 45.9034 48.2771 39.9999C48.2771 34.0963 43.4913 29.3105 37.5878 29.3105C31.6842 29.3105 26.8984 34.0963 26.8984 39.9999C26.8984 45.9034 31.6842 50.6892 37.5878 50.6892Z" fill="black" fill-opacity="0.2"/>
<path d="M37.5878 50.6892C43.4913 50.6892 48.2771 45.9034 48.2771 39.9999C48.2771 34.0963 43.4913 29.3105 37.5878 29.3105C31.6842 29.3105 26.8984 34.0963 26.8984 39.9999C26.8984 45.9034 31.6842 50.6892 37.5878 50.6892Z" fill="black" fill-opacity="0.2"/>
<path d="M61.4306 18.6213H57.6832C56.9177 18.622 56.1715 18.3816 55.5504 17.9343C54.9292 17.487 54.4648 16.8554 54.2229 16.1291C53.5776 14.1873 52.3373 12.498 50.6779 11.3008C49.0186 10.1035 47.0243 9.45913 44.9781 9.45899H30.1994C28.1516 9.4572 26.1554 10.1007 24.4941 11.2981C22.8329 12.4955 21.5913 14.1859 20.9455 16.1291C20.7039 16.8544 20.2404 17.4853 19.6205 17.9325C19.0006 18.3798 18.2557 18.6207 17.4913 18.6213H13.7439C11.1586 18.6245 8.68008 19.653 6.85197 21.4811C5.02387 23.3092 3.99542 25.7877 3.99219 28.373V54.681C3.99542 57.2663 5.02387 59.7448 6.85197 61.5729C8.68008 63.401 11.1586 64.4295 13.7439 64.4327H61.4306C64.0159 64.4295 66.4944 63.401 68.3225 61.5729C70.1506 59.7448 71.1791 57.2663 71.1823 54.681V28.373C71.1791 25.7877 70.1506 23.3092 68.3225 21.4811C66.4944 19.653 64.0159 18.6245 61.4306 18.6213ZM16.2086 33.8918C15.6045 33.8918 15.014 33.7126 14.5118 33.377C14.0096 33.0415 13.6181 32.5645 13.387 32.0064C13.1558 31.4483 13.0953 30.8343 13.2132 30.2418C13.331 29.6494 13.6219 29.1052 14.049 28.6781C14.4761 28.251 15.0203 27.9601 15.6127 27.8422C16.2052 27.7244 16.8193 27.7849 17.3773 28.016C17.9354 28.2472 18.4124 28.6386 18.748 29.1409C19.0835 29.6431 19.2627 30.2336 19.2627 30.8377C19.2627 31.6477 18.9409 32.4245 18.3681 32.9972C17.7954 33.57 17.0186 33.8918 16.2086 33.8918ZM37.5872 56.7975C34.265 56.7975 31.0174 55.8123 28.255 53.9666C25.4927 52.1208 23.3397 49.4974 22.0683 46.4281C20.797 43.3587 20.4643 39.9813 21.1125 36.7229C21.7606 33.4645 23.3604 30.4715 25.7096 28.1223C28.0588 25.7731 31.0518 24.1733 34.3102 23.5252C37.5686 22.877 40.946 23.2097 44.0154 24.4811C47.0847 25.7524 49.7081 27.9054 51.5539 30.6677C53.3996 33.4301 54.3848 36.6777 54.3848 39.9999C54.3791 44.4532 52.6076 48.7224 49.4586 51.8713C46.3097 55.0203 42.0405 56.7918 37.5872 56.7975Z" fill="#DFCAA0"/>
<path d="M61.4306 18.6213H57.6832C56.9177 18.622 56.1715 18.3816 55.5504 17.9343C54.9292 17.487 54.4648 16.8554 54.2229 16.1291C53.5776 14.1873 52.3373 12.498 50.6779 11.3008C49.0186 10.1035 47.0243 9.45913 44.9781 9.45899H30.1994C28.1516 9.4572 26.1554 10.1007 24.4941 11.2981C22.8329 12.4955 21.5913 14.1859 20.9455 16.1291C20.7039 16.8544 20.2404 17.4853 19.6205 17.9325C19.0006 18.3798 18.2557 18.6207 17.4913 18.6213H13.7439C11.1586 18.6245 8.68008 19.653 6.85197 21.4811C5.02387 23.3092 3.99542 25.7877 3.99219 28.373V54.681C3.99542 57.2663 5.02387 59.7448 6.85197 61.5729C8.68008 63.401 11.1586 64.4295 13.7439 64.4327H61.4306C64.0159 64.4295 66.4944 63.401 68.3225 61.5729C70.1506 59.7448 71.1791 57.2663 71.1823 54.681V28.373C71.1791 25.7877 70.1506 23.3092 68.3225 21.4811C66.4944 19.653 64.0159 18.6245 61.4306 18.6213ZM16.2086 33.8918C15.6045 33.8918 15.014 33.7126 14.5118 33.377C14.0096 33.0415 13.6181 32.5645 13.387 32.0064C13.1558 31.4483 13.0953 30.8343 13.2132 30.2418C13.331 29.6494 13.6219 29.1052 14.049 28.6781C14.4761 28.251 15.0203 27.9601 15.6127 27.8422C16.2052 27.7244 16.8193 27.7849 17.3773 28.016C17.9354 28.2472 18.4124 28.6386 18.748 29.1409C19.0835 29.6431 19.2627 30.2336 19.2627 30.8377C19.2627 31.6477 18.9409 32.4245 18.3681 32.9972C17.7954 33.57 17.0186 33.8918 16.2086 33.8918ZM37.5872 56.7975C34.265 56.7975 31.0174 55.8123 28.255 53.9666C25.4927 52.1208 23.3397 49.4974 22.0683 46.4281C20.797 43.3587 20.4643 39.9813 21.1125 36.7229C21.7606 33.4645 23.3604 30.4715 25.7096 28.1223C28.0588 25.7731 31.0518 24.1733 34.3102 23.5252C37.5686 22.877 40.946 23.2097 44.0154 24.4811C47.0847 25.7524 49.7081 27.9054 51.5539 30.6677C53.3996 33.4301 54.3848 36.6777 54.3848 39.9999C54.3791 44.4532 52.6076 48.7224 49.4586 51.8713C46.3097 55.0203 42.0405 56.7918 37.5872 56.7975Z" fill="black" fill-opacity="0.2"/>
<path d="M61.4306 18.6213H57.6832C56.9177 18.622 56.1715 18.3816 55.5504 17.9343C54.9292 17.487 54.4648 16.8554 54.2229 16.1291C53.5776 14.1873 52.3373 12.498 50.6779 11.3008C49.0186 10.1035 47.0243 9.45913 44.9781 9.45899H30.1994C28.1516 9.4572 26.1554 10.1007 24.4941 11.2981C22.8329 12.4955 21.5913 14.1859 20.9455 16.1291C20.7039 16.8544 20.2404 17.4853 19.6205 17.9325C19.0006 18.3798 18.2557 18.6207 17.4913 18.6213H13.7439C11.1586 18.6245 8.68008 19.653 6.85197 21.4811C5.02387 23.3092 3.99542 25.7877 3.99219 28.373V54.681C3.99542 57.2663 5.02387 59.7448 6.85197 61.5729C8.68008 63.401 11.1586 64.4295 13.7439 64.4327H61.4306C64.0159 64.4295 66.4944 63.401 68.3225 61.5729C70.1506 59.7448 71.1791 57.2663 71.1823 54.681V28.373C71.1791 25.7877 70.1506 23.3092 68.3225 21.4811C66.4944 19.653 64.0159 18.6245 61.4306 18.6213ZM16.2086 33.8918C15.6045 33.8918 15.014 33.7126 14.5118 33.377C14.0096 33.0415 13.6181 32.5645 13.387 32.0064C13.1558 31.4483 13.0953 30.8343 13.2132 30.2418C13.331 29.6494 13.6219 29.1052 14.049 28.6781C14.4761 28.251 15.0203 27.9601 15.6127 27.8422C16.2052 27.7244 16.8193 27.7849 17.3773 28.016C17.9354 28.2472 18.4124 28.6386 18.748 29.1409C19.0835 29.6431 19.2627 30.2336 19.2627 30.8377C19.2627 31.6477 18.9409 32.4245 18.3681 32.9972C17.7954 33.57 17.0186 33.8918 16.2086 33.8918ZM37.5872 56.7975C34.265 56.7975 31.0174 55.8123 28.255 53.9666C25.4927 52.1208 23.3397 49.4974 22.0683 46.4281C20.797 43.3587 20.4643 39.9813 21.1125 36.7229C21.7606 33.4645 23.3604 30.4715 25.7096 28.1223C28.0588 25.7731 31.0518 24.1733 34.3102 23.5252C37.5686 22.877 40.946 23.2097 44.0154 24.4811C47.0847 25.7524 49.7081 27.9054 51.5539 30.6677C53.3996 33.4301 54.3848 36.6777 54.3848 39.9999C54.3791 44.4532 52.6076 48.7224 49.4586 51.8713C46.3097 55.0203 42.0405 56.7918 37.5872 56.7975Z" fill="black" fill-opacity="0.2"/>
</svg>
