<svg width="90" height="90" viewBox="0 0 90 90" fill="none" xmlns="http://www.w3.org/2000/svg">
<path d="M83.2558 42.787C82.4066 42.2921 81.4407 42.0329 80.4579 42.0362C79.475 42.0395 78.5109 42.3051 77.665 42.8056L67.4581 48.7609V68.8754L77.665 74.8307C78.5448 75.344 79.51 75.6006 80.4772 75.6006C81.4531 75.5989 82.4114 75.3404 83.2558 74.8511C84.1109 74.3669 84.8212 73.6633 85.3136 72.813C85.806 71.9626 86.0625 70.9962 86.0568 70.0136V47.6283C86.0568 45.6066 85.0097 43.7969 83.2558 42.7907V42.787ZM57.4185 39.8224C59.3803 38.3541 60.9729 36.4488 62.07 34.2577C63.167 32.0665 63.7382 29.6499 63.7384 27.1995C63.7384 23.0067 62.0728 18.9857 59.1081 16.0209C56.1433 13.0562 52.1223 11.3906 47.9295 11.3906C43.7367 11.3906 39.7157 13.0562 36.751 16.0209C33.7862 18.9857 32.1206 23.0067 32.1206 27.1995C32.1192 29.5036 32.6227 31.7801 33.5956 33.8687C34.5686 35.9573 35.9874 37.8073 37.7523 39.2886H27.6328C29.0476 37.9867 30.177 36.4053 30.9494 34.6446C31.7219 32.8839 32.1207 30.9821 32.1206 29.0594C32.1206 25.3598 30.651 21.8119 28.0351 19.1959C25.4191 16.58 21.8712 15.1104 18.1717 15.1104C14.4721 15.1104 10.9242 16.58 8.30822 19.1959C5.69228 21.8119 4.22266 25.3598 4.22266 29.0594C4.22266 31.2023 4.71764 33.3163 5.66902 35.2364C6.6204 37.1566 8.00245 38.8311 9.7074 40.1293C6.48239 41.5911 4.22266 44.8236 4.22266 48.5879V69.0465C4.22266 74.1741 8.39434 78.3458 13.522 78.3458H54.439C59.5667 78.3458 63.7384 74.1741 63.7384 69.0465V48.5879C63.7384 44.5074 61.0806 41.0722 57.4185 39.8224ZM12.5921 29.0594C12.5921 28.3266 12.7364 27.6011 13.0168 26.9241C13.2972 26.2472 13.7082 25.6321 14.2263 25.114C14.7444 24.5959 15.3595 24.1849 16.0364 23.9045C16.7134 23.6241 17.4389 23.4798 18.1717 23.4798C18.9044 23.4798 19.6299 23.6241 20.3069 23.9045C20.9838 24.1849 21.5989 24.5959 22.117 25.114C22.6351 25.6321 23.0461 26.2472 23.3265 26.9241C23.6069 27.6011 23.7512 28.3266 23.7512 29.0594C23.7512 30.5392 23.1634 31.9583 22.117 33.0047C21.0706 34.0511 19.6515 34.639 18.1717 34.639C16.6918 34.639 15.2727 34.0511 14.2263 33.0047C13.1799 31.9583 12.5921 30.5392 12.5921 29.0594ZM22.8213 69.0465H15.3819C14.8886 69.0465 14.4155 68.8505 14.0667 68.5017C13.7179 68.1529 13.522 67.6799 13.522 67.1866C13.522 66.6933 13.7179 66.2203 14.0667 65.8715C14.4155 65.5227 14.8886 65.3267 15.3819 65.3267H22.8213C23.3146 65.3267 23.7876 65.5227 24.1364 65.8715C24.4852 66.2203 24.6812 66.6933 24.6812 67.1866C24.6812 67.6799 24.4852 68.1529 24.1364 68.5017C23.7876 68.8505 23.3146 69.0465 22.8213 69.0465ZM47.9295 34.639C45.9564 34.639 44.0642 33.8552 42.669 32.46C41.2738 31.0648 40.49 29.1726 40.49 27.1995C40.49 25.2264 41.2738 23.3342 42.669 21.939C44.0642 20.5438 45.9564 19.76 47.9295 19.76C49.9026 19.76 51.7948 20.5438 53.19 21.939C54.5852 23.3342 55.369 25.2264 55.369 27.1995C55.369 29.1726 54.5852 31.0648 53.19 32.46C51.7948 33.8552 49.9026 34.639 47.9295 34.639Z" fill="white"/>
</svg>
