<svg width="119" height="119" viewBox="0 0 119 119" fill="none" xmlns="http://www.w3.org/2000/svg">
<g clip-path="url(#clip0_114685_16415)">
<path d="M62.6651 43.2617C57.5866 43.2617 53.4551 47.3934 53.4551 52.4718C53.4551 57.5503 57.5868 61.682 62.6651 61.682C67.7435 61.682 71.8752 57.5503 71.8752 52.4718C71.8752 47.3934 67.7437 43.2617 62.6651 43.2617Z" fill="#DFCAA0"/>
<path d="M62.6651 43.2617C57.5866 43.2617 53.4551 47.3934 53.4551 52.4718C53.4551 57.5503 57.5868 61.682 62.6651 61.682C67.7435 61.682 71.8752 57.5503 71.8752 52.4718C71.8752 47.3934 67.7437 43.2617 62.6651 43.2617Z" fill="black" fill-opacity="0.2"/>
<path d="M62.6651 43.2617C57.5866 43.2617 53.4551 47.3934 53.4551 52.4718C53.4551 57.5503 57.5868 61.682 62.6651 61.682C67.7435 61.682 71.8752 57.5503 71.8752 52.4718C71.8752 47.3934 67.7437 43.2617 62.6651 43.2617Z" fill="black" fill-opacity="0.2"/>
<path d="M102.602 99.9039C102.532 99.07 102.245 98.0639 101.748 96.9145C99.3412 91.3514 92.2024 82.8453 86.7703 79.0687C84.9943 77.8332 82.7948 76.8001 80.2362 75.9916C79.0692 74.427 78.416 73.1704 78.1886 72.0558C78.0202 71.2237 77.9434 70.3124 77.9539 69.2881C79.5778 68.6032 80.9635 67.4545 81.9375 65.9858C82.9116 64.5171 83.4307 62.7936 83.4298 61.0313V59.8644C83.6659 59.5288 83.8897 59.1848 84.1007 58.8329C84.6357 57.9416 85.1434 56.8491 85.6137 55.5813C88.3285 55.5271 90.9669 53.4669 92.0796 50.4208C93.4583 46.6449 92.0991 42.5502 89.0475 41.0894C90.9217 38.2799 95.3799 30.2642 93.0861 20.3792C91.9027 15.2839 88.7231 11.266 83.8908 8.76042C80.8892 7.20377 78.1471 6.68619 77.2241 6.54692C75.7728 5.20272 68.0389 -1.32993 57.7888 1.66659C51.4608 3.51599 46.4382 9.65128 42.0067 15.0643C38.7998 18.982 35.7704 22.6822 32.7436 24.2273C32.5832 24.3092 32.45 24.4358 32.36 24.5918C32.27 24.7478 32.2271 24.9265 32.2365 25.1064C32.2459 25.2862 32.3072 25.4595 32.413 25.6052C32.5188 25.751 32.6646 25.8629 32.8326 25.9276C34.3418 26.5083 35.8682 26.718 37.3955 26.5583C36.72 27.7568 36.2119 29.1627 35.8549 30.7933C32.3463 33.57 29.4245 38.2526 28.6943 41.102C28.2324 42.9028 28.3774 47.5535 28.5309 52.4769C28.6741 57.068 28.8223 61.8152 28.4483 63.775C28.1269 65.4651 26.1903 69.5865 24.14 73.9498C21.2852 80.0249 18.0496 86.9107 17.151 91.2512C16.1507 96.0888 16.6685 103.103 20.0791 107.87C22.0735 110.658 24.8714 112.35 28.1689 112.764C28.8301 112.847 29.5108 112.888 30.2112 112.888C33.5255 112.888 37.2732 111.96 41.3838 110.116C44.1901 108.858 46.5183 107.459 47.9355 106.539V117.422C47.9355 117.67 48.0337 117.907 48.2085 118.082C48.3833 118.256 48.6204 118.355 48.8676 118.355H88.9801C89.2273 118.355 89.4644 118.256 89.6392 118.082C89.814 117.907 89.9122 117.67 89.9122 117.422V113.496C90.138 113.503 90.3633 113.509 90.5852 113.509C92.6009 113.509 94.4342 113.219 95.7727 112.674C99.7672 111.051 103.022 104.964 102.602 99.9039ZM90.3284 49.7816C89.5775 51.8371 87.9736 53.31 86.2609 53.6486C87.1777 50.6204 87.9066 46.8645 88.3586 42.834C90.4746 43.9343 91.3613 46.9528 90.3284 49.7816ZM76.1373 20.4083C77.3274 23.5407 79.0754 26.2481 80.783 28.8927C83.2036 32.6417 85.7041 36.5193 86.6131 41.6157C86.1295 46.4901 85.234 50.9971 84.0865 54.3185C83.8885 54.8955 83.6694 55.465 83.4296 56.0259V41.2317C83.4296 36.2908 79.4099 32.271 74.469 32.271H72.6297L71.5651 29.6085C73.7864 27.2824 75.2983 24.2459 76.1373 20.4083ZM52.1808 33.5494L53.7069 29.7324C53.8983 29.2501 54.2304 28.8367 54.6601 28.5458C55.0897 28.2549 55.597 28.1002 56.1159 28.1017H67.1973C68.2655 28.1017 69.2112 28.7411 69.6061 29.7317L71.1324 33.5491C71.2016 33.7222 71.321 33.8705 71.4753 33.975C71.6296 34.0795 71.8117 34.1353 71.9981 34.1353H74.4683C78.3811 34.1353 81.5646 37.3188 81.5646 41.2317V61.0315C81.5646 63.5751 80.2105 65.8747 78.0854 67.134C78.2423 65.6487 78.5117 64.1526 78.7574 62.7914C79.0949 60.9212 79.4135 59.155 79.3881 57.745C79.3305 54.612 77.2757 52.6999 76.3206 51.9793C76.197 48.4455 74.7463 45.158 72.1983 42.677C69.6299 40.1791 66.2441 38.8032 62.6646 38.8032C60.2274 38.8032 57.8744 39.4414 55.7917 40.656C55.3188 39.7266 54.4167 38.5442 52.8156 38.2498C50.65 37.8534 44.0525 37.8327 40.7189 38.8431C40.0173 39.0549 39.2928 39.374 38.5536 39.7902C39.2215 36.5658 42.0833 34.1351 45.5027 34.1351H51.3149C51.5013 34.1353 51.6835 34.0797 51.8378 33.9752C51.9922 33.8708 52.1117 33.7224 52.1808 33.5494ZM74.4692 52.4868C74.4675 52.5093 74.4666 52.5319 74.4664 52.5545C74.4476 55.6749 73.2204 58.6099 71.0106 60.82C68.7808 63.0498 65.8169 64.2779 62.6648 64.2779C59.5114 64.2779 56.5465 63.0498 54.3167 60.82C53.1695 59.6768 52.2713 58.3085 51.6786 56.8014C51.2738 55.7777 51.0158 54.702 50.9123 53.6062C50.8759 53.2291 50.8579 52.8505 50.8584 52.4716C50.8584 51.2594 51.0412 50.0657 51.4026 48.9224C51.9384 47.2308 52.8471 45.6809 54.0616 44.3872C54.1455 44.2989 54.2304 44.2117 54.3165 44.1256C54.7976 43.645 55.3187 43.2062 55.8743 42.814C57.8707 41.4099 60.2191 40.6677 62.6646 40.6677C65.7561 40.6677 68.6803 41.8561 70.8982 44.0132C73.2005 46.2547 74.4685 49.2588 74.4685 52.4714L74.4692 52.4868ZM40.1628 108.615C35.6888 110.557 31.7332 111.332 28.4018 110.914C25.5938 110.561 23.3037 109.172 21.5959 106.786C18.5128 102.477 18.059 96.0686 18.977 91.6288C19.8309 87.5042 23.0167 80.7247 25.8276 74.7429C28.0209 70.0759 29.9151 66.0449 30.2803 64.1239C30.6923 61.9634 30.5478 57.3274 30.3948 52.4193C30.2521 47.8425 30.1046 43.11 30.5005 41.5657C31.0863 39.2808 33.7598 34.7084 37.2567 32.0657C38.0702 31.4497 38.8762 30.9828 39.6512 30.6776C43.0288 29.3534 49.0129 29.86 51.5306 30.1543L50.6842 32.271H45.5033C40.5936 32.271 36.5955 36.2405 36.545 41.1383C35.2478 42.1471 34.3966 43.0728 34.3581 43.1152C34.236 43.2486 34.1554 43.4147 34.1261 43.5931C34.0968 43.7716 34.1201 43.9547 34.1931 44.1201C34.2661 44.2856 34.3856 44.4262 34.5372 44.5248C34.6888 44.6234 34.8658 44.6758 35.0466 44.6756C35.1761 44.6757 35.3042 44.6488 35.4227 44.5967C35.5412 44.5445 35.6475 44.4683 35.7349 44.3727C35.7443 44.3626 36.6751 43.3515 38.0294 42.3517C39.1664 41.5118 40.2532 40.9316 41.2601 40.6276C44.2913 39.7087 50.52 39.7252 52.4809 40.0834C53.4401 40.2598 53.9751 41.1293 54.2332 41.716C53.8008 42.0548 53.3889 42.4191 52.9998 42.8069L52.9434 42.864C51.1408 43.1161 42.5121 44.3686 39.6376 45.6233C36.4039 47.0373 34.1044 49.825 34.008 49.9432C33.9305 50.0379 33.8725 50.147 33.8373 50.2643C33.802 50.3815 33.7901 50.5045 33.8024 50.6263C33.8146 50.748 33.8508 50.8662 33.9087 50.974C33.9666 51.0819 34.0452 51.1772 34.14 51.2547C34.2348 51.3321 34.3439 51.3901 34.4611 51.4254C34.5783 51.4607 34.7013 51.4725 34.8231 51.4603C34.9449 51.448 35.0631 51.4119 35.1709 51.354C35.2787 51.296 35.3741 51.2174 35.4515 51.1226C35.4722 51.0974 37.5728 48.5609 40.3837 47.3316C42.4295 46.4385 48.0341 45.4916 51.2199 45.0029C50.6358 45.8984 50.1584 46.859 49.7973 47.8653C47.8999 48.3636 41.1172 50.1992 38.8918 51.5372C36.2729 53.1115 34.8633 55.3766 34.8046 55.4723C34.6755 55.6826 34.6352 55.9356 34.6925 56.1756C34.7498 56.4156 34.9 56.6231 35.1102 56.7525C35.3205 56.8818 35.5736 56.9226 35.8139 56.8658C36.0542 56.809 36.2622 56.6593 36.3924 56.4494C36.4046 56.4297 37.6377 54.4663 39.8526 53.1349C41.4471 52.1764 46.2797 50.7491 49.2297 49.9466C49.0735 50.779 48.9949 51.6241 48.995 52.471C48.995 52.624 49.0007 52.7745 49.0057 52.9252C46.6367 53.5628 41.7708 54.9946 39.9763 56.4299C37.2635 58.6005 36.9573 61.0434 37.1782 62.7091C37.3147 63.7509 37.8883 64.5757 38.443 65.3734C38.912 66.0479 39.3967 66.7451 39.65 67.6059C39.7271 67.8703 39.7803 68.141 39.809 68.4149C39.8682 68.9712 39.6418 72.3247 36.2688 91.4099C35.2373 97.2396 34.3675 101.95 34.359 101.998C34.3212 102.238 34.3786 102.483 34.5191 102.682C34.6595 102.88 34.8719 103.016 35.1109 103.06C35.3499 103.104 35.5968 103.053 35.7988 102.918C36.0008 102.783 36.1421 102.574 36.1926 102.336C36.2002 102.295 36.8657 98.6907 37.7222 93.8893C40.2715 97.8776 41.0711 102.722 40.1628 108.615ZM48.9624 63.6176C48.9378 63.6749 48.9191 63.7346 48.9064 63.7956C48.7447 64.5777 48.4831 66.3402 48.9055 68.1283H45.5031C43.9843 68.1283 42.5504 67.655 41.3338 66.7669C40.985 65.771 40.4509 64.9978 39.9728 64.31C39.5062 63.6392 39.1035 63.0596 39.0258 62.4663C38.7961 60.7339 39.5078 59.1931 41.1401 57.887C42.3717 56.9018 46.1072 55.654 49.1939 54.8072C49.3154 55.5119 49.4927 56.2059 49.7241 56.8826C49.1466 57.9379 47.8901 60.7489 48.9624 63.6176ZM38.7647 87.9651C41.0261 74.9629 41.5575 70.6839 41.6593 69.1293C42.8484 69.6967 44.1497 69.9926 45.5031 69.9926H49.6465C49.6619 70.0185 49.6796 70.0422 49.6952 70.0679C49.5178 71.0925 49.2409 73.8004 50.734 75.9524C50.9722 76.2949 51.3631 76.6622 51.9245 77.0729C48.111 79.1283 43.266 82.5234 38.7647 87.9651ZM95.0711 110.947C93.6487 111.526 91.3985 111.765 89.0515 111.585C85.3325 111.303 82.1274 110.097 80.2583 108.277C78.2311 106.301 74.4511 98.3691 69.8885 86.5149C68.9942 84.1839 67.1599 82.3006 64.8558 81.3476C62.1426 80.2252 57.1575 78.0851 54.2545 76.3661C52.7782 75.4908 52.3714 75.0404 52.2657 74.8886C51.6143 73.9495 51.4326 72.8118 51.4191 71.8812C54.3259 74.1425 59.529 76.2993 60.2279 76.584C60.4568 76.6772 60.7134 76.6756 60.9413 76.5797C61.1691 76.4838 61.3495 76.3013 61.4429 76.0724C61.4891 75.959 61.5125 75.8377 61.5117 75.7152C61.511 75.5928 61.4862 75.4718 61.4386 75.3589C61.3911 75.2461 61.3218 75.1438 61.2347 75.0578C61.1476 74.9717 61.0444 74.9037 60.931 74.8576C58.7614 73.9736 52.8268 71.2586 51.4418 69.3374C51.2907 69.1258 51.1591 68.901 51.0485 68.6656C50.6147 67.7369 50.5154 66.6965 50.5406 65.8187C53.5582 68.659 59.7167 71.3242 60.5231 71.6663C60.6358 71.7142 60.7568 71.7394 60.8793 71.7405C61.0017 71.7415 61.1231 71.7185 61.2366 71.6726C61.3502 71.6267 61.4535 71.5588 61.5408 71.473C61.6281 71.3871 61.6975 71.2849 61.7453 71.1721C61.7931 71.0594 61.8183 70.9384 61.8193 70.8159C61.8204 70.6935 61.7973 70.5721 61.7514 70.4585C61.7055 70.345 61.6377 70.2417 61.5519 70.1544C61.466 70.0671 61.3638 69.9975 61.2511 69.9497C58.8277 68.9212 52.2418 65.7331 50.8884 63.3648C50.8498 63.2973 50.8153 63.2277 50.7849 63.1562C50.1864 61.7457 50.411 60.2719 50.7595 59.1885C51.3683 60.269 52.1217 61.2613 52.9989 62.138C55.5811 64.7202 59.0142 66.1422 62.6655 66.1422C66.3154 66.1422 69.7476 64.7202 72.3296 62.138C74.4472 60.0204 75.7822 57.3267 76.1933 54.4128C76.8389 55.1706 77.4974 56.3014 77.5247 57.7787C77.5474 59.0045 77.2443 60.683 76.9236 62.4599C76.5815 64.3556 76.1938 66.504 76.1061 68.6016C76.0467 70.0319 76.1302 71.2829 76.3617 72.4271C76.6584 73.8828 77.4735 75.4481 78.9276 77.3533C80.0929 78.8801 81.58 80.5157 83.1543 82.2474C85.6495 84.9918 88.4779 88.1025 90.9325 91.7488C92.2558 93.7113 93.3087 96.0028 94.0621 98.5593C94.9759 101.664 95.1101 104.063 95.1113 104.087C95.1262 104.332 95.2374 104.561 95.4205 104.725C95.6036 104.889 95.844 104.974 96.0893 104.961C96.3346 104.948 96.565 104.84 96.7305 104.658C96.896 104.477 96.9832 104.237 96.973 103.992C96.9682 103.895 96.8528 101.782 96.0858 98.8779C97.4794 98.4202 99.0014 98.1667 100.252 98.1858C100.535 98.9176 100.701 99.547 100.743 100.059C101.092 104.249 98.2819 109.642 95.0711 110.947Z" fill="#DFCAA0"/>
<path d="M102.602 99.9039C102.532 99.07 102.245 98.0639 101.748 96.9145C99.3412 91.3514 92.2024 82.8453 86.7703 79.0687C84.9943 77.8332 82.7948 76.8001 80.2362 75.9916C79.0692 74.427 78.416 73.1704 78.1886 72.0558C78.0202 71.2237 77.9434 70.3124 77.9539 69.2881C79.5778 68.6032 80.9635 67.4545 81.9375 65.9858C82.9116 64.5171 83.4307 62.7936 83.4298 61.0313V59.8644C83.6659 59.5288 83.8897 59.1848 84.1007 58.8329C84.6357 57.9416 85.1434 56.8491 85.6137 55.5813C88.3285 55.5271 90.9669 53.4669 92.0796 50.4208C93.4583 46.6449 92.0991 42.5502 89.0475 41.0894C90.9217 38.2799 95.3799 30.2642 93.0861 20.3792C91.9027 15.2839 88.7231 11.266 83.8908 8.76042C80.8892 7.20377 78.1471 6.68619 77.2241 6.54692C75.7728 5.20272 68.0389 -1.32993 57.7888 1.66659C51.4608 3.51599 46.4382 9.65128 42.0067 15.0643C38.7998 18.982 35.7704 22.6822 32.7436 24.2273C32.5832 24.3092 32.45 24.4358 32.36 24.5918C32.27 24.7478 32.2271 24.9265 32.2365 25.1064C32.2459 25.2862 32.3072 25.4595 32.413 25.6052C32.5188 25.751 32.6646 25.8629 32.8326 25.9276C34.3418 26.5083 35.8682 26.718 37.3955 26.5583C36.72 27.7568 36.2119 29.1627 35.8549 30.7933C32.3463 33.57 29.4245 38.2526 28.6943 41.102C28.2324 42.9028 28.3774 47.5535 28.5309 52.4769C28.6741 57.068 28.8223 61.8152 28.4483 63.775C28.1269 65.4651 26.1903 69.5865 24.14 73.9498C21.2852 80.0249 18.0496 86.9107 17.151 91.2512C16.1507 96.0888 16.6685 103.103 20.0791 107.87C22.0735 110.658 24.8714 112.35 28.1689 112.764C28.8301 112.847 29.5108 112.888 30.2112 112.888C33.5255 112.888 37.2732 111.96 41.3838 110.116C44.1901 108.858 46.5183 107.459 47.9355 106.539V117.422C47.9355 117.67 48.0337 117.907 48.2085 118.082C48.3833 118.256 48.6204 118.355 48.8676 118.355H88.9801C89.2273 118.355 89.4644 118.256 89.6392 118.082C89.814 117.907 89.9122 117.67 89.9122 117.422V113.496C90.138 113.503 90.3633 113.509 90.5852 113.509C92.6009 113.509 94.4342 113.219 95.7727 112.674C99.7672 111.051 103.022 104.964 102.602 99.9039ZM90.3284 49.7816C89.5775 51.8371 87.9736 53.31 86.2609 53.6486C87.1777 50.6204 87.9066 46.8645 88.3586 42.834C90.4746 43.9343 91.3613 46.9528 90.3284 49.7816ZM76.1373 20.4083C77.3274 23.5407 79.0754 26.2481 80.783 28.8927C83.2036 32.6417 85.7041 36.5193 86.6131 41.6157C86.1295 46.4901 85.234 50.9971 84.0865 54.3185C83.8885 54.8955 83.6694 55.465 83.4296 56.0259V41.2317C83.4296 36.2908 79.4099 32.271 74.469 32.271H72.6297L71.5651 29.6085C73.7864 27.2824 75.2983 24.2459 76.1373 20.4083ZM52.1808 33.5494L53.7069 29.7324C53.8983 29.2501 54.2304 28.8367 54.6601 28.5458C55.0897 28.2549 55.597 28.1002 56.1159 28.1017H67.1973C68.2655 28.1017 69.2112 28.7411 69.6061 29.7317L71.1324 33.5491C71.2016 33.7222 71.321 33.8705 71.4753 33.975C71.6296 34.0795 71.8117 34.1353 71.9981 34.1353H74.4683C78.3811 34.1353 81.5646 37.3188 81.5646 41.2317V61.0315C81.5646 63.5751 80.2105 65.8747 78.0854 67.134C78.2423 65.6487 78.5117 64.1526 78.7574 62.7914C79.0949 60.9212 79.4135 59.155 79.3881 57.745C79.3305 54.612 77.2757 52.6999 76.3206 51.9793C76.197 48.4455 74.7463 45.158 72.1983 42.677C69.6299 40.1791 66.2441 38.8032 62.6646 38.8032C60.2274 38.8032 57.8744 39.4414 55.7917 40.656C55.3188 39.7266 54.4167 38.5442 52.8156 38.2498C50.65 37.8534 44.0525 37.8327 40.7189 38.8431C40.0173 39.0549 39.2928 39.374 38.5536 39.7902C39.2215 36.5658 42.0833 34.1351 45.5027 34.1351H51.3149C51.5013 34.1353 51.6835 34.0797 51.8378 33.9752C51.9922 33.8708 52.1117 33.7224 52.1808 33.5494ZM74.4692 52.4868C74.4675 52.5093 74.4666 52.5319 74.4664 52.5545C74.4476 55.6749 73.2204 58.6099 71.0106 60.82C68.7808 63.0498 65.8169 64.2779 62.6648 64.2779C59.5114 64.2779 56.5465 63.0498 54.3167 60.82C53.1695 59.6768 52.2713 58.3085 51.6786 56.8014C51.2738 55.7777 51.0158 54.702 50.9123 53.6062C50.8759 53.2291 50.8579 52.8505 50.8584 52.4716C50.8584 51.2594 51.0412 50.0657 51.4026 48.9224C51.9384 47.2308 52.8471 45.6809 54.0616 44.3872C54.1455 44.2989 54.2304 44.2117 54.3165 44.1256C54.7976 43.645 55.3187 43.2062 55.8743 42.814C57.8707 41.4099 60.2191 40.6677 62.6646 40.6677C65.7561 40.6677 68.6803 41.8561 70.8982 44.0132C73.2005 46.2547 74.4685 49.2588 74.4685 52.4714L74.4692 52.4868ZM40.1628 108.615C35.6888 110.557 31.7332 111.332 28.4018 110.914C25.5938 110.561 23.3037 109.172 21.5959 106.786C18.5128 102.477 18.059 96.0686 18.977 91.6288C19.8309 87.5042 23.0167 80.7247 25.8276 74.7429C28.0209 70.0759 29.9151 66.0449 30.2803 64.1239C30.6923 61.9634 30.5478 57.3274 30.3948 52.4193C30.2521 47.8425 30.1046 43.11 30.5005 41.5657C31.0863 39.2808 33.7598 34.7084 37.2567 32.0657C38.0702 31.4497 38.8762 30.9828 39.6512 30.6776C43.0288 29.3534 49.0129 29.86 51.5306 30.1543L50.6842 32.271H45.5033C40.5936 32.271 36.5955 36.2405 36.545 41.1383C35.2478 42.1471 34.3966 43.0728 34.3581 43.1152C34.236 43.2486 34.1554 43.4147 34.1261 43.5931C34.0968 43.7716 34.1201 43.9547 34.1931 44.1201C34.2661 44.2856 34.3856 44.4262 34.5372 44.5248C34.6888 44.6234 34.8658 44.6758 35.0466 44.6756C35.1761 44.6757 35.3042 44.6488 35.4227 44.5967C35.5412 44.5445 35.6475 44.4683 35.7349 44.3727C35.7443 44.3626 36.6751 43.3515 38.0294 42.3517C39.1664 41.5118 40.2532 40.9316 41.2601 40.6276C44.2913 39.7087 50.52 39.7252 52.4809 40.0834C53.4401 40.2598 53.9751 41.1293 54.2332 41.716C53.8008 42.0548 53.3889 42.4191 52.9998 42.8069L52.9434 42.864C51.1408 43.1161 42.5121 44.3686 39.6376 45.6233C36.4039 47.0373 34.1044 49.825 34.008 49.9432C33.9305 50.0379 33.8725 50.147 33.8373 50.2643C33.802 50.3815 33.7901 50.5045 33.8024 50.6263C33.8146 50.748 33.8508 50.8662 33.9087 50.974C33.9666 51.0819 34.0452 51.1772 34.14 51.2547C34.2348 51.3321 34.3439 51.3901 34.4611 51.4254C34.5783 51.4607 34.7013 51.4725 34.8231 51.4603C34.9449 51.448 35.0631 51.4119 35.1709 51.354C35.2787 51.296 35.3741 51.2174 35.4515 51.1226C35.4722 51.0974 37.5728 48.5609 40.3837 47.3316C42.4295 46.4385 48.0341 45.4916 51.2199 45.0029C50.6358 45.8984 50.1584 46.859 49.7973 47.8653C47.8999 48.3636 41.1172 50.1992 38.8918 51.5372C36.2729 53.1115 34.8633 55.3766 34.8046 55.4723C34.6755 55.6826 34.6352 55.9356 34.6925 56.1756C34.7498 56.4156 34.9 56.6231 35.1102 56.7525C35.3205 56.8818 35.5736 56.9226 35.8139 56.8658C36.0542 56.809 36.2622 56.6593 36.3924 56.4494C36.4046 56.4297 37.6377 54.4663 39.8526 53.1349C41.4471 52.1764 46.2797 50.7491 49.2297 49.9466C49.0735 50.779 48.9949 51.6241 48.995 52.471C48.995 52.624 49.0007 52.7745 49.0057 52.9252C46.6367 53.5628 41.7708 54.9946 39.9763 56.4299C37.2635 58.6005 36.9573 61.0434 37.1782 62.7091C37.3147 63.7509 37.8883 64.5757 38.443 65.3734C38.912 66.0479 39.3967 66.7451 39.65 67.6059C39.7271 67.8703 39.7803 68.141 39.809 68.4149C39.8682 68.9712 39.6418 72.3247 36.2688 91.4099C35.2373 97.2396 34.3675 101.95 34.359 101.998C34.3212 102.238 34.3786 102.483 34.5191 102.682C34.6595 102.88 34.8719 103.016 35.1109 103.06C35.3499 103.104 35.5968 103.053 35.7988 102.918C36.0008 102.783 36.1421 102.574 36.1926 102.336C36.2002 102.295 36.8657 98.6907 37.7222 93.8893C40.2715 97.8776 41.0711 102.722 40.1628 108.615ZM48.9624 63.6176C48.9378 63.6749 48.9191 63.7346 48.9064 63.7956C48.7447 64.5777 48.4831 66.3402 48.9055 68.1283H45.5031C43.9843 68.1283 42.5504 67.655 41.3338 66.7669C40.985 65.771 40.4509 64.9978 39.9728 64.31C39.5062 63.6392 39.1035 63.0596 39.0258 62.4663C38.7961 60.7339 39.5078 59.1931 41.1401 57.887C42.3717 56.9018 46.1072 55.654 49.1939 54.8072C49.3154 55.5119 49.4927 56.2059 49.7241 56.8826C49.1466 57.9379 47.8901 60.7489 48.9624 63.6176ZM38.7647 87.9651C41.0261 74.9629 41.5575 70.6839 41.6593 69.1293C42.8484 69.6967 44.1497 69.9926 45.5031 69.9926H49.6465C49.6619 70.0185 49.6796 70.0422 49.6952 70.0679C49.5178 71.0925 49.2409 73.8004 50.734 75.9524C50.9722 76.2949 51.3631 76.6622 51.9245 77.0729C48.111 79.1283 43.266 82.5234 38.7647 87.9651ZM95.0711 110.947C93.6487 111.526 91.3985 111.765 89.0515 111.585C85.3325 111.303 82.1274 110.097 80.2583 108.277C78.2311 106.301 74.4511 98.3691 69.8885 86.5149C68.9942 84.1839 67.1599 82.3006 64.8558 81.3476C62.1426 80.2252 57.1575 78.0851 54.2545 76.3661C52.7782 75.4908 52.3714 75.0404 52.2657 74.8886C51.6143 73.9495 51.4326 72.8118 51.4191 71.8812C54.3259 74.1425 59.529 76.2993 60.2279 76.584C60.4568 76.6772 60.7134 76.6756 60.9413 76.5797C61.1691 76.4838 61.3495 76.3013 61.4429 76.0724C61.4891 75.959 61.5125 75.8377 61.5117 75.7152C61.511 75.5928 61.4862 75.4718 61.4386 75.3589C61.3911 75.2461 61.3218 75.1438 61.2347 75.0578C61.1476 74.9717 61.0444 74.9037 60.931 74.8576C58.7614 73.9736 52.8268 71.2586 51.4418 69.3374C51.2907 69.1258 51.1591 68.901 51.0485 68.6656C50.6147 67.7369 50.5154 66.6965 50.5406 65.8187C53.5582 68.659 59.7167 71.3242 60.5231 71.6663C60.6358 71.7142 60.7568 71.7394 60.8793 71.7405C61.0017 71.7415 61.1231 71.7185 61.2366 71.6726C61.3502 71.6267 61.4535 71.5588 61.5408 71.473C61.6281 71.3871 61.6975 71.2849 61.7453 71.1721C61.7931 71.0594 61.8183 70.9384 61.8193 70.8159C61.8204 70.6935 61.7973 70.5721 61.7514 70.4585C61.7055 70.345 61.6377 70.2417 61.5519 70.1544C61.466 70.0671 61.3638 69.9975 61.2511 69.9497C58.8277 68.9212 52.2418 65.7331 50.8884 63.3648C50.8498 63.2973 50.8153 63.2277 50.7849 63.1562C50.1864 61.7457 50.411 60.2719 50.7595 59.1885C51.3683 60.269 52.1217 61.2613 52.9989 62.138C55.5811 64.7202 59.0142 66.1422 62.6655 66.1422C66.3154 66.1422 69.7476 64.7202 72.3296 62.138C74.4472 60.0204 75.7822 57.3267 76.1933 54.4128C76.8389 55.1706 77.4974 56.3014 77.5247 57.7787C77.5474 59.0045 77.2443 60.683 76.9236 62.4599C76.5815 64.3556 76.1938 66.504 76.1061 68.6016C76.0467 70.0319 76.1302 71.2829 76.3617 72.4271C76.6584 73.8828 77.4735 75.4481 78.9276 77.3533C80.0929 78.8801 81.58 80.5157 83.1543 82.2474C85.6495 84.9918 88.4779 88.1025 90.9325 91.7488C92.2558 93.7113 93.3087 96.0028 94.0621 98.5593C94.9759 101.664 95.1101 104.063 95.1113 104.087C95.1262 104.332 95.2374 104.561 95.4205 104.725C95.6036 104.889 95.844 104.974 96.0893 104.961C96.3346 104.948 96.565 104.84 96.7305 104.658C96.896 104.477 96.9832 104.237 96.973 103.992C96.9682 103.895 96.8528 101.782 96.0858 98.8779C97.4794 98.4202 99.0014 98.1667 100.252 98.1858C100.535 98.9176 100.701 99.547 100.743 100.059C101.092 104.249 98.2819 109.642 95.0711 110.947Z" fill="black" fill-opacity="0.2"/>
<path d="M102.602 99.9039C102.532 99.07 102.245 98.0639 101.748 96.9145C99.3412 91.3514 92.2024 82.8453 86.7703 79.0687C84.9943 77.8332 82.7948 76.8001 80.2362 75.9916C79.0692 74.427 78.416 73.1704 78.1886 72.0558C78.0202 71.2237 77.9434 70.3124 77.9539 69.2881C79.5778 68.6032 80.9635 67.4545 81.9375 65.9858C82.9116 64.5171 83.4307 62.7936 83.4298 61.0313V59.8644C83.6659 59.5288 83.8897 59.1848 84.1007 58.8329C84.6357 57.9416 85.1434 56.8491 85.6137 55.5813C88.3285 55.5271 90.9669 53.4669 92.0796 50.4208C93.4583 46.6449 92.0991 42.5502 89.0475 41.0894C90.9217 38.2799 95.3799 30.2642 93.0861 20.3792C91.9027 15.2839 88.7231 11.266 83.8908 8.76042C80.8892 7.20377 78.1471 6.68619 77.2241 6.54692C75.7728 5.20272 68.0389 -1.32993 57.7888 1.66659C51.4608 3.51599 46.4382 9.65128 42.0067 15.0643C38.7998 18.982 35.7704 22.6822 32.7436 24.2273C32.5832 24.3092 32.45 24.4358 32.36 24.5918C32.27 24.7478 32.2271 24.9265 32.2365 25.1064C32.2459 25.2862 32.3072 25.4595 32.413 25.6052C32.5188 25.751 32.6646 25.8629 32.8326 25.9276C34.3418 26.5083 35.8682 26.718 37.3955 26.5583C36.72 27.7568 36.2119 29.1627 35.8549 30.7933C32.3463 33.57 29.4245 38.2526 28.6943 41.102C28.2324 42.9028 28.3774 47.5535 28.5309 52.4769C28.6741 57.068 28.8223 61.8152 28.4483 63.775C28.1269 65.4651 26.1903 69.5865 24.14 73.9498C21.2852 80.0249 18.0496 86.9107 17.151 91.2512C16.1507 96.0888 16.6685 103.103 20.0791 107.87C22.0735 110.658 24.8714 112.35 28.1689 112.764C28.8301 112.847 29.5108 112.888 30.2112 112.888C33.5255 112.888 37.2732 111.96 41.3838 110.116C44.1901 108.858 46.5183 107.459 47.9355 106.539V117.422C47.9355 117.67 48.0337 117.907 48.2085 118.082C48.3833 118.256 48.6204 118.355 48.8676 118.355H88.9801C89.2273 118.355 89.4644 118.256 89.6392 118.082C89.814 117.907 89.9122 117.67 89.9122 117.422V113.496C90.138 113.503 90.3633 113.509 90.5852 113.509C92.6009 113.509 94.4342 113.219 95.7727 112.674C99.7672 111.051 103.022 104.964 102.602 99.9039ZM90.3284 49.7816C89.5775 51.8371 87.9736 53.31 86.2609 53.6486C87.1777 50.6204 87.9066 46.8645 88.3586 42.834C90.4746 43.9343 91.3613 46.9528 90.3284 49.7816ZM76.1373 20.4083C77.3274 23.5407 79.0754 26.2481 80.783 28.8927C83.2036 32.6417 85.7041 36.5193 86.6131 41.6157C86.1295 46.4901 85.234 50.9971 84.0865 54.3185C83.8885 54.8955 83.6694 55.465 83.4296 56.0259V41.2317C83.4296 36.2908 79.4099 32.271 74.469 32.271H72.6297L71.5651 29.6085C73.7864 27.2824 75.2983 24.2459 76.1373 20.4083ZM52.1808 33.5494L53.7069 29.7324C53.8983 29.2501 54.2304 28.8367 54.6601 28.5458C55.0897 28.2549 55.597 28.1002 56.1159 28.1017H67.1973C68.2655 28.1017 69.2112 28.7411 69.6061 29.7317L71.1324 33.5491C71.2016 33.7222 71.321 33.8705 71.4753 33.975C71.6296 34.0795 71.8117 34.1353 71.9981 34.1353H74.4683C78.3811 34.1353 81.5646 37.3188 81.5646 41.2317V61.0315C81.5646 63.5751 80.2105 65.8747 78.0854 67.134C78.2423 65.6487 78.5117 64.1526 78.7574 62.7914C79.0949 60.9212 79.4135 59.155 79.3881 57.745C79.3305 54.612 77.2757 52.6999 76.3206 51.9793C76.197 48.4455 74.7463 45.158 72.1983 42.677C69.6299 40.1791 66.2441 38.8032 62.6646 38.8032C60.2274 38.8032 57.8744 39.4414 55.7917 40.656C55.3188 39.7266 54.4167 38.5442 52.8156 38.2498C50.65 37.8534 44.0525 37.8327 40.7189 38.8431C40.0173 39.0549 39.2928 39.374 38.5536 39.7902C39.2215 36.5658 42.0833 34.1351 45.5027 34.1351H51.3149C51.5013 34.1353 51.6835 34.0797 51.8378 33.9752C51.9922 33.8708 52.1117 33.7224 52.1808 33.5494ZM74.4692 52.4868C74.4675 52.5093 74.4666 52.5319 74.4664 52.5545C74.4476 55.6749 73.2204 58.6099 71.0106 60.82C68.7808 63.0498 65.8169 64.2779 62.6648 64.2779C59.5114 64.2779 56.5465 63.0498 54.3167 60.82C53.1695 59.6768 52.2713 58.3085 51.6786 56.8014C51.2738 55.7777 51.0158 54.702 50.9123 53.6062C50.8759 53.2291 50.8579 52.8505 50.8584 52.4716C50.8584 51.2594 51.0412 50.0657 51.4026 48.9224C51.9384 47.2308 52.8471 45.6809 54.0616 44.3872C54.1455 44.2989 54.2304 44.2117 54.3165 44.1256C54.7976 43.645 55.3187 43.2062 55.8743 42.814C57.8707 41.4099 60.2191 40.6677 62.6646 40.6677C65.7561 40.6677 68.6803 41.8561 70.8982 44.0132C73.2005 46.2547 74.4685 49.2588 74.4685 52.4714L74.4692 52.4868ZM40.1628 108.615C35.6888 110.557 31.7332 111.332 28.4018 110.914C25.5938 110.561 23.3037 109.172 21.5959 106.786C18.5128 102.477 18.059 96.0686 18.977 91.6288C19.8309 87.5042 23.0167 80.7247 25.8276 74.7429C28.0209 70.0759 29.9151 66.0449 30.2803 64.1239C30.6923 61.9634 30.5478 57.3274 30.3948 52.4193C30.2521 47.8425 30.1046 43.11 30.5005 41.5657C31.0863 39.2808 33.7598 34.7084 37.2567 32.0657C38.0702 31.4497 38.8762 30.9828 39.6512 30.6776C43.0288 29.3534 49.0129 29.86 51.5306 30.1543L50.6842 32.271H45.5033C40.5936 32.271 36.5955 36.2405 36.545 41.1383C35.2478 42.1471 34.3966 43.0728 34.3581 43.1152C34.236 43.2486 34.1554 43.4147 34.1261 43.5931C34.0968 43.7716 34.1201 43.9547 34.1931 44.1201C34.2661 44.2856 34.3856 44.4262 34.5372 44.5248C34.6888 44.6234 34.8658 44.6758 35.0466 44.6756C35.1761 44.6757 35.3042 44.6488 35.4227 44.5967C35.5412 44.5445 35.6475 44.4683 35.7349 44.3727C35.7443 44.3626 36.6751 43.3515 38.0294 42.3517C39.1664 41.5118 40.2532 40.9316 41.2601 40.6276C44.2913 39.7087 50.52 39.7252 52.4809 40.0834C53.4401 40.2598 53.9751 41.1293 54.2332 41.716C53.8008 42.0548 53.3889 42.4191 52.9998 42.8069L52.9434 42.864C51.1408 43.1161 42.5121 44.3686 39.6376 45.6233C36.4039 47.0373 34.1044 49.825 34.008 49.9432C33.9305 50.0379 33.8725 50.147 33.8373 50.2643C33.802 50.3815 33.7901 50.5045 33.8024 50.6263C33.8146 50.748 33.8508 50.8662 33.9087 50.974C33.9666 51.0819 34.0452 51.1772 34.14 51.2547C34.2348 51.3321 34.3439 51.3901 34.4611 51.4254C34.5783 51.4607 34.7013 51.4725 34.8231 51.4603C34.9449 51.448 35.0631 51.4119 35.1709 51.354C35.2787 51.296 35.3741 51.2174 35.4515 51.1226C35.4722 51.0974 37.5728 48.5609 40.3837 47.3316C42.4295 46.4385 48.0341 45.4916 51.2199 45.0029C50.6358 45.8984 50.1584 46.859 49.7973 47.8653C47.8999 48.3636 41.1172 50.1992 38.8918 51.5372C36.2729 53.1115 34.8633 55.3766 34.8046 55.4723C34.6755 55.6826 34.6352 55.9356 34.6925 56.1756C34.7498 56.4156 34.9 56.6231 35.1102 56.7525C35.3205 56.8818 35.5736 56.9226 35.8139 56.8658C36.0542 56.809 36.2622 56.6593 36.3924 56.4494C36.4046 56.4297 37.6377 54.4663 39.8526 53.1349C41.4471 52.1764 46.2797 50.7491 49.2297 49.9466C49.0735 50.779 48.9949 51.6241 48.995 52.471C48.995 52.624 49.0007 52.7745 49.0057 52.9252C46.6367 53.5628 41.7708 54.9946 39.9763 56.4299C37.2635 58.6005 36.9573 61.0434 37.1782 62.7091C37.3147 63.7509 37.8883 64.5757 38.443 65.3734C38.912 66.0479 39.3967 66.7451 39.65 67.6059C39.7271 67.8703 39.7803 68.141 39.809 68.4149C39.8682 68.9712 39.6418 72.3247 36.2688 91.4099C35.2373 97.2396 34.3675 101.95 34.359 101.998C34.3212 102.238 34.3786 102.483 34.5191 102.682C34.6595 102.88 34.8719 103.016 35.1109 103.06C35.3499 103.104 35.5968 103.053 35.7988 102.918C36.0008 102.783 36.1421 102.574 36.1926 102.336C36.2002 102.295 36.8657 98.6907 37.7222 93.8893C40.2715 97.8776 41.0711 102.722 40.1628 108.615ZM48.9624 63.6176C48.9378 63.6749 48.9191 63.7346 48.9064 63.7956C48.7447 64.5777 48.4831 66.3402 48.9055 68.1283H45.5031C43.9843 68.1283 42.5504 67.655 41.3338 66.7669C40.985 65.771 40.4509 64.9978 39.9728 64.31C39.5062 63.6392 39.1035 63.0596 39.0258 62.4663C38.7961 60.7339 39.5078 59.1931 41.1401 57.887C42.3717 56.9018 46.1072 55.654 49.1939 54.8072C49.3154 55.5119 49.4927 56.2059 49.7241 56.8826C49.1466 57.9379 47.8901 60.7489 48.9624 63.6176ZM38.7647 87.9651C41.0261 74.9629 41.5575 70.6839 41.6593 69.1293C42.8484 69.6967 44.1497 69.9926 45.5031 69.9926H49.6465C49.6619 70.0185 49.6796 70.0422 49.6952 70.0679C49.5178 71.0925 49.2409 73.8004 50.734 75.9524C50.9722 76.2949 51.3631 76.6622 51.9245 77.0729C48.111 79.1283 43.266 82.5234 38.7647 87.9651ZM95.0711 110.947C93.6487 111.526 91.3985 111.765 89.0515 111.585C85.3325 111.303 82.1274 110.097 80.2583 108.277C78.2311 106.301 74.4511 98.3691 69.8885 86.5149C68.9942 84.1839 67.1599 82.3006 64.8558 81.3476C62.1426 80.2252 57.1575 78.0851 54.2545 76.3661C52.7782 75.4908 52.3714 75.0404 52.2657 74.8886C51.6143 73.9495 51.4326 72.8118 51.4191 71.8812C54.3259 74.1425 59.529 76.2993 60.2279 76.584C60.4568 76.6772 60.7134 76.6756 60.9413 76.5797C61.1691 76.4838 61.3495 76.3013 61.4429 76.0724C61.4891 75.959 61.5125 75.8377 61.5117 75.7152C61.511 75.5928 61.4862 75.4718 61.4386 75.3589C61.3911 75.2461 61.3218 75.1438 61.2347 75.0578C61.1476 74.9717 61.0444 74.9037 60.931 74.8576C58.7614 73.9736 52.8268 71.2586 51.4418 69.3374C51.2907 69.1258 51.1591 68.901 51.0485 68.6656C50.6147 67.7369 50.5154 66.6965 50.5406 65.8187C53.5582 68.659 59.7167 71.3242 60.5231 71.6663C60.6358 71.7142 60.7568 71.7394 60.8793 71.7405C61.0017 71.7415 61.1231 71.7185 61.2366 71.6726C61.3502 71.6267 61.4535 71.5588 61.5408 71.473C61.6281 71.3871 61.6975 71.2849 61.7453 71.1721C61.7931 71.0594 61.8183 70.9384 61.8193 70.8159C61.8204 70.6935 61.7973 70.5721 61.7514 70.4585C61.7055 70.345 61.6377 70.2417 61.5519 70.1544C61.466 70.0671 61.3638 69.9975 61.2511 69.9497C58.8277 68.9212 52.2418 65.7331 50.8884 63.3648C50.8498 63.2973 50.8153 63.2277 50.7849 63.1562C50.1864 61.7457 50.411 60.2719 50.7595 59.1885C51.3683 60.269 52.1217 61.2613 52.9989 62.138C55.5811 64.7202 59.0142 66.1422 62.6655 66.1422C66.3154 66.1422 69.7476 64.7202 72.3296 62.138C74.4472 60.0204 75.7822 57.3267 76.1933 54.4128C76.8389 55.1706 77.4974 56.3014 77.5247 57.7787C77.5474 59.0045 77.2443 60.683 76.9236 62.4599C76.5815 64.3556 76.1938 66.504 76.1061 68.6016C76.0467 70.0319 76.1302 71.2829 76.3617 72.4271C76.6584 73.8828 77.4735 75.4481 78.9276 77.3533C80.0929 78.8801 81.58 80.5157 83.1543 82.2474C85.6495 84.9918 88.4779 88.1025 90.9325 91.7488C92.2558 93.7113 93.3087 96.0028 94.0621 98.5593C94.9759 101.664 95.1101 104.063 95.1113 104.087C95.1262 104.332 95.2374 104.561 95.4205 104.725C95.6036 104.889 95.844 104.974 96.0893 104.961C96.3346 104.948 96.565 104.84 96.7305 104.658C96.896 104.477 96.9832 104.237 96.973 103.992C96.9682 103.895 96.8528 101.782 96.0858 98.8779C97.4794 98.4202 99.0014 98.1667 100.252 98.1858C100.535 98.9176 100.701 99.547 100.743 100.059C101.092 104.249 98.2819 109.642 95.0711 110.947Z" fill="black" fill-opacity="0.2"/>
</g>
<defs>
<clipPath id="clip0_114685_16415">
<rect width="117.465" height="117.465" fill="white" transform="translate(0.935547 0.890625)"/>
</clipPath>
</defs>
</svg>
