<svg width="189" height="189" viewBox="0 0 189 189" fill="none" xmlns="http://www.w3.org/2000/svg">
<path d="M94.5 78.75C111.897 78.75 126 64.647 126 47.25C126 29.853 111.897 15.75 94.5 15.75C77.103 15.75 63 29.853 63 47.25C63 64.647 77.103 78.75 94.5 78.75Z" fill="#9CA3AF"/>
<path d="M157.5 137.812C157.5 157.382 157.5 173.25 94.5 173.25C31.5 173.25 31.5 157.382 31.5 137.812C31.5 118.243 59.7082 102.375 94.5 102.375C129.292 102.375 157.5 118.243 157.5 137.812Z" fill="#9CA3AF"/>
<path d="M69.4943 128.545H73.6278L77.608 136.062H77.7784L81.7585 128.545H85.892L79.5256 139.83V146H75.8608V139.83L69.4943 128.545ZM91.1321 146.256C89.8082 146.256 88.6633 145.974 87.6974 145.412C86.7372 144.844 85.9957 144.054 85.473 143.043C84.9503 142.026 84.6889 140.847 84.6889 139.506C84.6889 138.153 84.9503 136.972 85.473 135.96C85.9957 134.943 86.7372 134.153 87.6974 133.591C88.6633 133.023 89.8082 132.739 91.1321 132.739C92.4559 132.739 93.598 133.023 94.5582 133.591C95.5241 134.153 96.2684 134.943 96.7912 135.96C97.3139 136.972 97.5753 138.153 97.5753 139.506C97.5753 140.847 97.3139 142.026 96.7912 143.043C96.2684 144.054 95.5241 144.844 94.5582 145.412C93.598 145.974 92.4559 146.256 91.1321 146.256ZM91.1491 143.443C91.7514 143.443 92.2542 143.273 92.6576 142.932C93.0611 142.585 93.365 142.114 93.5696 141.517C93.7798 140.92 93.8849 140.241 93.8849 139.48C93.8849 138.719 93.7798 138.04 93.5696 137.443C93.365 136.847 93.0611 136.375 92.6576 136.028C92.2542 135.682 91.7514 135.509 91.1491 135.509C90.5412 135.509 90.0298 135.682 89.615 136.028C89.2059 136.375 88.8963 136.847 88.6861 137.443C88.4815 138.04 88.3792 138.719 88.3792 139.48C88.3792 140.241 88.4815 140.92 88.6861 141.517C88.8963 142.114 89.2059 142.585 89.615 142.932C90.0298 143.273 90.5412 143.443 91.1491 143.443ZM108.451 140.426V132.909H112.082V146H108.596V143.622H108.459C108.164 144.389 107.673 145.006 106.985 145.472C106.303 145.937 105.471 146.17 104.488 146.17C103.613 146.17 102.843 145.972 102.178 145.574C101.513 145.176 100.994 144.611 100.619 143.878C100.249 143.145 100.062 142.267 100.056 141.244V132.909H103.687V140.597C103.692 141.369 103.9 141.98 104.309 142.429C104.718 142.878 105.266 143.102 105.954 143.102C106.391 143.102 106.8 143.003 107.181 142.804C107.562 142.599 107.869 142.298 108.102 141.901C108.34 141.503 108.457 141.011 108.451 140.426Z" fill="white"/>
</svg>
