<svg width="32" height="32" viewBox="0 0 32 32" fill="none" xmlns="http://www.w3.org/2000/svg">
<path fill-rule="evenodd" clip-rule="evenodd" d="M13.1946 10.6437C13.0249 10.8895 12.7412 11.0507 12.4202 11.0507C11.9013 11.0507 11.4799 10.6294 11.4799 10.1104C11.4799 9.59146 11.9013 9.17006 12.4202 9.17006C12.7412 9.17006 13.0249 9.33126 13.1946 9.57706H15.7555V9.32126L16.7219 8.94933C16.8451 8.43394 17.0495 7.94142 17.3274 7.4902L16.9062 6.54286L17.0869 6.36226L15.2757 4.5512C14.9819 4.605 14.6674 4.5184 14.4404 4.2914C14.0734 3.9244 14.0734 3.32853 14.4404 2.9616C14.8074 2.5946 15.4033 2.5946 15.7702 2.9616C15.9972 3.1886 16.0838 3.50313 16.03 3.79693L17.8411 5.608L18.022 5.42706L18.9693 5.84826C19.4199 5.57051 19.9119 5.36662 20.4269 5.24433L20.8004 4.27633H21.0555V1.71467C20.8097 1.545 20.6485 1.26133 20.6485 0.940333C20.6485 0.421333 21.0698 0 21.5888 0C22.1077 0 22.5291 0.421333 22.5291 0.940333C22.5291 1.26133 22.3679 1.545 22.1221 1.71467V4.27633H22.3787L22.7507 5.24433C23.2656 5.36662 23.7577 5.57051 24.2082 5.84826L25.1555 5.42706L25.3361 5.60773L27.148 3.79587C27.0942 3.50207 27.1808 3.18747 27.4078 2.96053C27.7747 2.59353 28.3707 2.59353 28.7376 2.96053C29.1046 3.32747 29.1046 3.92333 28.7376 4.29033C28.5106 4.51733 28.1961 4.60386 27.9023 4.55007L26.0904 6.36193L26.2713 6.54286L25.8517 7.4902C26.1298 7.94117 26.3337 8.4338 26.4557 8.94933L27.4221 9.32126V9.57553H29.9845C30.1542 9.32973 30.4379 9.16853 30.7589 9.16853C31.2779 9.16853 31.6992 9.58993 31.6992 10.1089C31.6992 10.6279 31.2779 11.0492 30.7589 11.0492C30.4379 11.0492 30.1542 10.888 29.9845 10.6422H27.4221V10.8996L26.4557 11.2715C26.3333 11.7865 26.1283 12.2777 25.8517 12.7291L26.2713 13.6764L26.0915 13.8563L27.9033 15.6681C28.1971 15.6143 28.5117 15.7009 28.7387 15.9279C29.1057 16.2949 29.1057 16.8907 28.7387 17.2577C28.3717 17.6247 27.7759 17.6247 27.4089 17.2577C27.1819 17.0307 27.0953 16.7162 27.1491 16.4224L25.3373 14.6105L25.1555 14.7922L24.2082 14.3726C23.7578 14.6506 23.2657 14.8545 22.7507 14.9766L22.3787 15.943H22.1237V18.5046C22.3695 18.6743 22.5307 18.958 22.5307 19.279C22.5307 19.7979 22.1093 20.2193 21.5903 20.2193C21.0713 20.2193 20.65 19.7979 20.65 19.279C20.65 18.958 20.8112 18.6743 21.057 18.5046V15.943H20.8004L20.4285 14.9766C19.9119 14.8542 19.4207 14.6491 18.9693 14.3726L18.022 14.7922L17.8422 14.6123L16.0311 16.4235C16.0849 16.7173 15.9983 17.0318 15.7713 17.2588C15.4043 17.6258 14.8085 17.6258 14.4415 17.2588C14.0745 16.8918 14.0745 16.2959 14.4415 15.929C14.6685 15.702 14.983 15.6154 15.2768 15.6692L17.0879 13.8581L16.9062 13.6764L17.3274 12.7291C17.0493 12.2793 16.8458 11.7865 16.7219 11.2715L15.7555 10.8996V10.6437H13.1946ZM21.5888 7.35666C20.0677 7.35666 18.8358 8.58853 18.8358 10.1097C18.8358 11.6308 20.0677 12.8642 21.5888 12.8642C23.1099 12.8642 24.3433 11.6308 24.3433 10.1097C24.3433 8.58853 23.1099 7.35666 21.5888 7.35666ZM8.18808 27.3649L5.21368 22.1091L9.23094 19.7833C10.2697 19.1826 11.3154 18.7145 12.4563 19.0849L12.4565 19.085C13.9017 19.5537 16.2588 20.5534 18.6663 20.9945C19.2659 21.2046 19.6504 21.8034 19.4847 22.4193L19.4847 22.4195C19.3217 23.0266 18.805 23.3243 18.0957 23.2446C16.7697 22.9708 15.5386 22.5683 14.1729 22.2013C13.8886 22.1249 13.5958 22.2937 13.5194 22.578C13.443 22.8623 13.6118 23.1551 13.8961 23.2315C15.2907 23.6063 16.5475 24.0157 17.9027 24.2939L17.9035 24.2941C17.9106 24.2955 17.9178 24.2969 17.925 24.2981L18.6709 24.4194L18.6727 24.4197C19.7585 24.5925 20.7547 24.4398 21.7053 23.8859L27.7155 20.3855C28.9548 19.6635 29.8665 19.4532 30.5131 19.5887C31.2325 19.7394 31.5077 20.38 31.4597 20.9615C31.4285 21.3402 31.27 21.7083 30.9713 21.8923L20.0647 28.6073L20.0642 28.6077C19.1913 29.1464 18.2344 29.2686 17.2438 29.0043L9.33294 26.8842C9.1963 26.8476 9.05072 26.8667 8.92821 26.9375L8.18808 27.3649ZM3.34121 20.9661L8.29827 29.7252C8.53708 30.15 8.38634 30.6923 7.96347 30.9311L6.27788 31.8865C5.85301 32.1254 5.31074 31.9747 5.07188 31.5517L0.114812 22.7927C-0.125988 22.3679 0.0247452 21.8256 0.447678 21.5868L2.13521 20.6314C2.55808 20.3925 3.10041 20.5433 3.34121 20.9661ZM2.18954 22.1827C1.80694 22.2373 1.54281 22.5926 1.59748 22.9752C1.65441 23.3577 2.00961 23.6242 2.39221 23.5673C2.77481 23.5126 3.03894 23.1551 2.98428 22.7725C2.92734 22.3899 2.57214 22.1258 2.18954 22.1827Z" fill="#EABA5F"/>
</svg>
