<svg width="28" height="32" viewBox="0 0 28 32" fill="none" xmlns="http://www.w3.org/2000/svg">
<path d="M4.65719 14.1223L12.4352 19.0047L12.7115 19.1783C13.3192 19.5608 14.1693 19.5608 14.7788 19.1783L15.0551 19.0047L22.8325 14.1228L25.0394 12.7372L26.7206 11.6819C27.2093 11.1129 27.4897 10.4054 27.4897 9.65924C27.4897 8.57809 26.9118 7.57028 25.9433 6.96254L15.7502 0.564257C14.5511 -0.187792 12.9397 -0.188379 11.7401 0.564257L1.54633 6.96254C0.578409 7.57028 0 8.57809 0 9.65924C0 10.4048 0.280405 11.1123 0.768474 11.6807L2.4509 12.7367L4.65719 14.1223ZM14.337 14.6197C14.1576 14.7254 13.9531 14.7812 13.7448 14.7812C13.5366 14.7812 13.3321 14.7254 13.1526 14.6197L10.1937 12.7783L6.81068 10.6729C5.53008 9.8757 6.70919 7.84658 7.99507 8.64673L13.7451 12.2251L19.4952 8.64673C20.7822 7.84599 21.959 9.87687 20.6796 10.6729L17.4033 12.712L14.337 14.6197ZM16.0265 27.6756C14.699 28.5086 12.7842 28.5039 11.4643 27.675L2.43624 22.0088L0.447592 20.7605C0.156904 21.2374 0.0021276 21.7847 0 22.3432C0 23.4243 0.577822 24.4327 1.54633 25.041L11.7395 31.4387C12.9209 32.1802 14.547 32.1937 15.7496 31.4393L25.9433 25.0405C26.9113 24.4327 27.4897 23.4243 27.4897 22.3432C27.4897 21.78 27.3295 21.2386 27.0421 20.761L25.0534 22.0094L16.0265 27.6756Z" fill="#EABA5F"/>
<path d="M4.52403 20.5489L12.7121 25.6883C13.321 26.0713 14.1704 26.0696 14.7788 25.6889L22.9668 20.5489L25.1743 19.1633L26.1651 18.5415C26.9969 17.9255 27.4903 16.9963 27.4903 16.0026C27.4903 15.3913 27.3002 14.8059 26.9641 14.3008L24.976 15.5485L19.4694 19.0055L16.0259 21.1672C15.3437 21.5948 14.5441 21.8089 13.7445 21.8089C12.945 21.8089 12.146 21.5954 11.4638 21.1672L8.02029 19.0055L2.51309 15.5485L0.525026 14.3008C0.185969 14.8036 0.00329093 15.3955 0 16.002C0 16.9951 0.492762 17.9232 1.32283 18.5391L2.31716 19.1633L4.52403 20.5489Z" fill="#EABA5F"/>
</svg>
