<svg width="29" height="27" viewBox="0 0 29 27" fill="none" xmlns="http://www.w3.org/2000/svg">
<path d="M23.5066 15.565C22.779 15.5551 22.0568 15.69 21.3818 15.9616C20.7068 16.2332 20.0925 16.6362 19.5746 17.1472C19.0567 17.6582 18.6454 18.267 18.3647 18.9383C18.084 19.6095 17.9395 20.3299 17.9395 21.0575C17.9395 21.785 18.084 22.5054 18.3647 23.1766C18.6454 23.8479 19.0567 24.4567 19.5746 24.9677C20.0925 25.4787 20.7068 25.8817 21.3818 26.1533C22.0568 26.425 22.779 26.5598 23.5066 26.55C24.9504 26.5305 26.3286 25.9432 27.3427 24.9153C28.3569 23.8874 28.9255 22.5015 28.9255 21.0575C28.9255 19.6135 28.3569 18.2275 27.3427 17.1996C26.3286 16.1717 24.9504 15.5844 23.5066 15.565ZM25.9386 20.824L23.2566 22.984C23.1637 23.0586 23.057 23.114 22.9426 23.1471C22.8282 23.1802 22.7084 23.1902 22.5901 23.1766C22.4718 23.163 22.3573 23.1261 22.2534 23.068C22.1494 23.0098 22.0581 22.9317 21.9846 22.838L20.9306 21.494C20.7947 21.3053 20.737 21.0714 20.7696 20.8413C20.8021 20.6111 20.9224 20.4024 21.1052 20.2588C21.288 20.1152 21.5193 20.0478 21.7507 20.0708C21.982 20.0938 22.1955 20.2052 22.3466 20.382L22.8376 21.009L24.8096 19.42C24.9018 19.3458 25.0076 19.2906 25.1212 19.2574C25.2347 19.2242 25.3537 19.2136 25.4713 19.2264C25.5889 19.2392 25.7028 19.275 25.8066 19.3318C25.9104 19.3886 26.0019 19.4653 26.0761 19.5575C26.1502 19.6496 26.2054 19.7555 26.2387 19.8691C26.2719 19.9826 26.2824 20.1016 26.2696 20.2192C26.2568 20.3368 26.221 20.4507 26.1642 20.5545C26.1074 20.6583 26.0308 20.7498 25.9386 20.824Z" fill="#EABA5F"/>
<path d="M16.5136 21.0588C16.5155 19.2047 17.2528 17.4271 18.5639 16.116C19.8749 14.805 21.6525 14.0676 23.5066 14.0658C24.7876 14.0658 25.9856 14.4178 27.0196 15.0218V6.02078C27.0196 4.93074 26.5866 3.88535 25.8158 3.11457C25.045 2.3438 23.9996 1.91078 22.9096 1.91078H20.7496V1.45078C20.7496 0.950781 20.3396 0.550781 19.8496 0.550781C19.3496 0.550781 18.9496 0.950781 18.9496 1.45078V1.91078H8.17961V1.45078C8.17961 0.950781 7.77961 0.550781 7.27961 0.550781C6.77961 0.550781 6.37961 0.950781 6.37961 1.45078V1.91078H4.20961C3.11957 1.91078 2.07417 2.3438 1.3034 3.11457C0.532626 3.88535 0.0996094 4.93074 0.0996094 6.02078V20.7608C0.0996094 21.8508 0.532626 22.8962 1.3034 23.667C2.07417 24.4378 3.11957 24.8708 4.20961 24.8708H17.6516C16.9089 23.7381 16.5134 22.4132 16.5136 21.0588ZM20.0306 10.2448C20.1671 10.2448 20.3022 10.2717 20.4282 10.3239C20.5543 10.3761 20.6688 10.4526 20.7653 10.5491C20.8618 10.6456 20.9383 10.7601 20.9905 10.8862C21.0427 11.0122 21.0696 11.1473 21.0696 11.2838C21.0696 11.4202 21.0427 11.5553 20.9905 11.6814C20.9383 11.8074 20.8618 11.922 20.7653 12.0185C20.6688 12.1149 20.5543 12.1915 20.4282 12.2437C20.3022 12.2959 20.1671 12.3228 20.0306 12.3228C19.755 12.3228 19.4908 12.2133 19.2959 12.0185C19.1011 11.8236 18.9916 11.5593 18.9916 11.2838C18.9916 11.0082 19.1011 10.7439 19.2959 10.5491C19.4908 10.3542 19.755 10.2448 20.0306 10.2448ZM7.09361 17.9838C6.81805 17.9838 6.55378 17.8743 6.35893 17.6795C6.16407 17.4846 6.05461 17.2203 6.05461 16.9448C6.05461 16.6692 6.16407 16.4049 6.35893 16.2101C6.55378 16.0152 6.81805 15.9058 7.09361 15.9058C7.36917 15.9058 7.63344 16.0152 7.82829 16.2101C8.02314 16.4049 8.13261 16.6692 8.13261 16.9448C8.13261 17.2203 8.02314 17.4846 7.82829 17.6795C7.63344 17.8743 7.36917 17.9838 7.09361 17.9838ZM7.09361 12.3228C6.95717 12.3228 6.82206 12.2959 6.696 12.2437C6.56994 12.1915 6.45541 12.1149 6.35893 12.0185C6.26245 11.922 6.18591 11.8074 6.1337 11.6814C6.08148 11.5553 6.05461 11.4202 6.05461 11.2838C6.05461 11.1473 6.08148 11.0122 6.1337 10.8862C6.18591 10.7601 6.26245 10.6456 6.35893 10.5491C6.45541 10.4526 6.56994 10.3761 6.696 10.3239C6.82206 10.2717 6.95717 10.2448 7.09361 10.2448C7.36917 10.2448 7.63344 10.3542 7.82829 10.5491C8.02314 10.7439 8.13261 11.0082 8.13261 11.2838C8.13261 11.5593 8.02314 11.8236 7.82829 12.0185C7.63344 12.2133 7.36917 12.3228 7.09361 12.3228ZM13.5626 17.9838C13.287 17.9838 13.0228 17.8743 12.8279 17.6795C12.6331 17.4846 12.5236 17.2203 12.5236 16.9448C12.5236 16.6692 12.6331 16.4049 12.8279 16.2101C13.0228 16.0152 13.287 15.9058 13.5626 15.9058C13.8382 15.9058 14.1024 16.0152 14.2973 16.2101C14.4921 16.4049 14.6016 16.6692 14.6016 16.9448C14.6016 17.2203 14.4921 17.4846 14.2973 17.6795C14.1024 17.8743 13.8382 17.9838 13.5626 17.9838ZM13.5626 12.3228C13.4262 12.3228 13.2911 12.2959 13.165 12.2437C13.0389 12.1915 12.9244 12.1149 12.8279 12.0185C12.7314 11.922 12.6549 11.8074 12.6027 11.6814C12.5505 11.5553 12.5236 11.4202 12.5236 11.2838C12.5236 11.1473 12.5505 11.0122 12.6027 10.8862C12.6549 10.7601 12.7314 10.6456 12.8279 10.5491C12.9244 10.4526 13.0389 10.3761 13.165 10.3239C13.2911 10.2717 13.4262 10.2448 13.5626 10.2448C13.8382 10.2448 14.1024 10.3542 14.2973 10.5491C14.4921 10.7439 14.6016 11.0082 14.6016 11.2838C14.6016 11.5593 14.4921 11.8236 14.2973 12.0185C14.1024 12.2133 13.8382 12.3228 13.5626 12.3228Z" fill="#EABA5F"/>
</svg>
