<svg width="29" height="28" viewBox="0 0 29 28" fill="none" xmlns="http://www.w3.org/2000/svg">
<path fill-rule="evenodd" clip-rule="evenodd" d="M13.6523 27.2072V22.0675C12.1241 22.088 10.5246 22.2244 8.95564 22.5066C9.79154 24.4605 11.3743 26.9273 13.6523 27.2072ZM18.8716 10.535C18.8716 13.1909 9.2533 13.1909 9.2533 10.535C9.2533 7.8791 11.4067 5.72602 14.0626 5.72602C16.7186 5.72602 18.8716 7.8791 18.8716 10.535ZM11.8399 2.2224C11.8399 3.45 12.835 4.4451 14.0627 4.4451C15.2903 4.4451 16.2854 3.45 16.2854 2.2224C16.2854 0.995156 15.2903 0 14.0627 0C12.8351 0 11.8399 0.995156 11.8399 2.2224ZM17.8333 4.2252C17.8333 5.21426 18.635 6.01588 19.624 6.01588C20.613 6.01588 21.4147 5.2142 21.4147 4.2252C21.4147 3.23648 20.613 2.43475 19.624 2.43475C18.635 2.43475 17.8333 3.23643 17.8333 4.2252ZM9.72486 12.4533C9.01166 12.0434 8.43305 11.4254 8.43305 10.535C8.43305 9.28137 8.8432 8.1235 9.53637 7.18787C9.19923 7.09471 8.85103 7.0476 8.50125 7.04783C6.36152 7.04783 4.62668 8.78244 4.62668 10.9221C4.62668 12.2208 7.4809 12.7311 9.72486 12.4533ZM23.4983 10.9222C23.4983 8.7825 21.7637 7.04783 19.624 7.04783C19.2654 7.04783 18.9183 7.09676 18.5887 7.18793C19.2819 8.12355 19.692 9.28137 19.692 10.535C19.692 11.4254 19.1133 12.0434 18.4001 12.4533C20.6441 12.7311 23.4983 12.2208 23.4983 10.9222ZM6.71057 4.2252C6.71057 5.21426 7.51225 6.01594 8.50131 6.01594C9.49031 6.01594 10.292 5.21426 10.292 4.2252C10.292 3.23648 9.49031 2.43475 8.50131 2.43475C7.51225 2.43475 6.71057 3.23648 6.71057 4.2252ZM4.54629 12.348C2.81168 12.7782 0 12.4321 0 11.3093C0 9.68578 1.31631 8.36965 2.93988 8.36965C3.43256 8.36892 3.91744 8.49258 4.34959 8.72918C4.00301 9.38379 3.80643 10.13 3.80643 10.9221C3.80637 11.5351 4.11311 12.0021 4.54629 12.348ZM28.125 11.3093C28.125 12.4321 25.3133 12.7781 23.5787 12.3479C24.012 12.002 24.3186 11.535 24.3186 10.9221C24.3186 10.13 24.1221 9.38385 23.7755 8.72924C24.2077 8.49262 24.6926 8.36894 25.1854 8.36965C26.8089 8.36965 28.125 9.68584 28.125 11.3093ZM1.58115 6.22799C1.58115 6.97846 2.18947 7.58672 2.93988 7.58672C3.69029 7.58672 4.29855 6.97846 4.29855 6.22799C4.29855 5.47781 3.69029 4.86949 2.93988 4.86949C2.18947 4.86949 1.58115 5.47775 1.58115 6.22799ZM23.8266 6.22799C23.8266 6.97846 24.4349 7.58672 25.1854 7.58672C25.9358 7.58672 26.544 6.97846 26.544 6.22799C26.544 5.47781 25.9358 4.86949 25.1854 4.86949C24.4349 4.86949 23.8266 5.47775 23.8266 6.22799ZM21.5558 14.4727C21.5138 17.2195 21.051 19.7698 20.286 21.8968C21.7388 22.2178 23.0701 22.6488 24.2348 23.168C26.3138 20.847 27.61 17.8102 27.7085 14.4727H21.5558ZM23.6337 23.7978C21.6119 25.7857 18.9737 27.1485 16.032 27.5736C17.9079 26.6378 19.2005 24.5638 19.9868 22.6702C21.3255 22.9584 22.5534 23.3401 23.6337 23.7978ZM12.093 27.5736C9.15117 27.1485 6.51287 25.7855 4.49109 23.7974C5.63578 23.311 6.86971 22.9397 8.13721 22.6678C8.92354 24.5622 10.2162 26.6374 12.093 27.5736ZM3.8901 23.168C5.12924 22.6144 6.46676 22.1964 7.83803 21.8943C7.07361 19.7678 6.61119 17.2184 6.56912 14.4727H0.416484C0.514922 17.8102 1.81113 20.8469 3.8901 23.168ZM7.38961 14.4727H13.6523V21.247C12.0276 21.2684 10.3209 21.4179 8.64756 21.7298C7.89117 19.6707 7.43191 17.1752 7.38961 14.4727ZM14.4727 14.4727H20.7354C20.693 17.176 20.2335 19.6722 19.4767 21.7318C17.9169 21.4397 16.2318 21.2699 14.4727 21.247V14.4727ZM19.1686 22.5084C17.7031 22.2435 16.1231 22.0894 14.4727 22.0675V27.2072C16.7501 26.9274 18.3327 24.4618 19.1686 22.5084Z" fill="#EABA5F"/>
</svg>
