<svg width="32" height="32" viewBox="0 0 32 32" fill="none" xmlns="http://www.w3.org/2000/svg">
<path d="M3.54194 18.9785C3.36488 18.4919 2.82687 18.2411 2.34031 18.4182L0.679375 19.0228C0.498585 19.0885 0.342415 19.2084 0.23206 19.366C0.121704 19.5236 0.0625064 19.7113 0.0625 19.9037V31.0625C0.0625 31.5802 0.48225 32 1 32H5.0615C5.17088 32 5.27938 31.9809 5.38212 31.9434L7.04313 31.3389C7.52969 31.1618 7.7805 30.6238 7.60344 30.1373L3.54194 18.9785ZM31.7939 22.0142C31.3173 20.705 29.8213 20.0852 28.5585 20.674L24.1355 22.7361C24.1303 22.9472 24.1092 23.1577 24.0726 23.3657C23.6686 25.6565 21.4763 27.1916 19.1855 26.7877L12.8727 25.6746C12.3628 25.5847 12.0223 25.0984 12.1123 24.5885C12.2022 24.0786 12.6884 23.7381 13.1983 23.8281L19.5111 24.9412C20.7858 25.1659 22.0014 24.3148 22.2261 23.0401C22.4509 21.7654 21.5997 20.5499 20.3251 20.3252L17.3118 19.7939C16.41 19.6349 15.5692 19.2929 14.8126 18.7774C12.6134 17.2791 9.80744 16.9279 7.30675 17.8381L5.37775 18.5403L9.47556 29.7987L17.4176 30.8902C18.3897 31.0238 19.3628 30.8536 20.2318 30.3982L30.6647 24.9304C31.7181 24.3782 32.2007 23.1319 31.7939 22.0142ZM15.3236 5H21.6764L23.0764 1.26669C23.3062 0.65375 22.8531 0 22.1986 0H14.8014C14.1469 0 13.6938 0.65375 13.9236 1.26669L15.3236 5Z" fill="#EABA5F"/>
<path d="M15.5483 17.0193C15.2267 16.6353 15.2624 16.063 15.6368 15.7237C16.0205 15.376 16.6134 15.4051 16.9611 15.7888C17.3647 16.2341 18.0006 16.4999 18.6622 16.4999C19.2857 16.4999 19.7233 16.1353 19.7863 15.7826C19.8694 15.317 19.1555 15.0151 18.9347 14.9337C17.866 14.5395 16.917 14.1171 16.8772 14.0992C16.832 14.0791 16.7885 14.0554 16.7471 14.0284C15.9964 13.5391 15.6097 12.6809 15.7377 11.7888C15.8739 10.8401 16.5664 10.0676 17.5449 9.77281C19.42 9.20781 20.9688 10.4377 21.0993 10.5452L21.1007 10.5464L21.1069 10.5516L21.1067 10.5519C21.311 10.7238 21.4412 10.9812 21.4412 11.2692C21.4412 11.787 21.0214 12.2067 20.5037 12.2067C20.283 12.207 20.0693 12.129 19.9007 11.9866L19.9004 11.9869L19.9063 11.9918C19.8976 11.9848 19.022 11.2863 18.0857 11.5682C17.6875 11.6881 17.6089 11.9488 17.5936 12.0553C17.5832 12.1276 17.5778 12.2989 17.7261 12.4245C17.9778 12.5346 18.7525 12.8681 19.5835 13.1746C21.3633 13.8311 21.8087 15.1226 21.6319 16.1122C21.4428 17.1716 20.5909 17.996 19.4865 18.2736L20.6491 18.4786C21.7588 18.6742 22.7259 19.2904 23.3722 20.2134C23.5133 20.4148 23.6368 20.6279 23.7412 20.8504L27.7173 18.9967V16.5189C27.7173 14.3306 27.1092 12.1899 25.9587 10.3284C25.1174 8.96746 24.0074 7.79237 22.6965 6.875H14.3007C12.9898 7.79237 11.8798 8.96746 11.0385 10.3284C10.0707 11.8937 9.48353 13.6642 9.32422 15.4976C9.59347 15.4762 9.86416 15.4649 10.136 15.4649C12.0648 15.4649 13.9278 16.0012 15.5483 17.0193Z" fill="#EABA5F"/>
</svg>
