<svg width="34" height="40" viewBox="0 0 34 40" fill="none" xmlns="http://www.w3.org/2000/svg">
<path d="M8.1915 31.8054C10.1204 31.7882 11.7032 30.196 11.7032 28.2632C11.7032 26.3202 10.104 24.721 8.16104 24.721H8.11572C6.17275 24.721 4.57354 26.3202 4.57354 28.2632C4.57354 30.196 6.15635 31.7882 8.08525 31.8054C4.254 31.8054 0.984473 34.8585 0.511036 38.682C0.424317 39.3812 0.969629 39.9991 1.67432 39.9991H14.6024C15.3071 39.9991 15.8524 39.3812 15.7657 38.682C15.2923 34.8585 12.0228 31.8054 8.1915 31.8054ZM18.8442 7.47313C18.4442 7.68719 18.1346 8.06524 17.8171 8.38212C17.3595 8.83899 16.6181 8.83868 16.1606 8.38133C15.4378 7.65844 14.6831 6.96634 13.5705 7.36087C12.2537 7.82782 11.869 9.56868 12.8537 10.5542L16.9898 14.6946L21.1253 10.5539C21.8717 9.80758 21.8709 8.55962 21.1249 7.8136C20.5304 7.21844 19.5871 7.07571 18.8442 7.47313Z" fill="#DFCAA0"/>
<path d="M8.1915 31.8054C10.1204 31.7882 11.7032 30.196 11.7032 28.2632C11.7032 26.3202 10.104 24.721 8.16104 24.721H8.11572C6.17275 24.721 4.57354 26.3202 4.57354 28.2632C4.57354 30.196 6.15635 31.7882 8.08525 31.8054C4.254 31.8054 0.984473 34.8585 0.511036 38.682C0.424317 39.3812 0.969629 39.9991 1.67432 39.9991H14.6024C15.3071 39.9991 15.8524 39.3812 15.7657 38.682C15.2923 34.8585 12.0228 31.8054 8.1915 31.8054ZM18.8442 7.47313C18.4442 7.68719 18.1346 8.06524 17.8171 8.38212C17.3595 8.83899 16.6181 8.83868 16.1606 8.38133C15.4378 7.65844 14.6831 6.96634 13.5705 7.36087C12.2537 7.82782 11.869 9.56868 12.8537 10.5542L16.9898 14.6946L21.1253 10.5539C21.8717 9.80758 21.8709 8.55962 21.1249 7.8136C20.5304 7.21844 19.5871 7.07571 18.8442 7.47313Z" fill="black" fill-opacity="0.2"/>
<path d="M8.1915 31.8054C10.1204 31.7882 11.7032 30.196 11.7032 28.2632C11.7032 26.3202 10.104 24.721 8.16104 24.721H8.11572C6.17275 24.721 4.57354 26.3202 4.57354 28.2632C4.57354 30.196 6.15635 31.7882 8.08525 31.8054C4.254 31.8054 0.984473 34.8585 0.511036 38.682C0.424317 39.3812 0.969629 39.9991 1.67432 39.9991H14.6024C15.3071 39.9991 15.8524 39.3812 15.7657 38.682C15.2923 34.8585 12.0228 31.8054 8.1915 31.8054ZM18.8442 7.47313C18.4442 7.68719 18.1346 8.06524 17.8171 8.38212C17.3595 8.83899 16.6181 8.83868 16.1606 8.38133C15.4378 7.65844 14.6831 6.96634 13.5705 7.36087C12.2537 7.82782 11.869 9.56868 12.8537 10.5542L16.9898 14.6946L21.1253 10.5539C21.8717 9.80758 21.8709 8.55962 21.1249 7.8136C20.5304 7.21844 19.5871 7.07571 18.8442 7.47313Z" fill="black" fill-opacity="0.2"/>
<path d="M22.1082 21.0188H26.7684C29.0402 21.0188 30.8887 19.1703 30.8887 16.8984V4.12031C30.8887 1.84844 29.0402 0 26.7684 0H7.21211C4.94023 0 3.0918 1.84844 3.0918 4.12031V16.8984C3.0918 19.1703 4.94023 21.0188 7.21211 21.0188H11.8723L12.8137 21.9602L16.1613 25.3086C16.3816 25.5281 16.6793 25.6516 16.9902 25.6516C17.3012 25.6516 17.5988 25.5281 17.8191 25.3086L21.1668 21.9602L22.1082 21.0188ZM16.9926 17.5219C16.516 17.5227 16.2145 17.2344 16.159 17.1789C14.5043 15.5234 12.8504 13.8672 11.1965 12.2117C9.70195 10.7164 9.53633 8.2625 10.823 6.58281C12.2887 4.67031 15.1488 4.35156 16.9902 5.91719C18.7301 4.4375 21.402 4.62578 22.9309 6.3125C24.4449 7.98281 24.3746 10.6195 22.7832 12.2117C21.1293 13.8672 19.4754 15.5234 17.8215 17.1789C17.7652 17.2344 17.466 17.5211 16.9926 17.5219ZM33.4893 38.6828C33.0159 34.8594 29.7463 31.8062 25.9151 31.8062C27.844 31.7891 29.4268 30.1969 29.4268 28.2641C29.4268 26.3211 27.8276 24.7219 25.8846 24.7219H25.8393C23.8963 24.7219 22.2971 26.3211 22.2971 28.2641C22.2971 30.1969 23.8799 31.7891 25.8088 31.8062C21.9776 31.8062 18.708 34.8594 18.2346 38.6828C18.1479 39.382 18.6932 40 19.3979 40H32.326C33.0307 40 33.576 39.382 33.4893 38.6828Z" fill="#DFCAA0"/>
<path d="M22.1082 21.0188H26.7684C29.0402 21.0188 30.8887 19.1703 30.8887 16.8984V4.12031C30.8887 1.84844 29.0402 0 26.7684 0H7.21211C4.94023 0 3.0918 1.84844 3.0918 4.12031V16.8984C3.0918 19.1703 4.94023 21.0188 7.21211 21.0188H11.8723L12.8137 21.9602L16.1613 25.3086C16.3816 25.5281 16.6793 25.6516 16.9902 25.6516C17.3012 25.6516 17.5988 25.5281 17.8191 25.3086L21.1668 21.9602L22.1082 21.0188ZM16.9926 17.5219C16.516 17.5227 16.2145 17.2344 16.159 17.1789C14.5043 15.5234 12.8504 13.8672 11.1965 12.2117C9.70195 10.7164 9.53633 8.2625 10.823 6.58281C12.2887 4.67031 15.1488 4.35156 16.9902 5.91719C18.7301 4.4375 21.402 4.62578 22.9309 6.3125C24.4449 7.98281 24.3746 10.6195 22.7832 12.2117C21.1293 13.8672 19.4754 15.5234 17.8215 17.1789C17.7652 17.2344 17.466 17.5211 16.9926 17.5219ZM33.4893 38.6828C33.0159 34.8594 29.7463 31.8062 25.9151 31.8062C27.844 31.7891 29.4268 30.1969 29.4268 28.2641C29.4268 26.3211 27.8276 24.7219 25.8846 24.7219H25.8393C23.8963 24.7219 22.2971 26.3211 22.2971 28.2641C22.2971 30.1969 23.8799 31.7891 25.8088 31.8062C21.9776 31.8062 18.708 34.8594 18.2346 38.6828C18.1479 39.382 18.6932 40 19.3979 40H32.326C33.0307 40 33.576 39.382 33.4893 38.6828Z" fill="black" fill-opacity="0.2"/>
<path d="M22.1082 21.0188H26.7684C29.0402 21.0188 30.8887 19.1703 30.8887 16.8984V4.12031C30.8887 1.84844 29.0402 0 26.7684 0H7.21211C4.94023 0 3.0918 1.84844 3.0918 4.12031V16.8984C3.0918 19.1703 4.94023 21.0188 7.21211 21.0188H11.8723L12.8137 21.9602L16.1613 25.3086C16.3816 25.5281 16.6793 25.6516 16.9902 25.6516C17.3012 25.6516 17.5988 25.5281 17.8191 25.3086L21.1668 21.9602L22.1082 21.0188ZM16.9926 17.5219C16.516 17.5227 16.2145 17.2344 16.159 17.1789C14.5043 15.5234 12.8504 13.8672 11.1965 12.2117C9.70195 10.7164 9.53633 8.2625 10.823 6.58281C12.2887 4.67031 15.1488 4.35156 16.9902 5.91719C18.7301 4.4375 21.402 4.62578 22.9309 6.3125C24.4449 7.98281 24.3746 10.6195 22.7832 12.2117C21.1293 13.8672 19.4754 15.5234 17.8215 17.1789C17.7652 17.2344 17.466 17.5211 16.9926 17.5219ZM33.4893 38.6828C33.0159 34.8594 29.7463 31.8062 25.9151 31.8062C27.844 31.7891 29.4268 30.1969 29.4268 28.2641C29.4268 26.3211 27.8276 24.7219 25.8846 24.7219H25.8393C23.8963 24.7219 22.2971 26.3211 22.2971 28.2641C22.2971 30.1969 23.8799 31.7891 25.8088 31.8062C21.9776 31.8062 18.708 34.8594 18.2346 38.6828C18.1479 39.382 18.6932 40 19.3979 40H32.326C33.0307 40 33.576 39.382 33.4893 38.6828Z" fill="black" fill-opacity="0.2"/>
</svg>
