<svg width="36" height="30" viewBox="0 0 36 30" fill="none" xmlns="http://www.w3.org/2000/svg">
<path fill-rule="evenodd" clip-rule="evenodd" d="M16.0823 5.66361L9.54516 1.49473C9.17356 1.25777 8.69412 1.32417 8.40084 1.65313L8.32364 1.73969C8.17494 1.9058 8.09408 2.12172 8.09708 2.34465C8.10009 2.56758 8.18675 2.78125 8.33988 2.94329C11.6092 6.41921 13.504 8.05737 14.5572 11.0846C14.5652 11.1079 14.583 11.1242 14.6069 11.1302C14.6308 11.1361 14.6541 11.13 14.6721 11.1132L18.0052 8.00097C18.0183 7.98871 18.0356 7.98189 18.0535 7.98189C18.0715 7.98189 18.0887 7.98871 18.1018 8.00097L21.4349 11.1132C21.4529 11.13 21.4762 11.1361 21.5001 11.1302C21.524 11.1242 21.5418 11.108 21.5499 11.0846C22.6032 8.05745 24.4978 6.41921 27.7672 2.94337C27.9203 2.78134 28.007 2.56769 28.01 2.34475C28.0131 2.12182 27.9322 1.90588 27.7835 1.73977L27.7063 1.65321C27.4131 1.32417 26.9336 1.25785 26.562 1.49481L20.0248 5.66369C18.7945 6.44849 17.313 6.44849 16.0823 5.66361ZM10.8364 16.1469L18.0055 9.45281C18.0186 9.44055 18.0358 9.43373 18.0538 9.43373C18.0717 9.43373 18.089 9.44055 18.102 9.45281L25.2712 16.1469C25.9754 16.8045 26.3357 17.6338 26.3357 18.5974V27.7411C26.3357 28.855 25.4273 29.7634 24.3135 29.7634H20.8685C20.8498 29.7633 20.8318 29.7559 20.8186 29.7426C20.8053 29.7294 20.7978 29.7114 20.7978 29.6926V23.9261C20.7978 22.4169 19.563 21.1821 18.0538 21.1821C16.5446 21.1821 15.3098 22.4169 15.3098 23.9261V29.6926C15.3098 29.7114 15.3023 29.7294 15.289 29.7426C15.2758 29.7559 15.2578 29.7633 15.2391 29.7634H11.7941C10.6803 29.7634 9.77188 28.855 9.77188 27.7411V18.5974C9.7718 17.6338 10.132 16.8045 10.8364 16.1469ZM32.0078 7.88841C32.2544 8.21985 32.2735 8.61137 32.0147 8.93017C30.5733 10.7054 29.7144 12.4638 29.7144 14.1971C29.7144 16.8714 32.1187 19.0178 33.9894 20.9197C34.137 21.0697 34.2211 21.2708 34.2242 21.4812C34.2274 21.6916 34.1492 21.8951 34.0061 22.0494L33.9343 22.1269C33.6754 22.4062 33.2724 22.471 32.939 22.2868C31.0537 21.246 29.2312 20.7454 27.4683 20.7583C27.4589 20.7585 27.4496 20.7568 27.441 20.7533C27.4323 20.7498 27.4245 20.7445 27.418 20.7378C27.4112 20.7313 27.4059 20.7235 27.4023 20.7149C27.3987 20.7062 27.397 20.697 27.3971 20.6876V18.5972C27.3971 17.3397 26.9147 16.2293 25.9956 15.371L24.6112 14.0782C24.5984 14.0664 24.5904 14.0502 24.5889 14.0329C24.5873 14.0155 24.5923 13.9982 24.6028 13.9842C26.4664 11.489 28.5253 9.33321 30.8871 7.70329C31.2493 7.45337 31.7449 7.53513 32.0078 7.88841ZM33.163 11.9868C31.6964 11.9868 30.5074 13.1758 30.5074 14.6424C30.5074 16.109 31.6964 17.298 33.163 17.298C34.6296 17.298 35.8186 16.109 35.8186 14.6424C35.8186 13.1758 34.6296 11.9868 33.163 11.9868ZM4.09964 7.88841C4.22617 7.71843 4.41371 7.60417 4.62279 7.56967C4.83186 7.53517 5.04617 7.58313 5.2206 7.70345C7.58236 9.33337 9.6414 11.4892 11.505 13.9844C11.5155 13.9983 11.5204 14.0157 11.5189 14.033C11.5173 14.0504 11.5094 14.0666 11.4966 14.0784L10.1121 15.3712C9.193 16.2294 8.7106 17.3398 8.7106 18.5974V20.6878C8.71073 20.6971 8.70894 20.7064 8.70535 20.715C8.70176 20.7237 8.69644 20.7315 8.68972 20.738C8.68318 20.7447 8.67534 20.7499 8.66669 20.7535C8.65803 20.757 8.64874 20.7587 8.6394 20.7585C6.87652 20.7455 5.05396 21.2462 3.16868 22.287C2.83524 22.471 2.43228 22.4063 2.1734 22.127L2.10148 22.0495C1.95837 21.8953 1.88025 21.6917 1.88336 21.4813C1.88647 21.2709 1.97059 21.0698 2.1182 20.9198C3.98892 19.018 6.39324 16.8716 6.39324 14.1973C6.39324 12.4638 5.53428 10.7055 4.09292 8.93033C3.83396 8.61137 3.853 8.21985 4.09964 7.88841ZM2.83724 12.0879C1.3706 12.0879 0.181641 13.2769 0.181641 14.7435C0.181641 16.2102 1.3706 17.3991 2.83724 17.3991C4.30388 17.3991 5.49284 16.2102 5.49284 14.7435C5.49284 13.2769 4.30388 12.0879 2.83724 12.0879ZM17.9887 0.236328C19.4553 0.236328 20.6443 1.42529 20.6443 2.89193C20.6443 4.35857 19.4553 5.54753 17.9887 5.54753C16.522 5.54753 15.3331 4.35857 15.3331 2.89193C15.3331 1.42529 16.522 0.236328 17.9887 0.236328Z" fill="#DFCAA0"/>
<path fill-rule="evenodd" clip-rule="evenodd" d="M16.0823 5.66361L9.54516 1.49473C9.17356 1.25777 8.69412 1.32417 8.40084 1.65313L8.32364 1.73969C8.17494 1.9058 8.09408 2.12172 8.09708 2.34465C8.10009 2.56758 8.18675 2.78125 8.33988 2.94329C11.6092 6.41921 13.504 8.05737 14.5572 11.0846C14.5652 11.1079 14.583 11.1242 14.6069 11.1302C14.6308 11.1361 14.6541 11.13 14.6721 11.1132L18.0052 8.00097C18.0183 7.98871 18.0356 7.98189 18.0535 7.98189C18.0715 7.98189 18.0887 7.98871 18.1018 8.00097L21.4349 11.1132C21.4529 11.13 21.4762 11.1361 21.5001 11.1302C21.524 11.1242 21.5418 11.108 21.5499 11.0846C22.6032 8.05745 24.4978 6.41921 27.7672 2.94337C27.9203 2.78134 28.007 2.56769 28.01 2.34475C28.0131 2.12182 27.9322 1.90588 27.7835 1.73977L27.7063 1.65321C27.4131 1.32417 26.9336 1.25785 26.562 1.49481L20.0248 5.66369C18.7945 6.44849 17.313 6.44849 16.0823 5.66361ZM10.8364 16.1469L18.0055 9.45281C18.0186 9.44055 18.0358 9.43373 18.0538 9.43373C18.0717 9.43373 18.089 9.44055 18.102 9.45281L25.2712 16.1469C25.9754 16.8045 26.3357 17.6338 26.3357 18.5974V27.7411C26.3357 28.855 25.4273 29.7634 24.3135 29.7634H20.8685C20.8498 29.7633 20.8318 29.7559 20.8186 29.7426C20.8053 29.7294 20.7978 29.7114 20.7978 29.6926V23.9261C20.7978 22.4169 19.563 21.1821 18.0538 21.1821C16.5446 21.1821 15.3098 22.4169 15.3098 23.9261V29.6926C15.3098 29.7114 15.3023 29.7294 15.289 29.7426C15.2758 29.7559 15.2578 29.7633 15.2391 29.7634H11.7941C10.6803 29.7634 9.77188 28.855 9.77188 27.7411V18.5974C9.7718 17.6338 10.132 16.8045 10.8364 16.1469ZM32.0078 7.88841C32.2544 8.21985 32.2735 8.61137 32.0147 8.93017C30.5733 10.7054 29.7144 12.4638 29.7144 14.1971C29.7144 16.8714 32.1187 19.0178 33.9894 20.9197C34.137 21.0697 34.2211 21.2708 34.2242 21.4812C34.2274 21.6916 34.1492 21.8951 34.0061 22.0494L33.9343 22.1269C33.6754 22.4062 33.2724 22.471 32.939 22.2868C31.0537 21.246 29.2312 20.7454 27.4683 20.7583C27.4589 20.7585 27.4496 20.7568 27.441 20.7533C27.4323 20.7498 27.4245 20.7445 27.418 20.7378C27.4112 20.7313 27.4059 20.7235 27.4023 20.7149C27.3987 20.7062 27.397 20.697 27.3971 20.6876V18.5972C27.3971 17.3397 26.9147 16.2293 25.9956 15.371L24.6112 14.0782C24.5984 14.0664 24.5904 14.0502 24.5889 14.0329C24.5873 14.0155 24.5923 13.9982 24.6028 13.9842C26.4664 11.489 28.5253 9.33321 30.8871 7.70329C31.2493 7.45337 31.7449 7.53513 32.0078 7.88841ZM33.163 11.9868C31.6964 11.9868 30.5074 13.1758 30.5074 14.6424C30.5074 16.109 31.6964 17.298 33.163 17.298C34.6296 17.298 35.8186 16.109 35.8186 14.6424C35.8186 13.1758 34.6296 11.9868 33.163 11.9868ZM4.09964 7.88841C4.22617 7.71843 4.41371 7.60417 4.62279 7.56967C4.83186 7.53517 5.04617 7.58313 5.2206 7.70345C7.58236 9.33337 9.6414 11.4892 11.505 13.9844C11.5155 13.9983 11.5204 14.0157 11.5189 14.033C11.5173 14.0504 11.5094 14.0666 11.4966 14.0784L10.1121 15.3712C9.193 16.2294 8.7106 17.3398 8.7106 18.5974V20.6878C8.71073 20.6971 8.70894 20.7064 8.70535 20.715C8.70176 20.7237 8.69644 20.7315 8.68972 20.738C8.68318 20.7447 8.67534 20.7499 8.66669 20.7535C8.65803 20.757 8.64874 20.7587 8.6394 20.7585C6.87652 20.7455 5.05396 21.2462 3.16868 22.287C2.83524 22.471 2.43228 22.4063 2.1734 22.127L2.10148 22.0495C1.95837 21.8953 1.88025 21.6917 1.88336 21.4813C1.88647 21.2709 1.97059 21.0698 2.1182 20.9198C3.98892 19.018 6.39324 16.8716 6.39324 14.1973C6.39324 12.4638 5.53428 10.7055 4.09292 8.93033C3.83396 8.61137 3.853 8.21985 4.09964 7.88841ZM2.83724 12.0879C1.3706 12.0879 0.181641 13.2769 0.181641 14.7435C0.181641 16.2102 1.3706 17.3991 2.83724 17.3991C4.30388 17.3991 5.49284 16.2102 5.49284 14.7435C5.49284 13.2769 4.30388 12.0879 2.83724 12.0879ZM17.9887 0.236328C19.4553 0.236328 20.6443 1.42529 20.6443 2.89193C20.6443 4.35857 19.4553 5.54753 17.9887 5.54753C16.522 5.54753 15.3331 4.35857 15.3331 2.89193C15.3331 1.42529 16.522 0.236328 17.9887 0.236328Z" fill="black" fill-opacity="0.2"/>
<path fill-rule="evenodd" clip-rule="evenodd" d="M16.0823 5.66361L9.54516 1.49473C9.17356 1.25777 8.69412 1.32417 8.40084 1.65313L8.32364 1.73969C8.17494 1.9058 8.09408 2.12172 8.09708 2.34465C8.10009 2.56758 8.18675 2.78125 8.33988 2.94329C11.6092 6.41921 13.504 8.05737 14.5572 11.0846C14.5652 11.1079 14.583 11.1242 14.6069 11.1302C14.6308 11.1361 14.6541 11.13 14.6721 11.1132L18.0052 8.00097C18.0183 7.98871 18.0356 7.98189 18.0535 7.98189C18.0715 7.98189 18.0887 7.98871 18.1018 8.00097L21.4349 11.1132C21.4529 11.13 21.4762 11.1361 21.5001 11.1302C21.524 11.1242 21.5418 11.108 21.5499 11.0846C22.6032 8.05745 24.4978 6.41921 27.7672 2.94337C27.9203 2.78134 28.007 2.56769 28.01 2.34475C28.0131 2.12182 27.9322 1.90588 27.7835 1.73977L27.7063 1.65321C27.4131 1.32417 26.9336 1.25785 26.562 1.49481L20.0248 5.66369C18.7945 6.44849 17.313 6.44849 16.0823 5.66361ZM10.8364 16.1469L18.0055 9.45281C18.0186 9.44055 18.0358 9.43373 18.0538 9.43373C18.0717 9.43373 18.089 9.44055 18.102 9.45281L25.2712 16.1469C25.9754 16.8045 26.3357 17.6338 26.3357 18.5974V27.7411C26.3357 28.855 25.4273 29.7634 24.3135 29.7634H20.8685C20.8498 29.7633 20.8318 29.7559 20.8186 29.7426C20.8053 29.7294 20.7978 29.7114 20.7978 29.6926V23.9261C20.7978 22.4169 19.563 21.1821 18.0538 21.1821C16.5446 21.1821 15.3098 22.4169 15.3098 23.9261V29.6926C15.3098 29.7114 15.3023 29.7294 15.289 29.7426C15.2758 29.7559 15.2578 29.7633 15.2391 29.7634H11.7941C10.6803 29.7634 9.77188 28.855 9.77188 27.7411V18.5974C9.7718 17.6338 10.132 16.8045 10.8364 16.1469ZM32.0078 7.88841C32.2544 8.21985 32.2735 8.61137 32.0147 8.93017C30.5733 10.7054 29.7144 12.4638 29.7144 14.1971C29.7144 16.8714 32.1187 19.0178 33.9894 20.9197C34.137 21.0697 34.2211 21.2708 34.2242 21.4812C34.2274 21.6916 34.1492 21.8951 34.0061 22.0494L33.9343 22.1269C33.6754 22.4062 33.2724 22.471 32.939 22.2868C31.0537 21.246 29.2312 20.7454 27.4683 20.7583C27.4589 20.7585 27.4496 20.7568 27.441 20.7533C27.4323 20.7498 27.4245 20.7445 27.418 20.7378C27.4112 20.7313 27.4059 20.7235 27.4023 20.7149C27.3987 20.7062 27.397 20.697 27.3971 20.6876V18.5972C27.3971 17.3397 26.9147 16.2293 25.9956 15.371L24.6112 14.0782C24.5984 14.0664 24.5904 14.0502 24.5889 14.0329C24.5873 14.0155 24.5923 13.9982 24.6028 13.9842C26.4664 11.489 28.5253 9.33321 30.8871 7.70329C31.2493 7.45337 31.7449 7.53513 32.0078 7.88841ZM33.163 11.9868C31.6964 11.9868 30.5074 13.1758 30.5074 14.6424C30.5074 16.109 31.6964 17.298 33.163 17.298C34.6296 17.298 35.8186 16.109 35.8186 14.6424C35.8186 13.1758 34.6296 11.9868 33.163 11.9868ZM4.09964 7.88841C4.22617 7.71843 4.41371 7.60417 4.62279 7.56967C4.83186 7.53517 5.04617 7.58313 5.2206 7.70345C7.58236 9.33337 9.6414 11.4892 11.505 13.9844C11.5155 13.9983 11.5204 14.0157 11.5189 14.033C11.5173 14.0504 11.5094 14.0666 11.4966 14.0784L10.1121 15.3712C9.193 16.2294 8.7106 17.3398 8.7106 18.5974V20.6878C8.71073 20.6971 8.70894 20.7064 8.70535 20.715C8.70176 20.7237 8.69644 20.7315 8.68972 20.738C8.68318 20.7447 8.67534 20.7499 8.66669 20.7535C8.65803 20.757 8.64874 20.7587 8.6394 20.7585C6.87652 20.7455 5.05396 21.2462 3.16868 22.287C2.83524 22.471 2.43228 22.4063 2.1734 22.127L2.10148 22.0495C1.95837 21.8953 1.88025 21.6917 1.88336 21.4813C1.88647 21.2709 1.97059 21.0698 2.1182 20.9198C3.98892 19.018 6.39324 16.8716 6.39324 14.1973C6.39324 12.4638 5.53428 10.7055 4.09292 8.93033C3.83396 8.61137 3.853 8.21985 4.09964 7.88841ZM2.83724 12.0879C1.3706 12.0879 0.181641 13.2769 0.181641 14.7435C0.181641 16.2102 1.3706 17.3991 2.83724 17.3991C4.30388 17.3991 5.49284 16.2102 5.49284 14.7435C5.49284 13.2769 4.30388 12.0879 2.83724 12.0879ZM17.9887 0.236328C19.4553 0.236328 20.6443 1.42529 20.6443 2.89193C20.6443 4.35857 19.4553 5.54753 17.9887 5.54753C16.522 5.54753 15.3331 4.35857 15.3331 2.89193C15.3331 1.42529 16.522 0.236328 17.9887 0.236328Z" fill="black" fill-opacity="0.2"/>
</svg>
