<svg width="36" height="36" viewBox="0 0 36 36" fill="none" xmlns="http://www.w3.org/2000/svg">
<path d="M34.9791 18.0125C34.7097 17.7236 34.3626 17.5187 33.9794 17.4226C33.5963 17.3265 33.1936 17.3431 32.8197 17.4706C32.4458 17.5981 32.1168 17.8309 31.8722 18.141C31.6276 18.4512 31.4778 18.8254 31.441 19.2187C29.5154 35.6793 6.07787 35.2981 4.58974 18.8312C4.3509 15.3303 5.49358 11.8752 7.77268 9.207C10.0518 6.53882 13.2858 4.87007 16.781 4.5587C17.3121 4.50761 17.8019 4.24999 18.1449 3.8413C18.4879 3.43262 18.6567 2.90556 18.6149 2.37365C18.5731 1.84174 18.3241 1.34751 17.9215 0.997411C17.5188 0.64731 16.9948 0.469339 16.4622 0.501826C-0.0865083 1.65808 -5.65651 25.0018 9.02849 33.2412C14.6554 36.1237 21.0191 36.3425 26.496 33.3287C29.0119 31.944 31.1488 29.962 32.7186 27.5572C34.2883 25.1524 35.2428 22.3985 35.4979 19.5381C35.5212 19.2618 35.4871 18.9836 35.3979 18.7211C35.3086 18.4585 35.166 18.2173 34.9791 18.0125Z" fill="#DFCAA0"/>
<path d="M34.9791 18.0125C34.7097 17.7236 34.3626 17.5187 33.9794 17.4226C33.5963 17.3265 33.1936 17.3431 32.8197 17.4706C32.4458 17.5981 32.1168 17.8309 31.8722 18.141C31.6276 18.4512 31.4778 18.8254 31.441 19.2187C29.5154 35.6793 6.07787 35.2981 4.58974 18.8312C4.3509 15.3303 5.49358 11.8752 7.77268 9.207C10.0518 6.53882 13.2858 4.87007 16.781 4.5587C17.3121 4.50761 17.8019 4.24999 18.1449 3.8413C18.4879 3.43262 18.6567 2.90556 18.6149 2.37365C18.5731 1.84174 18.3241 1.34751 17.9215 0.997411C17.5188 0.64731 16.9948 0.469339 16.4622 0.501826C-0.0865083 1.65808 -5.65651 25.0018 9.02849 33.2412C14.6554 36.1237 21.0191 36.3425 26.496 33.3287C29.0119 31.944 31.1488 29.962 32.7186 27.5572C34.2883 25.1524 35.2428 22.3985 35.4979 19.5381C35.5212 19.2618 35.4871 18.9836 35.3979 18.7211C35.3086 18.4585 35.166 18.2173 34.9791 18.0125Z" fill="black" fill-opacity="0.2"/>
<path d="M34.9791 18.0125C34.7097 17.7236 34.3626 17.5187 33.9794 17.4226C33.5963 17.3265 33.1936 17.3431 32.8197 17.4706C32.4458 17.5981 32.1168 17.8309 31.8722 18.141C31.6276 18.4512 31.4778 18.8254 31.441 19.2187C29.5154 35.6793 6.07787 35.2981 4.58974 18.8312C4.3509 15.3303 5.49358 11.8752 7.77268 9.207C10.0518 6.53882 13.2858 4.87007 16.781 4.5587C17.3121 4.50761 17.8019 4.24999 18.1449 3.8413C18.4879 3.43262 18.6567 2.90556 18.6149 2.37365C18.5731 1.84174 18.3241 1.34751 17.9215 0.997411C17.5188 0.64731 16.9948 0.469339 16.4622 0.501826C-0.0865083 1.65808 -5.65651 25.0018 9.02849 33.2412C14.6554 36.1237 21.0191 36.3425 26.496 33.3287C29.0119 31.944 31.1488 29.962 32.7186 27.5572C34.2883 25.1524 35.2428 22.3985 35.4979 19.5381C35.5212 19.2618 35.4871 18.9836 35.3979 18.7211C35.3086 18.4585 35.166 18.2173 34.9791 18.0125Z" fill="black" fill-opacity="0.2"/>
<path d="M7.05859 17.9992C7.06174 20.8999 8.21542 23.6809 10.2665 25.7319C12.3176 27.783 15.0985 28.9367 17.9992 28.9398C32.5155 28.3398 32.5092 7.65859 17.9992 7.05859C15.0985 7.06174 12.3176 8.21542 10.2665 10.2665C8.21542 12.3176 7.06174 15.0985 7.05859 17.9992ZM18.6242 10.4973V16.2361C18.8856 16.3309 19.123 16.4819 19.3196 16.6786C19.5162 16.8753 19.6671 17.1128 19.7617 17.3742H23.7067C23.8726 17.3742 24.0316 17.4401 24.1489 17.5574C24.2661 17.6746 24.332 17.8337 24.332 17.9995C24.332 18.1654 24.2661 18.3244 24.1489 18.4417C24.0316 18.559 23.8726 18.6248 23.7067 18.6248H19.7623C19.6572 18.9234 19.4781 19.1904 19.2418 19.401C19.0055 19.6115 18.7197 19.7588 18.411 19.8289C18.1024 19.899 17.781 19.8898 17.4769 19.802C17.1728 19.7142 16.8959 19.5508 16.6721 19.327C16.4483 19.1032 16.2849 18.8263 16.1971 18.5222C16.1093 18.2181 16.1001 17.8967 16.1702 17.588C16.2403 17.2794 16.3875 16.9936 16.5981 16.7572C16.8086 16.5209 17.0757 16.3418 17.3742 16.2367V10.4973C17.3742 10.3316 17.4401 10.1726 17.5573 10.0554C17.6745 9.93819 17.8335 9.87234 17.9992 9.87234C18.165 9.87234 18.324 9.93819 18.4412 10.0554C18.5584 10.1726 18.6242 10.3316 18.6242 10.4973Z" fill="#DFCAA0"/>
<path d="M7.05859 17.9992C7.06174 20.8999 8.21542 23.6809 10.2665 25.7319C12.3176 27.783 15.0985 28.9367 17.9992 28.9398C32.5155 28.3398 32.5092 7.65859 17.9992 7.05859C15.0985 7.06174 12.3176 8.21542 10.2665 10.2665C8.21542 12.3176 7.06174 15.0985 7.05859 17.9992ZM18.6242 10.4973V16.2361C18.8856 16.3309 19.123 16.4819 19.3196 16.6786C19.5162 16.8753 19.6671 17.1128 19.7617 17.3742H23.7067C23.8726 17.3742 24.0316 17.4401 24.1489 17.5574C24.2661 17.6746 24.332 17.8337 24.332 17.9995C24.332 18.1654 24.2661 18.3244 24.1489 18.4417C24.0316 18.559 23.8726 18.6248 23.7067 18.6248H19.7623C19.6572 18.9234 19.4781 19.1904 19.2418 19.401C19.0055 19.6115 18.7197 19.7588 18.411 19.8289C18.1024 19.899 17.781 19.8898 17.4769 19.802C17.1728 19.7142 16.8959 19.5508 16.6721 19.327C16.4483 19.1032 16.2849 18.8263 16.1971 18.5222C16.1093 18.2181 16.1001 17.8967 16.1702 17.588C16.2403 17.2794 16.3875 16.9936 16.5981 16.7572C16.8086 16.5209 17.0757 16.3418 17.3742 16.2367V10.4973C17.3742 10.3316 17.4401 10.1726 17.5573 10.0554C17.6745 9.93819 17.8335 9.87234 17.9992 9.87234C18.165 9.87234 18.324 9.93819 18.4412 10.0554C18.5584 10.1726 18.6242 10.3316 18.6242 10.4973Z" fill="black" fill-opacity="0.2"/>
<path d="M7.05859 17.9992C7.06174 20.8999 8.21542 23.6809 10.2665 25.7319C12.3176 27.783 15.0985 28.9367 17.9992 28.9398C32.5155 28.3398 32.5092 7.65859 17.9992 7.05859C15.0985 7.06174 12.3176 8.21542 10.2665 10.2665C8.21542 12.3176 7.06174 15.0985 7.05859 17.9992ZM18.6242 10.4973V16.2361C18.8856 16.3309 19.123 16.4819 19.3196 16.6786C19.5162 16.8753 19.6671 17.1128 19.7617 17.3742H23.7067C23.8726 17.3742 24.0316 17.4401 24.1489 17.5574C24.2661 17.6746 24.332 17.8337 24.332 17.9995C24.332 18.1654 24.2661 18.3244 24.1489 18.4417C24.0316 18.559 23.8726 18.6248 23.7067 18.6248H19.7623C19.6572 18.9234 19.4781 19.1904 19.2418 19.401C19.0055 19.6115 18.7197 19.7588 18.411 19.8289C18.1024 19.899 17.781 19.8898 17.4769 19.802C17.1728 19.7142 16.8959 19.5508 16.6721 19.327C16.4483 19.1032 16.2849 18.8263 16.1971 18.5222C16.1093 18.2181 16.1001 17.8967 16.1702 17.588C16.2403 17.2794 16.3875 16.9936 16.5981 16.7572C16.8086 16.5209 17.0757 16.3418 17.3742 16.2367V10.4973C17.3742 10.3316 17.4401 10.1726 17.5573 10.0554C17.6745 9.93819 17.8335 9.87234 17.9992 9.87234C18.165 9.87234 18.324 9.93819 18.4412 10.0554C18.5584 10.1726 18.6242 10.3316 18.6242 10.4973Z" fill="black" fill-opacity="0.2"/>
<path d="M18 18.625C18.1658 18.625 18.3247 18.5592 18.4419 18.4419C18.5592 18.3247 18.625 18.1658 18.625 18C18.625 17.8342 18.5592 17.6753 18.4419 17.5581C18.3247 17.4408 18.1658 17.375 18 17.375C17.8342 17.375 17.6753 17.4408 17.5581 17.5581C17.4408 17.6753 17.375 17.8342 17.375 18C17.375 18.1658 17.4408 18.3247 17.5581 18.4419C17.6753 18.5592 17.8342 18.625 18 18.625Z" fill="#DFCAA0"/>
<path d="M18 18.625C18.1658 18.625 18.3247 18.5592 18.4419 18.4419C18.5592 18.3247 18.625 18.1658 18.625 18C18.625 17.8342 18.5592 17.6753 18.4419 17.5581C18.3247 17.4408 18.1658 17.375 18 17.375C17.8342 17.375 17.6753 17.4408 17.5581 17.5581C17.4408 17.6753 17.375 17.8342 17.375 18C17.375 18.1658 17.4408 18.3247 17.5581 18.4419C17.6753 18.5592 17.8342 18.625 18 18.625Z" fill="black" fill-opacity="0.2"/>
<path d="M18 18.625C18.1658 18.625 18.3247 18.5592 18.4419 18.4419C18.5592 18.3247 18.625 18.1658 18.625 18C18.625 17.8342 18.5592 17.6753 18.4419 17.5581C18.3247 17.4408 18.1658 17.375 18 17.375C17.8342 17.375 17.6753 17.4408 17.5581 17.5581C17.4408 17.6753 17.375 17.8342 17.375 18C17.375 18.1658 17.4408 18.3247 17.5581 18.4419C17.6753 18.5592 17.8342 18.625 18 18.625Z" fill="black" fill-opacity="0.2"/>
</svg>
