<svg width="32" height="32" viewBox="0 0 32 32" fill="none" xmlns="http://www.w3.org/2000/svg">
<path d="M29.8177 26.1819H24.7269C21.5189 26.1819 18.9088 23.5718 18.9088 20.3638C18.9088 17.1558 21.5189 14.5457 24.7269 14.5457H29.8177C29.9133 14.5458 30.0079 14.527 30.0961 14.4905C30.1844 14.454 30.2646 14.4004 30.3321 14.3329C30.3997 14.2653 30.4533 14.1851 30.4898 14.0968C30.5263 14.0086 30.5451 13.914 30.545 13.8185V11.6367C30.545 10.1116 29.3621 8.87133 27.8675 8.75106L23.6907 1.45572C23.3037 0.781006 22.6787 0.298763 21.9308 0.0985167C21.1865 -0.100366 20.4081 0.00408642 19.7419 0.39183L5.42378 8.7276H2.90907C1.30471 8.7276 0 10.0322 0 11.6367V29.0909C0 30.6953 1.30464 32 2.90907 32H27.636C29.2403 32 30.545 30.6954 30.545 29.0909V26.9092C30.5451 26.8136 30.5263 26.719 30.4898 26.6308C30.4533 26.5425 30.3997 26.4623 30.3321 26.3947C30.2646 26.3272 30.1844 26.2736 30.0961 26.2371C30.0079 26.2006 29.9133 26.1818 29.8177 26.1819ZM24.5927 5.95974L26.1774 8.7276H19.8385L24.5927 5.95974ZM8.31464 8.7276L20.4741 1.64888C20.803 1.4564 21.1872 1.40527 21.5544 1.50331C21.9258 1.60272 22.2355 1.84278 22.428 2.17871L22.4295 2.18137L11.1858 8.7276H8.31464Z" fill="#DFCAA0"/>
<path d="M29.8177 26.1819H24.7269C21.5189 26.1819 18.9088 23.5718 18.9088 20.3638C18.9088 17.1558 21.5189 14.5457 24.7269 14.5457H29.8177C29.9133 14.5458 30.0079 14.527 30.0961 14.4905C30.1844 14.454 30.2646 14.4004 30.3321 14.3329C30.3997 14.2653 30.4533 14.1851 30.4898 14.0968C30.5263 14.0086 30.5451 13.914 30.545 13.8185V11.6367C30.545 10.1116 29.3621 8.87133 27.8675 8.75106L23.6907 1.45572C23.3037 0.781006 22.6787 0.298763 21.9308 0.0985167C21.1865 -0.100366 20.4081 0.00408642 19.7419 0.39183L5.42378 8.7276H2.90907C1.30471 8.7276 0 10.0322 0 11.6367V29.0909C0 30.6953 1.30464 32 2.90907 32H27.636C29.2403 32 30.545 30.6954 30.545 29.0909V26.9092C30.5451 26.8136 30.5263 26.719 30.4898 26.6308C30.4533 26.5425 30.3997 26.4623 30.3321 26.3947C30.2646 26.3272 30.1844 26.2736 30.0961 26.2371C30.0079 26.2006 29.9133 26.1818 29.8177 26.1819ZM24.5927 5.95974L26.1774 8.7276H19.8385L24.5927 5.95974ZM8.31464 8.7276L20.4741 1.64888C20.803 1.4564 21.1872 1.40527 21.5544 1.50331C21.9258 1.60272 22.2355 1.84278 22.428 2.17871L22.4295 2.18137L11.1858 8.7276H8.31464Z" fill="black" fill-opacity="0.2"/>
<path d="M29.8177 26.1819H24.7269C21.5189 26.1819 18.9088 23.5718 18.9088 20.3638C18.9088 17.1558 21.5189 14.5457 24.7269 14.5457H29.8177C29.9133 14.5458 30.0079 14.527 30.0961 14.4905C30.1844 14.454 30.2646 14.4004 30.3321 14.3329C30.3997 14.2653 30.4533 14.1851 30.4898 14.0968C30.5263 14.0086 30.5451 13.914 30.545 13.8185V11.6367C30.545 10.1116 29.3621 8.87133 27.8675 8.75106L23.6907 1.45572C23.3037 0.781006 22.6787 0.298763 21.9308 0.0985167C21.1865 -0.100366 20.4081 0.00408642 19.7419 0.39183L5.42378 8.7276H2.90907C1.30471 8.7276 0 10.0322 0 11.6367V29.0909C0 30.6953 1.30464 32 2.90907 32H27.636C29.2403 32 30.545 30.6954 30.545 29.0909V26.9092C30.5451 26.8136 30.5263 26.719 30.4898 26.6308C30.4533 26.5425 30.3997 26.4623 30.3321 26.3947C30.2646 26.3272 30.1844 26.2736 30.0961 26.2371C30.0079 26.2006 29.9133 26.1818 29.8177 26.1819ZM24.5927 5.95974L26.1774 8.7276H19.8385L24.5927 5.95974ZM8.31464 8.7276L20.4741 1.64888C20.803 1.4564 21.1872 1.40527 21.5544 1.50331C21.9258 1.60272 22.2355 1.84278 22.428 2.17871L22.4295 2.18137L11.1858 8.7276H8.31464Z" fill="black" fill-opacity="0.2"/>
<path d="M29.8177 16H24.7268C22.3206 16 20.3633 17.9573 20.3633 20.3636C20.3633 22.7698 22.3206 24.7271 24.7268 24.7271H29.8177C31.0208 24.7271 31.9995 23.7485 31.9995 22.5453V18.1818C31.9995 16.9787 31.0208 16 29.8177 16ZM24.7268 21.8181C23.925 21.8181 23.2723 21.1654 23.2723 20.3636C23.2723 19.5618 23.925 18.9091 24.7268 18.9091C25.5287 18.9091 26.1813 19.5618 26.1813 20.3636C26.1814 21.1654 25.5287 21.8181 24.7268 21.8181Z" fill="#DFCAA0"/>
<path d="M29.8177 16H24.7268C22.3206 16 20.3633 17.9573 20.3633 20.3636C20.3633 22.7698 22.3206 24.7271 24.7268 24.7271H29.8177C31.0208 24.7271 31.9995 23.7485 31.9995 22.5453V18.1818C31.9995 16.9787 31.0208 16 29.8177 16ZM24.7268 21.8181C23.925 21.8181 23.2723 21.1654 23.2723 20.3636C23.2723 19.5618 23.925 18.9091 24.7268 18.9091C25.5287 18.9091 26.1813 19.5618 26.1813 20.3636C26.1814 21.1654 25.5287 21.8181 24.7268 21.8181Z" fill="black" fill-opacity="0.2"/>
<path d="M29.8177 16H24.7268C22.3206 16 20.3633 17.9573 20.3633 20.3636C20.3633 22.7698 22.3206 24.7271 24.7268 24.7271H29.8177C31.0208 24.7271 31.9995 23.7485 31.9995 22.5453V18.1818C31.9995 16.9787 31.0208 16 29.8177 16ZM24.7268 21.8181C23.925 21.8181 23.2723 21.1654 23.2723 20.3636C23.2723 19.5618 23.925 18.9091 24.7268 18.9091C25.5287 18.9091 26.1813 19.5618 26.1813 20.3636C26.1814 21.1654 25.5287 21.8181 24.7268 21.8181Z" fill="black" fill-opacity="0.2"/>
</svg>
