<svg width="27" height="27" viewBox="0 0 27 27" fill="none" xmlns="http://www.w3.org/2000/svg">
<path d="M23.7241 5.46676L13.5764 0.0594945C13.4258 -0.0208532 13.2454 -0.0197256 13.096 0.0623137L3.22898 5.46958C3.06716 5.55838 2.9668 5.7281 2.9668 5.91276V12.976C2.97272 18.7822 6.41273 24.035 11.7326 26.3611L13.1022 26.9579C13.2302 27.0138 13.3759 27.0141 13.5042 26.9585L15.0474 26.292C20.466 24.0164 23.9911 18.7129 23.9917 12.8359V5.91276C23.9917 5.72613 23.8888 5.55443 23.7241 5.46676ZM22.9813 12.8359C22.9802 18.3077 19.6972 23.245 14.6519 25.3626L14.6485 25.3642L13.3046 25.9444L12.1369 25.435C7.18491 23.2698 3.98256 18.3808 3.97692 12.976V6.21188L13.3421 1.07921L22.9813 6.21554V12.8359Z" fill="#1F2937"/>
<path d="M9.61521 12.6485C9.43393 12.4362 9.11508 12.4112 8.90279 12.5924C8.6905 12.7734 8.66541 13.0926 8.84669 13.3046L11.5154 16.4297C11.6935 16.6383 12.0056 16.6668 12.2182 16.4937L18.4334 11.4371C18.65 11.2612 18.6827 10.9429 18.5065 10.7264C18.3305 10.5102 18.0123 10.4772 17.7957 10.6534L11.9633 15.3981L9.61521 12.6485Z" fill="#1F2937"/>
</svg>
