<svg width="16" height="16" viewBox="0 0 16 16" fill="none" xmlns="http://www.w3.org/2000/svg">
<g clip-path="url(#clip0_115111_39594)">
<path d="M15.3465 7.36585C15.2096 5.29378 14.1821 3.35871 12.5552 2.07437C10.9284 0.790025 8.80497 0.259164 6.75003 0.601655C3.08537 1.23526 0.396818 4.62592 0.653687 8.35908C0.773559 10.1572 1.52704 11.8182 2.79426 13.0854C2.46889 13.5649 2.17777 13.8732 1.40717 14.4897C1.25305 14.6095 1.18455 14.7979 1.23592 14.9863C1.27017 15.1746 1.40717 15.3288 1.57841 15.3801C1.83528 15.4658 2.21202 15.5 2.64013 15.5C3.54774 15.5 4.69508 15.2945 5.58556 14.8322C6.76715 15.2431 8.03437 15.3459 9.28446 15.1233C12.9491 14.4725 15.6034 11.0648 15.3465 7.36585ZM4.57521 9.19818C3.90735 9.19818 3.37649 8.66732 3.37649 7.99946C3.37649 7.3316 3.90735 6.80074 4.57521 6.80074C5.24307 6.80074 5.77393 7.3316 5.77393 7.99946C5.77393 8.66732 5.24307 9.19818 4.57521 9.19818ZM8.00012 9.19818C7.33226 9.19818 6.8014 8.66732 6.8014 7.99946C6.8014 7.3316 7.33226 6.80074 8.00012 6.80074C8.66798 6.80074 9.19884 7.3316 9.19884 7.99946C9.19884 8.66732 8.66798 9.19818 8.00012 9.19818ZM11.425 9.19818C10.7572 9.19818 10.2263 8.66732 10.2263 7.99946C10.2263 7.3316 10.7572 6.80074 11.425 6.80074C12.0929 6.80074 12.6237 7.3316 12.6237 7.99946C12.6237 8.66732 12.0929 9.19818 11.425 9.19818Z" fill="#1F2937"/>
</g>
<defs>
<clipPath id="clip0_115111_39594">
<rect width="15" height="15" fill="white" transform="translate(0.5 0.5)"/>
</clipPath>
</defs>
</svg>
