<svg width="17" height="16" viewBox="0 0 17 16" fill="none" xmlns="http://www.w3.org/2000/svg">
<g clip-path="url(#clip0_115111_39606)">
<mask id="mask0_115111_39606" style="mask-type:luminance" maskUnits="userSpaceOnUse" x="0" y="0" width="17" height="16">
<path d="M0.5 0H16.5V16H0.5V0Z" fill="white"/>
</mask>
<g mask="url(#mask0_115111_39606)">
<path d="M9.68414 1.168C9.68414 1.81306 9.1612 2.336 8.51614 2.336C7.87109 2.336 7.34814 1.81306 7.34814 1.168C7.34814 0.522944 7.87109 0 8.51614 0C9.1612 0 9.68414 0.522944 9.68414 1.168Z" fill="#1F2937"/>
<path fill-rule="evenodd" clip-rule="evenodd" d="M8.516 2.33594H6.516C4.76054 2.33594 3.27133 3.47591 2.74822 5.05594H2.676C1.47424 5.05594 0.5 6.03018 0.5 7.23194C0.5 8.4337 1.47424 9.40794 2.676 9.40794H2.72765C3.23133 11.0211 4.73693 12.1919 6.516 12.1919H10.516C12.2951 12.1919 13.8007 11.0211 14.3044 9.40794H14.324C15.5258 9.40794 16.5 8.4337 16.5 7.23194C16.5 6.03018 15.5258 5.05594 14.324 5.05594H14.2838C13.7607 3.47591 12.2715 2.33594 10.516 2.33594H8.516ZM12.394 6.97594C12.394 7.79632 11.7289 8.46141 10.9084 8.46141C10.088 8.46141 9.42298 7.79632 9.42298 6.97594C9.42298 6.15552 10.088 5.49043 10.9084 5.49043C11.7289 5.49043 12.394 6.15552 12.394 6.97594ZM6.08147 8.46141C6.90189 8.46141 7.56698 7.79632 7.56698 6.97594C7.56698 6.15552 6.90189 5.49043 6.08147 5.49043C5.26109 5.49043 4.596 6.15552 4.596 6.97594C4.596 7.79632 5.26109 8.46141 6.08147 8.46141Z" fill="#1F2937"/>
<path d="M3.37744 16.0003C4.3361 14.138 6.27738 12.8643 8.51616 12.8643C10.7549 12.8643 12.6962 14.138 13.6549 16.0003H3.37744Z" fill="#1F2937"/>
</g>
</g>
<defs>
<clipPath id="clip0_115111_39606">
<rect width="16" height="16" fill="white" transform="translate(0.5)"/>
</clipPath>
</defs>
</svg>
